<svg xmlns="http://www.w3.org/2000/svg" viewBox="0 0 1046.25 762.76"><g id="Layer_2" data-name="Layer 2"><g id="Layer_1-2" data-name="Layer 1"><g id="hero-img"><path d="M688.57,689.92,417.92,533.66c-7.66-4.42-6.7-12.14,2.14-17.25l184.3-106.36c8.84-5.11,22.21-5.66,29.87-1.24L904.87,565.07c7.66,4.42,6.7,12.14-2.14,17.25L718.44,688.68C709.6,693.79,696.22,694.34,688.57,689.92Z" style="fill:#c4d9e8;opacity:0.5"/><path d="M968.26,288.26,697.62,132a11,11,0,0,0-9.18-1.12l0,0L688,131l-.12.05-9.78,3.74,8.78,4.3c0,.16-.09.31-.13.48L642.64,340.27c-2.21,10,2.21,21.76,9.87,26.18L916.65,519l-.95,11.2L926.39,526c3.59-1.68,6.47-5.48,7.66-10.89l44.08-200.67C980.34,304.4,975.92,292.68,968.26,288.26Z" style="fill:#173d7a"/><path d="M968.26,288.26,697.62,132a11,11,0,0,0-9.18-1.12l0,0L688,131l-.12.05-9.78,3.74,8.78,4.3c0,.16-.09.31-.13.48L657.67,271.85,790.09,375l186.72-76C975,294.39,972,290.44,968.26,288.26Z" style="fill:#396caa"/><path d="M958.06,319.11l20.6-8.78c.38-8-2.92-16.22-8.34-20.63L937.7,303.42Z" style="fill:#274f89"/><path d="M906.3,529.08,635.65,372.83c-7.65-4.42-12.07-16.15-9.87-26.19L669.87,146c2.2-10,10.2-14.6,17.86-10.18L958.37,292.05c7.66,4.42,12.08,16.14,9.87,26.19L924.16,518.91C922,529,914,533.51,906.3,529.08Z" style="fill:#d4ecff"/><path d="M900.43,514.16,645.89,367.27c-7-4-11-14.77-9-24L677.2,159.68c2-9.19,9.34-13.36,16.35-9.32L948.09,297.25c7,4.05,11,14.77,9,24L916.78,504.84C914.76,514,907.44,518.2,900.43,514.16Z" style="fill:#fff"/><path d="M900.43,514.16,645.89,367.27c-7-4-11-14.77-9-24L677.2,159.68c2-9.19,9.34-13.36,16.35-9.32L948.09,297.25c7,4.05,11,14.77,9,24L916.78,504.84C914.76,514,907.44,518.2,900.43,514.16Z" style="fill:#fff"/><path d="M910,535.89,873,531,634.23,393.12c-7.66-4.42-21-3.86-29.87,1.24L435.13,492l-22.37-3v12.7h0c-.14,2.93,1.53,5.76,5.14,7.84L688.57,665.87c7.65,4.42,21,3.87,29.87-1.24L902.73,558.27c5-2.87,7.45-6.57,7.31-10h0Z" style="fill:#173d7a"/><path d="M730.6,448.77l-17-9.8H527.09l-92,53.06-22.37-3v12.7h0c-.14,2.93,1.53,5.76,5.14,7.84L688.57,665.87c4,2.34,9.69,3.27,15.41,2.89Z" style="fill:#396caa"/><path d="M422.69,490.39l-9.93-1.32v12.7h0c-.14,2.93,1.53,5.76,5.14,7.84l4.77,2.75Z" style="fill:#5793ce"/><path d="M691.29,667.14c7.26,2.75,17.64,2.15,25.38-1.58V637.25H691.29Z" style="fill:#274f89"/><path d="M688.57,653.19,417.92,496.93c-7.66-4.42-6.7-12.14,2.14-17.24l184.3-106.37c8.84-5.1,22.21-5.66,29.87-1.24L904.87,528.34c7.66,4.42,6.7,12.14-2.14,17.25L718.44,652C709.6,657.06,696.22,657.61,688.57,653.19Z" style="fill:#d4ecff"/><path d="M902.73,541,718.44,647.32c-8.84,5.1-22.22,5.66-29.87,1.24L417.92,492.3a10.07,10.07,0,0,1-4.76-5.21c-1.2,3.62.33,7.28,4.76,9.84L688.57,653.19c7.65,4.42,21,3.87,29.87-1.24L902.73,545.59c5.94-3.43,8.31-8,6.9-12C908.76,536.19,906.45,538.8,902.73,541Z" style="fill:#fff"/><path d="M533,445.2l-12.25-7.07c-1-.57-.86-1.56.28-2.21l14.45-8.35a4.31,4.31,0,0,1,3.84-.16l12.25,7.07c1,.57.86,1.56-.28,2.22L536.87,445A4.25,4.25,0,0,1,533,445.2Z" style="fill:#173d7a"/><path d="M551.94,456.12l-12.25-7.07c-1-.57-.86-1.56.28-2.21l14.45-8.35a4.25,4.25,0,0,1,3.84-.16l12.25,7.07c1,.57.86,1.56-.28,2.22L555.78,456A4.25,4.25,0,0,1,551.94,456.12Z" style="fill:#173d7a"/><path d="M570.85,467,558.61,460c-1-.57-.86-1.56.27-2.22l14.46-8.34a4.23,4.23,0,0,1,3.83-.16l12.25,7.07c1,.57.86,1.56-.28,2.21l-14.45,8.35A4.25,4.25,0,0,1,570.85,467Z" style="fill:#173d7a"/><path d="M597,458,584.76,451c-1-.57-.86-1.56.28-2.21l12.13-7a4.31,4.31,0,0,1,3.84-.16l12.24,7.07c1,.57.86,1.56-.27,2.22l-12.14,7A4.23,4.23,0,0,1,597,458Z" style="fill:#173d7a"/><path d="M615.92,468.94l-12.25-7.07c-1-.57-.86-1.56.28-2.21l12.13-7a4.25,4.25,0,0,1,3.84-.16l12.24,7.07c1,.57.86,1.56-.27,2.22l-12.14,7A4.23,4.23,0,0,1,615.92,468.94Z" style="fill:#173d7a"/><path d="M634.83,479.86l-12.25-7.07c-1-.57-.86-1.56.28-2.22l12.13-7a4.25,4.25,0,0,1,3.84-.16l12.24,7.07c1,.57.86,1.56-.27,2.21l-12.13,7A4.25,4.25,0,0,1,634.83,479.86Z" style="fill:#173d7a"/><path d="M653.74,490.78l-12.25-7.07c-1-.57-.86-1.56.28-2.22l12.13-7a4.25,4.25,0,0,1,3.84-.16L670,481.4c1,.57.86,1.56-.28,2.21l-12.13,7A4.31,4.31,0,0,1,653.74,490.78Z" style="fill:#173d7a"/><path d="M672.65,501.7l-12.24-7.07c-1-.57-.86-1.56.27-2.22l12.13-7a4.25,4.25,0,0,1,3.84-.16l12.25,7.07c1,.56.86,1.56-.28,2.21l-12.13,7A4.31,4.31,0,0,1,672.65,501.7Z" style="fill:#173d7a"/><path d="M691.56,512.61l-12.24-7.07c-1-.56-.86-1.56.27-2.21l12.14-7a4.29,4.29,0,0,1,3.83-.16l12.25,7.07c1,.57.86,1.56-.28,2.22l-12.13,7A4.25,4.25,0,0,1,691.56,512.61Z" style="fill:#173d7a"/><path d="M710.47,523.53l-12.24-7.07c-1-.57-.86-1.56.27-2.21l12.14-7a4.29,4.29,0,0,1,3.83-.16l12.25,7.07c1,.57.86,1.56-.28,2.22l-12.13,7A4.25,4.25,0,0,1,710.47,523.53Z" style="fill:#173d7a"/><path d="M729.39,534.45l-12.25-7.07c-1-.57-.86-1.56.27-2.21l12.14-7a4.23,4.23,0,0,1,3.83-.16l12.25,7.07c1,.57.86,1.56-.28,2.22l-12.13,7A4.23,4.23,0,0,1,729.39,534.45Z" style="fill:#173d7a"/><path d="M748.3,545.37l-12.25-7.07c-1-.57-.86-1.56.28-2.22l12.13-7a4.25,4.25,0,0,1,3.84-.16L764.54,536c1,.57.86,1.56-.27,2.21l-12.14,7A4.23,4.23,0,0,1,748.3,545.37Z" style="fill:#173d7a"/><path d="M767.21,556.29,755,549.22c-1-.57-.86-1.56.28-2.22l12.13-7a4.25,4.25,0,0,1,3.84-.16l12.24,7.07c1,.57.86,1.56-.27,2.21l-12.14,7A4.29,4.29,0,0,1,767.21,556.29Z" style="fill:#173d7a"/><path d="M624.87,452.85l-12.24-7.07c-1-.57-.86-1.56.27-2.21l12.13-7a4.31,4.31,0,0,1,3.84-.16l12.25,7.07c1,.57.86,1.56-.28,2.22l-12.13,7A4.25,4.25,0,0,1,624.87,452.85Z" style="fill:#396caa"/><path d="M605.68,441.77l-12.25-7.07c-1-.57-.86-1.56.28-2.21l12.13-7a4.28,4.28,0,0,1,3.84-.16l12.24,7.07c1,.57.86,1.56-.27,2.22l-12.14,7A4.23,4.23,0,0,1,605.68,441.77Z" style="fill:#396caa"/><path d="M586.45,430.67l-26.37-15.23c-1-.56-.86-1.55.27-2.21l12.14-7a4.26,4.26,0,0,1,3.83-.15l26.38,15.22c1,.57.86,1.56-.28,2.22l-12.13,7A4.25,4.25,0,0,1,586.45,430.67Z" style="fill:#173d7a"/><path d="M599.89,417.17l-21.4-12.35c-1-.57-.86-1.56.27-2.22l12.14-7a4.23,4.23,0,0,1,3.83-.16l21.41,12.35c1,.57.86,1.56-.28,2.22l-12.13,7A4.25,4.25,0,0,1,599.89,417.17Z" style="fill:#173d7a"/><path d="M643.78,463.77l-12.24-7.07c-1-.57-.86-1.56.27-2.21l12.14-7a4.26,4.26,0,0,1,3.83-.16L660,454.39c1,.57.86,1.56-.28,2.22l-12.13,7A4.25,4.25,0,0,1,643.78,463.77Z" style="fill:#396caa"/><path d="M662.69,474.69l-12.24-7.07c-1-.57-.86-1.56.27-2.22l12.14-7a4.23,4.23,0,0,1,3.83-.16l12.25,7.07c1,.57.86,1.56-.28,2.22l-12.13,7A4.25,4.25,0,0,1,662.69,474.69Z" style="fill:#173d7a"/><path d="M681.6,485.61l-12.24-7.07c-1-.57-.86-1.56.27-2.22l12.14-7a4.23,4.23,0,0,1,3.83-.16l12.25,7.07c1,.57.86,1.56-.28,2.21l-12.13,7A4.28,4.28,0,0,1,681.6,485.61Z" style="fill:#173d7a"/><path d="M700.52,496.53l-12.25-7.07c-1-.57-.86-1.56.28-2.22l12.13-7a4.25,4.25,0,0,1,3.84-.16l12.24,7.07c1,.56.86,1.56-.27,2.21l-12.14,7A4.29,4.29,0,0,1,700.52,496.53Z" style="fill:#173d7a"/><path d="M719.43,507.44l-12.25-7.07c-1-.56-.86-1.55.28-2.21l12.13-7a4.28,4.28,0,0,1,3.84-.15l12.24,7.07c1,.56.86,1.55-.27,2.21l-12.14,7A4.26,4.26,0,0,1,719.43,507.44Z" style="fill:#173d7a"/><path d="M738.34,518.36l-12.25-7.07c-1-.56-.86-1.56.28-2.21l12.13-7a4.31,4.31,0,0,1,3.84-.16L754.58,509c1,.57.86,1.56-.27,2.22l-12.14,7A4.23,4.23,0,0,1,738.34,518.36Z" style="fill:#173d7a"/><path d="M757.25,529.28,745,522.21c-1-.57-.86-1.56.28-2.21l12.13-7a4.28,4.28,0,0,1,3.84-.16l12.24,7.07c1,.57.86,1.56-.27,2.22l-12.13,7A4.25,4.25,0,0,1,757.25,529.28Z" style="fill:#173d7a"/><path d="M776.16,540.2l-12.25-7.07c-1-.57-.85-1.56.28-2.22l12.13-7a4.25,4.25,0,0,1,3.84-.16l12.25,7.07c1,.57.86,1.56-.28,2.22L780,540A4.25,4.25,0,0,1,776.16,540.2Z" style="fill:#173d7a"/><path d="M795.07,551.12l-12.24-7.07c-1-.57-.86-1.56.27-2.22l12.14-7a4.23,4.23,0,0,1,3.83-.16l12.25,7.07c1,.57.86,1.56-.28,2.21l-12.13,7A4.28,4.28,0,0,1,795.07,551.12Z" style="fill:#173d7a"/><path d="M828.69,570.53,802,555.1c-1-.57-.86-1.56.28-2.21l12.13-7a4.31,4.31,0,0,1,3.84-.16l26.72,15.43c1,.57.86,1.56-.28,2.21l-12.13,7A4.28,4.28,0,0,1,828.69,570.53Z" style="fill:#173d7a"/><path d="M865.51,549.27l-22.55-13c-1-.57-.86-1.56.27-2.21l12.14-7a4.26,4.26,0,0,1,3.83-.16l22.55,13c1,.57.86,1.56-.27,2.22l-12.13,7A4.25,4.25,0,0,1,865.51,549.27Z" style="fill:#173d7a"/><path d="M676.9,461.63l-12.25-7.07c-1-.56-.86-1.55.28-2.21l12.13-7a4.28,4.28,0,0,1,3.84-.15l12.24,7.07c1,.56.86,1.56-.27,2.21l-12.13,7A4.28,4.28,0,0,1,676.9,461.63Z" style="fill:#173d7a"/><path d="M657.52,450.44l-12.25-7.07c-1-.56-.86-1.55.28-2.21l12.13-7a4.28,4.28,0,0,1,3.84-.15l12.24,7.07c1,.56.86,1.55-.27,2.21l-12.14,7A4.26,4.26,0,0,1,657.52,450.44Z" style="fill:#173d7a"/><path d="M638.14,439.25l-12.25-7.07c-1-.56-.86-1.55.28-2.21l12.13-7a4.28,4.28,0,0,1,3.84-.15l12.24,7.07c1,.56.86,1.55-.27,2.21l-12.14,7A4.26,4.26,0,0,1,638.14,439.25Z" style="fill:#396caa"/><path d="M618.76,428.06,606.51,421c-1-.56-.86-1.55.27-2.21l12.14-7a4.26,4.26,0,0,1,3.83-.15L635,418.69c1,.56.86,1.56-.28,2.21l-12.13,7A4.26,4.26,0,0,1,618.76,428.06Z" style="fill:#173d7a"/><path d="M695.81,472.55l-12.24-7.07c-1-.56-.86-1.56.27-2.21l12.13-7a4.31,4.31,0,0,1,3.84-.16l12.25,7.07c1,.57.86,1.56-.28,2.22l-12.13,7A4.25,4.25,0,0,1,695.81,472.55Z" style="fill:#173d7a"/><path d="M714.72,483.47l-12.24-7.07c-1-.57-.86-1.56.27-2.21l12.14-7a4.26,4.26,0,0,1,3.83-.16L731,474.09c1,.57.86,1.56-.28,2.22l-12.13,7A4.25,4.25,0,0,1,714.72,483.47Z" style="fill:#173d7a"/><path d="M733.63,494.39l-12.24-7.07c-1-.57-.86-1.56.27-2.21l12.14-7a4.23,4.23,0,0,1,3.83-.16L749.88,485c1,.57.86,1.56-.28,2.22l-12.13,7A4.25,4.25,0,0,1,733.63,494.39Z" style="fill:#173d7a"/><path d="M752.54,505.31l-12.24-7.07c-1-.57-.86-1.56.27-2.22l12.14-7a4.23,4.23,0,0,1,3.83-.16l12.25,7.07c1,.57.86,1.56-.28,2.21l-12.13,7A4.28,4.28,0,0,1,752.54,505.31Z" style="fill:#173d7a"/><path d="M771.46,516.23l-12.25-7.07c-1-.57-.86-1.56.28-2.22l12.13-7a4.25,4.25,0,0,1,3.84-.16l12.24,7.07c1,.57.86,1.56-.27,2.21l-12.14,7A4.29,4.29,0,0,1,771.46,516.23Z" style="fill:#173d7a"/><path d="M790.37,527.15l-12.25-7.08c-1-.56-.86-1.55.28-2.21l12.13-7a4.28,4.28,0,0,1,3.84-.15l12.24,7.07c1,.56.86,1.56-.27,2.21l-12.14,7A4.29,4.29,0,0,1,790.37,527.15Z" style="fill:#173d7a"/><path d="M809.28,538.06,797,531c-1-.56-.86-1.56.28-2.21l12.13-7a4.31,4.31,0,0,1,3.84-.16l12.24,7.07c1,.57.86,1.56-.27,2.22l-12.14,7A4.23,4.23,0,0,1,809.28,538.06Z" style="fill:#173d7a"/><path d="M828.19,549l-12.25-7.07c-1-.57-.86-1.56.28-2.21l12.13-7a4.28,4.28,0,0,1,3.84-.16l12.24,7.07c1,.57.86,1.56-.27,2.22l-12.13,7A4.25,4.25,0,0,1,828.19,549Z" style="fill:#173d7a"/><path d="M847.1,559.9l-12.25-7.07c-1-.57-.86-1.56.28-2.21l12.13-7a4.25,4.25,0,0,1,3.84-.16l12.25,7.07c1,.57.86,1.56-.28,2.22l-12.13,7A4.25,4.25,0,0,1,847.1,559.9Z" style="fill:#173d7a"/><path d="M666.94,434.63l-12.24-7.07c-1-.57-.86-1.56.27-2.22l12.14-7a4.23,4.23,0,0,1,3.83-.16l12.25,7.07c1,.57.86,1.56-.28,2.21l-12.13,7A4.25,4.25,0,0,1,666.94,434.63Z" style="fill:#173d7a"/><path d="M648.13,423.76l-12.25-7.07c-1-.56-.86-1.55.27-2.21l12.14-7a4.26,4.26,0,0,1,3.83-.15l12.25,7.07c1,.56.86,1.55-.28,2.21l-12.13,7A4.26,4.26,0,0,1,648.13,423.76Z" style="fill:#173d7a"/><path d="M629.31,412.9l-12.25-7.07c-1-.57-.86-1.56.28-2.21l12.13-7a4.28,4.28,0,0,1,3.84-.16l12.24,7.07c1,.57.86,1.56-.27,2.22l-12.14,7A4.23,4.23,0,0,1,629.31,412.9Z" style="fill:#173d7a"/><path d="M610.49,402,598.25,395c-1-.57-.86-1.56.27-2.22l12.13-7a4.25,4.25,0,0,1,3.84-.16l12.25,7.07c1,.57.86,1.56-.28,2.21l-12.13,7A4.31,4.31,0,0,1,610.49,402Z" style="fill:#173d7a"/><path d="M629.84,390.87l-12.25-7.07c-1-.57-.86-1.56.28-2.22l4-2.32a4.28,4.28,0,0,1,3.84-.15L638,386.18c1,.56.86,1.55-.27,2.21l-4,2.32A4.31,4.31,0,0,1,629.84,390.87Z" style="fill:#173d7a"/><path d="M654.4,405,642.15,398c-1-.57-.86-1.56.28-2.21l4-2.32a4.29,4.29,0,0,1,3.83-.16l12.25,7.07c1,.57.86,1.56-.28,2.22l-4,2.31A4.23,4.23,0,0,1,654.4,405Z" style="fill:#173d7a"/><path d="M673.14,415.86l-12.25-7.07c-1-.57-.86-1.56.28-2.21l4-2.32a4.26,4.26,0,0,1,3.83-.16l12.25,7.07c1,.57.86,1.56-.28,2.22l-4,2.31A4.23,4.23,0,0,1,673.14,415.86Z" style="fill:#173d7a"/><path d="M691.87,426.68l-12.24-7.07c-1-.57-.86-1.56.27-2.21l4-2.32a4.23,4.23,0,0,1,3.83-.16L700,422c1,.57.86,1.56-.28,2.22l-4,2.31A4.25,4.25,0,0,1,691.87,426.68Z" style="fill:#173d7a"/><path d="M710.61,437.5l-12.24-7.07c-1-.57-.86-1.56.27-2.22l4-2.31a4.25,4.25,0,0,1,3.84-.16l12.25,7.07c1,.57.86,1.56-.28,2.21l-4,2.32A4.25,4.25,0,0,1,710.61,437.5Z" style="fill:#173d7a"/><path d="M815.23,497.9,803,490.83c-1-.57-.86-1.56.28-2.22l4-2.31a4.23,4.23,0,0,1,3.83-.16l12.25,7.07c1,.57.86,1.56-.27,2.21l-4,2.32A4.23,4.23,0,0,1,815.23,497.9Z" style="fill:#173d7a"/><path d="M834,508.72l-12.25-7.07c-1-.57-.86-1.56.28-2.22l4-2.31a4.23,4.23,0,0,1,3.83-.16L842.09,504c1,.57.86,1.56-.28,2.21l-4,2.32A4.26,4.26,0,0,1,834,508.72Z" style="fill:#173d7a"/><path d="M852.71,519.54l-12.25-7.07c-1-.57-.86-1.56.27-2.22l4-2.31a4.23,4.23,0,0,1,3.83-.16l12.25,7.07c1,.56.86,1.56-.28,2.21l-4,2.32A4.29,4.29,0,0,1,852.71,519.54Z" style="fill:#173d7a"/><path d="M871.44,530.35l-12.24-7.07c-1-.56-.86-1.55.27-2.21l4-2.32a4.28,4.28,0,0,1,3.84-.15l12.25,7.07c1,.56.86,1.55-.28,2.21l-4,2.32A4.28,4.28,0,0,1,871.44,530.35Z" style="fill:#173d7a"/><path d="M685.85,445.55l-12.24-7.07c-1-.57-.86-1.56.27-2.22l12.14-7a4.23,4.23,0,0,1,3.83-.16l12.25,7.07c1,.57.86,1.56-.28,2.21l-12.13,7A4.31,4.31,0,0,1,685.85,445.55Z" style="fill:#173d7a"/><path d="M704.76,456.47l-12.24-7.07c-1-.57-.86-1.56.27-2.22l12.14-7a4.23,4.23,0,0,1,3.83-.16L721,447.09c1,.56.86,1.56-.28,2.21l-12.13,7A4.31,4.31,0,0,1,704.76,456.47Z" style="fill:#173d7a"/><path d="M723.68,467.38l-12.25-7.07c-1-.56-.86-1.56.28-2.21l12.13-7a4.29,4.29,0,0,1,3.83-.16L739.92,458c1,.56.86,1.55-.27,2.21l-12.14,7A4.26,4.26,0,0,1,723.68,467.38Z" style="fill:#173d7a"/><path d="M742.59,478.3l-12.25-7.07c-1-.57-.86-1.56.28-2.21l12.13-7a4.31,4.31,0,0,1,3.84-.16l12.24,7.07c1,.57.86,1.56-.27,2.22l-12.14,7A4.23,4.23,0,0,1,742.59,478.3Z" style="fill:#173d7a"/><path d="M761.5,489.22l-12.25-7.07c-1-.57-.86-1.56.28-2.21l12.13-7a4.28,4.28,0,0,1,3.84-.16l12.24,7.07c1,.57.86,1.56-.27,2.22l-12.14,7A4.23,4.23,0,0,1,761.5,489.22Z" style="fill:#173d7a"/><path d="M780.41,500.14l-12.25-7.07c-1-.57-.86-1.56.28-2.22l12.13-7a4.25,4.25,0,0,1,3.84-.16l12.24,7.07c1,.57.86,1.56-.27,2.21l-12.13,7A4.25,4.25,0,0,1,780.41,500.14Z" style="fill:#173d7a"/><path d="M799.32,511.06,787.07,504c-1-.57-.86-1.56.28-2.22l12.13-7a4.25,4.25,0,0,1,3.84-.16l12.25,7.07c1,.57.86,1.56-.28,2.21l-12.13,7A4.28,4.28,0,0,1,799.32,511.06Z" style="fill:#173d7a"/><path d="M818.23,522,806,514.91c-1-.57-.86-1.56.27-2.22l12.13-7a4.25,4.25,0,0,1,3.84-.16l12.25,7.07c1,.56.86,1.56-.28,2.21l-12.13,7A4.31,4.31,0,0,1,818.23,522Z" style="fill:#173d7a"/><path d="M837.14,532.89l-12.24-7.07c-1-.56-.86-1.56.27-2.21l12.14-7a4.26,4.26,0,0,1,3.83-.15l12.25,7.07c1,.56.86,1.55-.28,2.21l-12.13,7A4.28,4.28,0,0,1,837.14,532.89Z" style="fill:#173d7a"/><path d="M577.74,446.9l-36.07-20.83c-1-.56-.86-1.56.28-2.21l12.13-7a4.31,4.31,0,0,1,3.84-.16L594,437.52c1,.56.86,1.56-.28,2.21l-12.13,7A4.29,4.29,0,0,1,577.74,446.9Z" style="fill:#173d7a"/><path d="M810.06,581,774,560.21c-1-.57-.86-1.56.27-2.22l12.14-7a4.23,4.23,0,0,1,3.83-.16l36.07,20.82c1,.57.86,1.56-.28,2.22l-12.13,7A4.25,4.25,0,0,1,810.06,581Z" style="fill:#173d7a"/><path d="M734.44,561.48l-12.25-7.07c-1-.56-.86-1.56.27-2.21l14.46-8.35a4.29,4.29,0,0,1,3.83-.16L753,550.76c1,.57.86,1.56-.27,2.22l-14.46,8.34A4.23,4.23,0,0,1,734.44,561.48Z" style="fill:#173d7a"/><path d="M597.1,482.19l-19.58-11.3c-1-.57-.86-1.56.27-2.22l14.46-8.34a4.23,4.23,0,0,1,3.83-.16l19.59,11.31c1,.56.86,1.55-.28,2.21L600.94,482A4.25,4.25,0,0,1,597.1,482.19Z" style="fill:#173d7a"/><path d="M716.21,551l-19.58-11.3c-1-.57-.86-1.56.27-2.22l14.46-8.34a4.25,4.25,0,0,1,3.84-.16l19.58,11.3c1,.57.86,1.56-.28,2.22l-14.45,8.34A4.25,4.25,0,0,1,716.21,551Z" style="fill:#173d7a"/><path d="M624.39,498,604.8,486.64c-1-.57-.86-1.56.28-2.21l14.45-8.35a4.25,4.25,0,0,1,3.84-.16L643,487.23c1,.57.86,1.56-.27,2.21l-14.46,8.35A4.29,4.29,0,0,1,624.39,498Z" style="fill:#173d7a"/><path d="M623.5,476l85.15,49.16a1.17,1.17,0,0,1,0,2.21l-14.74,8.51a4.24,4.24,0,0,1-3.83,0l-85.15-49.16Z" style="fill:#173d7a"/><path d="M787.29,581.28l13.64,7.87c.8.47.7,1.28-.23,1.82l-5.91,3.41a3.46,3.46,0,0,1-3.14.13L778,586.64c-.81-.47-.71-1.28.22-1.82l5.91-3.41A3.48,3.48,0,0,1,787.29,581.28Z" style="fill:#173d7a"/><path d="M768.22,570.27l13.64,7.88c.81.46.71,1.27-.22,1.81l-5.92,3.42a3.53,3.53,0,0,1-3.14.13l-13.64-7.88c-.81-.47-.71-1.28.22-1.82l5.92-3.41A3.49,3.49,0,0,1,768.22,570.27Z" style="fill:#173d7a"/><path d="M749.31,559.35,763,567.23c.81.46.7,1.28-.23,1.81l-5.91,3.42a3.53,3.53,0,0,1-3.14.13L740,564.71c-.81-.46-.71-1.28.22-1.81l5.92-3.42A3.53,3.53,0,0,1,749.31,559.35Z" style="fill:#173d7a"/><path d="M778.66,564.24l13.64,7.88c.81.46.71,1.27-.22,1.81l-5.91,3.42a3.55,3.55,0,0,1-3.15.13l-13.64-7.88c-.8-.46-.7-1.28.23-1.81l5.91-3.42A3.49,3.49,0,0,1,778.66,564.24Z" style="fill:#173d7a"/><path d="M753.61,229.56l-18.1-10.45a5.18,5.18,0,0,1-2.21-5.36h0a2.53,2.53,0,0,1,3.88-1.85l18.09,10.45a5.18,5.18,0,0,1,2.21,5.36h0C757,229.7,755.29,230.53,753.61,229.56Z" style="fill:#d4ecff"/><path d="M796.71,254.45,770,239a5.18,5.18,0,0,1-2.21-5.36h0c.46-2,2.2-2.81,3.87-1.85l26.69,15.41a5.18,5.18,0,0,1,2.21,5.36h0C800.13,254.59,798.39,255.42,796.71,254.45Z" style="fill:#d4ecff"/><path d="M722.06,314,704,303.58a5.17,5.17,0,0,1-2.21-5.36h0c.46-2,2.19-2.81,3.87-1.84l18.1,10.44a5.17,5.17,0,0,1,2.2,5.36h0C725.48,314.17,723.74,315,722.06,314Z" style="fill:#d4ecff"/><path d="M760.49,336.22,733.8,320.81a5.19,5.19,0,0,1-2.2-5.36h0c.46-2,2.19-2.82,3.87-1.85L762.15,329a5.18,5.18,0,0,1,2.21,5.36h0C763.9,336.36,762.17,337.19,760.49,336.22Z" style="fill:#d4ecff"/><path d="M700.22,215.85l-11.3-6.52a5.18,5.18,0,0,1-2.21-5.36h0c.46-2,2.19-2.82,3.87-1.85l11.31,6.52A5.18,5.18,0,0,1,704.1,214h0C703.64,216,701.9,216.82,700.22,215.85Z" style="fill:#d4ecff"/><path d="M735.07,253.08l-34.55-19.94a5.19,5.19,0,0,1-2.2-5.36h0c.46-2,2.19-2.82,3.87-1.85l34.54,19.95a5.15,5.15,0,0,1,2.21,5.35h0C738.48,253.22,736.74,254.05,735.07,253.08Z" style="fill:#d4ecff"/><path d="M704.86,269.87l-11.31-6.53a5.19,5.19,0,0,1-2.21-5.36h0c.46-2,2.2-2.81,3.88-1.84l11.3,6.52a5.18,5.18,0,0,1,2.21,5.36h0C708.27,270,706.54,270.84,704.86,269.87Z" style="fill:#d4ecff"/><path d="M766.31,373.8l-30.2-17.43A5.18,5.18,0,0,1,733.9,351h0c.46-2,2.2-2.82,3.87-1.85L768,366.6a5.18,5.18,0,0,1,2.21,5.36h0C769.72,374,768,374.77,766.31,373.8Z" style="fill:#d4ecff"/><path d="M693.84,297.74l-7.26-4.19a5.18,5.18,0,0,1-2.21-5.36h0c.46-2,2.2-2.82,3.87-1.85l7.26,4.19a5.18,5.18,0,0,1,2.21,5.36h0C697.25,297.88,695.52,298.71,693.84,297.74Z" style="fill:#d4ecff"/><path d="M688.62,329l-9-5.2a5.18,5.18,0,0,1-2.21-5.36h0c.46-2,2.19-2.82,3.87-1.85l9,5.2a5.18,5.18,0,0,1,2.21,5.36h0C692,329.09,690.3,329.92,688.62,329Z" style="fill:#d4ecff"/><path d="M723.68,349.19l-23.76-13.71a5.18,5.18,0,0,1-2.21-5.36h0c.46-2,2.19-2.82,3.87-1.85L725.34,342a5.16,5.16,0,0,1,2.21,5.35h0C727.09,349.33,725.36,350.16,723.68,349.19Z" style="fill:#d4ecff"/><path d="M693.21,348.71l-17.09-9.86a5.17,5.17,0,0,1-2.2-5.36h0c.45-2,2.19-2.82,3.87-1.85l17.08,9.87a5.17,5.17,0,0,1,2.21,5.36h0C696.62,348.86,694.88,349.68,693.21,348.71Z" style="fill:#d4ecff"/><path d="M792.21,388.84l-11-6.34a5.18,5.18,0,0,1-2.21-5.36h0a2.53,2.53,0,0,1,3.88-1.85l11,6.34a5.17,5.17,0,0,1,2.2,5.36h0C795.63,389,793.89,389.81,792.21,388.84Z" style="fill:#d4ecff"/><path d="M746.91,294.15l-30.19-17.43a5.18,5.18,0,0,1-2.21-5.36h0c.46-2,2.19-2.82,3.87-1.85l30.19,17.43a5.18,5.18,0,0,1,2.21,5.36h0C750.32,294.29,748.59,295.12,746.91,294.15Z" style="fill:#d4ecff"/><path d="M749.66,278.63,697,248.24a5.18,5.18,0,0,1-2.21-5.36h0c.46-2,2.19-2.82,3.87-1.85l52.63,30.39a5.18,5.18,0,0,1,2.21,5.36h0C753.08,278.77,751.34,279.6,749.66,278.63Z" style="fill:#d4ecff"/><path d="M720.26,295.88l-30.19-17.44a5.15,5.15,0,0,1-2.21-5.35h0c.46-2,2.19-2.82,3.87-1.85l30.2,17.43a5.19,5.19,0,0,1,2.2,5.36h0C723.67,296,721.94,296.85,720.26,295.88Z" style="fill:#d4ecff"/><path d="M769.81,307.37l-11-6.33a5.18,5.18,0,0,1-2.21-5.36h0c.46-2,2.2-2.82,3.87-1.85l11,6.33a5.19,5.19,0,0,1,2.2,5.36h0C773.22,307.51,771.49,308.34,769.81,307.37Z" style="fill:#d4ecff"/><path d="M878.1,301.44l-65-37.51a5.18,5.18,0,0,1-2.21-5.36h0c.46-2,2.19-2.82,3.87-1.85l65,37.51a5.19,5.19,0,0,1,2.21,5.36h0C881.52,301.58,879.78,302.41,878.1,301.44Z" style="fill:#d4ecff"/><path d="M719.39,329.6l-36.29-21a5.18,5.18,0,0,1-2.21-5.36h0c.46-2,2.19-2.82,3.87-1.85l36.29,21a5.17,5.17,0,0,1,2.21,5.36h0C722.8,329.75,721.07,330.57,719.39,329.6Z" style="fill:#d4ecff"/><path d="M719.09,209.63,692.4,194.22a5.18,5.18,0,0,1-2.2-5.36h0c.46-2,2.19-2.81,3.87-1.84l26.68,15.4a5.18,5.18,0,0,1,2.21,5.36h0C722.5,209.77,720.77,210.6,719.09,209.63Z" style="fill:#d4ecff"/><path d="M688.45,363.08l-30.9-17.84a5.18,5.18,0,0,1-2.21-5.36h0c.46-2,2.19-2.82,3.87-1.85l30.9,17.84a5.18,5.18,0,0,1,2.21,5.36h0C691.86,363.22,690.13,364.05,688.45,363.08Z" style="fill:#d4ecff"/><path d="M897.6,428.22l-18.1-10.45a5.17,5.17,0,0,1-2.2-5.36h0c.45-2,2.19-2.82,3.87-1.85L899.26,421a5.18,5.18,0,0,1,2.21,5.36h0C901,428.36,899.28,429.19,897.6,428.22Z" style="fill:#d4ecff"/><path d="M910.6,367.27l-34.54-19.94a5.18,5.18,0,0,1-2.21-5.36h0c.46-2,2.2-2.82,3.88-1.85l34.54,19.94a5.17,5.17,0,0,1,2.2,5.36h0C914,367.41,912.28,368.24,910.6,367.27Z" style="fill:#d4ecff"/><path d="M880.4,384.06l-11.31-6.53a5.18,5.18,0,0,1-2.21-5.36h0c.46-2,2.2-2.82,3.87-1.85l11.31,6.53a5.18,5.18,0,0,1,2.21,5.36h0C883.81,384.2,882.07,385,880.4,384.06Z" style="fill:#d4ecff"/><path d="M869.38,411.92l-7.26-4.19a5.15,5.15,0,0,1-2.21-5.35h0c.46-2,2.19-2.82,3.87-1.85l7.26,4.19a5.18,5.18,0,0,1,2.21,5.36h0C872.79,412.07,871.05,412.89,869.38,411.92Z" style="fill:#d4ecff"/><path d="M922.45,408.34l-30.2-17.44a5.17,5.17,0,0,1-2.21-5.35h0c.46-2,2.2-2.82,3.88-1.85l30.19,17.43a5.18,5.18,0,0,1,2.21,5.36h0C925.86,408.48,924.13,409.31,922.45,408.34Z" style="fill:#d4ecff"/><path d="M925.2,392.81l-52.62-30.38a5.18,5.18,0,0,1-2.21-5.36h0c.46-2,2.19-2.82,3.87-1.85l52.63,30.39a5.18,5.18,0,0,1,2.2,5.36h0C928.61,393,926.88,393.78,925.2,392.81Z" style="fill:#d4ecff"/><path d="M895.8,410.07l-30.2-17.44a5.19,5.19,0,0,1-2.2-5.36h0c.46-2,2.19-2.81,3.87-1.84l30.19,17.43a5.18,5.18,0,0,1,2.21,5.36h0C899.21,410.21,897.48,411,895.8,410.07Z" style="fill:#d4ecff"/><path d="M894.93,443.79l-36.3-21a5.19,5.19,0,0,1-2.21-5.36h0c.46-2,2.2-2.82,3.88-1.85l36.29,20.95a5.18,5.18,0,0,1,2.21,5.36h0C898.34,443.93,896.61,444.76,894.93,443.79Z" style="fill:#d4ecff"/><polygon points="964.05 243.29 992.57 231.94 986.16 189.99 972.31 202.25 964.05 243.29" style="fill:#983be9"/><path d="M773.19,47.68l68.9-27.54s-12.7,27.48-12.72,27.54-36.79,8.51-36.79,8.51Z" style="fill:#b45ef4"/><path d="M989.25,161.84A30.25,30.25,0,0,0,978.09,158c3.8-25.36-7.15-52.12-28.18-64.27a45.88,45.88,0,0,0-19.7-6.19c8.24-30.74-4.48-65.67-30.42-80.65-13.54-7.83-28.19-8.75-41.1-4v0l-.63.25-1,.4-21.59,8.49,8.61,7.41c-11.67,3.67-21.77,13.12-27.1,27.07-9.83,25.73.25,57,22.52,69.89L971.91,228c16.72,9.66,26.88,5.62,34.26-13.7S1006,171.5,989.25,161.84Z" style="fill:#983be9"/><path d="M823,35.2,897.29,5.53a47.44,47.44,0,0,0-38.6-2.6v0l-.63.25-1,.4-21.59,8.49,8.61,7.41A41.16,41.16,0,0,0,823,35.2Z" style="fill:#b45ef4"/><path d="M926.41,146.53l49-19.56c-4.54-14-13.47-26.27-25.82-33.4a46.78,46.78,0,0,0-5-2.49l-67.55,27Z" style="fill:#b45ef4"/><path d="M850.55,15.15,871.6,27.3l36.52-14.54a57.83,57.83,0,0,0-8.33-5.87,51.43,51.43,0,0,0-14.28-5.66Z" style="fill:#c285f9"/><path d="M972.21,118.81l-35.3,14.05,10.41,14.63,30.29-12A68.38,68.38,0,0,0,972.21,118.81Z" style="fill:#c285f9"/><path d="M965.65,171.12a30.25,30.25,0,0,0-11.16-3.84c3.8-25.36-7.44-52.29-28.46-64.44a44.5,44.5,0,0,0-19.42-6c8.24-30.74-4.49-65.67-30.42-80.65C848.3.05,815.71,13.12,803.4,45.34c-.42,1.1-.8,2.2-1.16,3.31-21.28-9.47-44.81,1.2-54,25.37-9.83,25.74.26,57,22.53,69.89l168.2,97.18c16.72,9.66,36.26,1.83,43.64-17.49S982.37,180.78,965.65,171.12Z" style="fill:#8a2ae3"/><path d="M783.22,53.68a22.08,22.08,0,0,0-8.87,1.8c-6.67,2.91-12.45,9.67-15.84,18.54-8.64,22.61.6,51.26,20.16,62.57l168.21,97.18c5.28,3,10.75,3.82,15,2.12s8-6.19,10.37-12.29c6.23-16.32-.44-37-14.56-45.16a21.92,21.92,0,0,0-8-2.81l-6.82-.92.87-5.85c3.51-23.39-7.29-48.07-25.67-58.69a35.47,35.47,0,0,0-15.48-4.92l-8.46-.54,1.9-7.1c7.56-28.19-4.65-60.74-27.8-74.12C857.47,17.28,846.13,16,836.31,20s-17.84,13-22.59,25.39c-.37,1-.71,1.94-1,2.92l-4.53,13.93L795,56.32A28.94,28.94,0,0,0,783.22,53.68Z" style="fill:#6614cf"/><path d="M868.61,142.7A6.11,6.11,0,0,0,871,150c2.33,1.35,5,.26,6.07-2.43a6.12,6.12,0,0,0-2.35-7.29C872.35,138.92,869.64,140,868.61,142.7Z" style="fill:#ff2c9c"/><path d="M855.07,134.87a6.1,6.1,0,0,0,2.35,7.3c2.32,1.34,5,.25,6.06-2.43a6.1,6.1,0,0,0-2.35-7.3C858.81,131.1,856.09,132.19,855.07,134.87Z" style="fill:#ff2c9c"/><path d="M841.52,127.05a6.12,6.12,0,0,0,2.35,7.29c2.33,1.35,5,.26,6.07-2.43a6.11,6.11,0,0,0-2.35-7.29C845.27,123.27,842.55,124.36,841.52,127.05Z" style="fill:#ff2c9c"/><path d="M507.6,386.51l-59.88-34.58c-3.67-2.12-3.21-5.82,1-8.27l57.82-33.39c4.24-2.45,10.66-2.71,14.34-.59l59.88,34.57c3.67,2.12,3.21,5.83-1,8.28l-57.82,33.38C517.7,388.36,511.28,388.63,507.6,386.51Z" style="fill:#c4d9e8;opacity:0.5"/><path d="M600.65,317.92h0V292.05l-58,0-20-11.58c-4.61-2.66-12.64-2.33-18,.74L485.92,292l-58.06,0v26.61c-.13,1.8.87,3.53,3.08,4.81l75,43.29c4.61,2.66,12.64,2.32,18-.74l72.4-41.8C599.35,322.35,600.82,320.05,600.65,317.92Z" style="fill:#396caa"/><path d="M514.26,278.66a20.75,20.75,0,0,0-9.63,2.52L485.92,292l-58.06,0v26.61c-.13,1.8.87,3.53,3.08,4.81l75,43.29a16.21,16.21,0,0,0,8.34,1.78Z" style="fill:#396caa"/><path d="M434.43,292h-6.57v26.61c-.13,1.8.87,3.53,3.08,4.81l3.49,2Z" style="fill:#5793ce"/><path d="M507.08,367.23c4,1.7,9.71,1.6,14.35-.17V336.85H507.08Z" style="fill:#5793ce"/><path d="M505.92,340.15l-75-43.29c-4.6-2.66-4-7.3,1.29-10.37l72.4-41.8c5.32-3.07,13.35-3.4,18-.74l75,43.29c4.6,2.65,4,7.3-1.29,10.36l-72.4,41.81C518.56,342.47,510.53,342.81,505.92,340.15Z" style="fill:#d4ecff"/><path d="M507.27,332.36l-62.83-36.28c-3.86-2.23-3.38-6.12,1.08-8.69l60.67-35c4.45-2.57,11.19-2.85,15.05-.62L584.07,288c3.86,2.22,3.38,6.11-1.08,8.68l-60.67,35C517.87,334.3,511.13,334.58,507.27,332.36Z" style="fill:#5793ce"/><path d="M573.07,324.75a6.66,6.66,0,0,1-3,5.24c-1.67,1-3,.19-3-1.75a6.69,6.69,0,0,1,3-5.24C571.72,322,573.07,322.82,573.07,324.75Z" style="fill:#d4ecff"/><path d="M582.82,319.12a6.72,6.72,0,0,1-3,5.25c-1.67,1-3,.18-3-1.75a6.72,6.72,0,0,1,3-5.25C581.46,316.41,582.82,317.19,582.82,319.12Z" style="fill:#d4ecff"/><path d="M592.56,313.5a6.66,6.66,0,0,1-3,5.24c-1.67,1-3,.18-3-1.75a6.69,6.69,0,0,1,3-5.24C591.21,310.78,592.56,311.56,592.56,313.5Z" style="fill:#d4ecff"/><path d="M600.65,276.57h0V250.7l-58,0-20-11.58c-4.61-2.65-12.64-2.32-18,.75l-18.71,10.8-58.06,0v26.6c-.13,1.8.87,3.54,3.08,4.82l75,43.29c4.61,2.65,12.64,2.32,18-.75l72.4-41.8C599.35,281,600.82,278.71,600.65,276.57Z" style="fill:#396caa"/><path d="M514.26,237.31a20.75,20.75,0,0,0-9.63,2.53l-18.71,10.8-58.06,0v26.6c-.13,1.8.87,3.54,3.08,4.82l75,43.29a16.42,16.42,0,0,0,8.34,1.78Z" style="fill:#396caa"/><path d="M434.43,250.61h-6.57v26.6c-.13,1.8.87,3.54,3.08,4.82l3.49,2Z" style="fill:#5793ce"/><path d="M507.08,325.88c4,1.7,9.71,1.61,14.35-.16V295.51H507.08Z" style="fill:#5793ce"/><path d="M505.92,298.8l-75-43.29c-4.6-2.65-4-7.3,1.29-10.36l72.4-41.8c5.32-3.07,13.35-3.41,18-.75l75,43.29c4.6,2.66,4,7.3-1.29,10.37l-72.4,41.8C518.56,301.13,510.53,301.46,505.92,298.8Z" style="fill:#d4ecff"/><path d="M507.27,291l-62.83-36.28c-3.86-2.22-3.38-6.11,1.08-8.68l60.67-35c4.45-2.57,11.19-2.85,15.05-.63l62.83,36.28c3.86,2.23,3.38,6.12-1.08,8.69l-60.67,35C517.87,293,511.13,293.24,507.27,291Z" style="fill:#5793ce"/><path d="M573.07,283.4a6.69,6.69,0,0,1-3,5.25c-1.67,1-3,.18-3-1.75a6.71,6.71,0,0,1,3-5.25C571.72,280.69,573.07,281.47,573.07,283.4Z" style="fill:#d4ecff"/><path d="M582.82,277.78a6.69,6.69,0,0,1-3,5.24c-1.67,1-3,.19-3-1.75a6.69,6.69,0,0,1,3-5.24C581.46,275.06,582.82,275.85,582.82,277.78Z" style="fill:#d4ecff"/><path d="M592.56,272.15a6.69,6.69,0,0,1-3,5.25c-1.67,1-3,.18-3-1.75a6.72,6.72,0,0,1,3-5.25C591.21,269.44,592.56,270.22,592.56,272.15Z" style="fill:#d4ecff"/><path d="M600.65,235.23h0V209.36l-58,0-20-11.58c-4.61-2.66-12.64-2.33-18,.74l-18.71,10.8-58.06,0v26.61c-.13,1.8.87,3.53,3.08,4.81l75,43.29c4.61,2.66,12.64,2.32,18-.74l72.4-41.8C599.35,239.66,600.82,237.36,600.65,235.23Z" style="fill:#396caa"/><path d="M514.26,196a20.75,20.75,0,0,0-9.63,2.52l-18.71,10.8-58.06,0v26.61c-.13,1.8.87,3.53,3.08,4.81l75,43.29a16.21,16.21,0,0,0,8.34,1.78Z" style="fill:#396caa"/><path d="M434.43,209.27h-6.57v26.61c-.13,1.8.87,3.53,3.08,4.81l3.49,2Z" style="fill:#5793ce"/><path d="M507.08,284.54c4,1.7,9.71,1.6,14.35-.17V254.16H507.08Z" style="fill:#5793ce"/><path d="M505.92,257.46l-75-43.29c-4.6-2.66-4-7.3,1.29-10.37l72.4-41.8c5.32-3.07,13.35-3.4,18-.74l75,43.29c4.6,2.65,4,7.3-1.29,10.36l-72.4,41.8C518.56,259.78,510.53,260.12,505.92,257.46Z" style="fill:#d4ecff"/><path d="M596.28,209.82l-72.4,41.8c-5.32,3.07-13.35,3.4-18,.75l-75-43.29a7,7,0,0,1-2.29-2c-1.59,2.54-.87,5.3,2.29,7.13l75,43.29c4.61,2.66,12.64,2.32,18-.75l72.4-41.8c4.13-2.38,5.38-5.71,3.59-8.32A10.16,10.16,0,0,1,596.28,209.82Z" style="fill:#fff"/><path d="M573.07,242.06a6.66,6.66,0,0,1-3,5.24c-1.67,1-3,.19-3-1.75a6.68,6.68,0,0,1,3-5.24C571.72,239.34,573.07,240.13,573.07,242.06Z" style="fill:#d4ecff"/><path d="M582.82,236.43a6.72,6.72,0,0,1-3,5.25c-1.67,1-3,.18-3-1.75a6.72,6.72,0,0,1,3-5.25C581.46,233.72,582.82,234.5,582.82,236.43Z" style="fill:#d4ecff"/><path d="M592.56,230.81a6.66,6.66,0,0,1-3,5.24c-1.67,1-3,.18-3-1.75a6.69,6.69,0,0,1,3-5.24C591.21,228.09,592.56,228.87,592.56,230.81Z" style="fill:#d4ecff"/><path d="M510.36,230.62l-35.09-20.26c-2.15-1.24-1.88-3.41.6-4.85L509.75,186c2.49-1.44,6.25-1.59,8.41-.35l35.08,20.26c2.16,1.24,1.89,3.41-.6,4.85l-33.88,19.56C516.27,231.71,512.51,231.86,510.36,230.62Z" style="fill:#5793ce"/><path d="M513.72,213.66l-4.86-2.81c-.3-.17-.26-.47.09-.67l4.68-2.7a1.31,1.31,0,0,1,1.17,0l4.85,2.8c.3.17.26.47-.08.67l-4.69,2.71A1.29,1.29,0,0,1,513.72,213.66Z" style="fill:#d4ecff"/><path d="M475.27,210.36l.1.06a4.89,4.89,0,0,1,.5-.35l33.88-19.56c2.49-1.43,6.25-1.59,8.41-.35l35,20.2c2-1.42,2.09-3.35.1-4.5L518.16,185.6c-2.16-1.24-5.92-1.09-8.41.35l-33.88,19.56C473.39,207,473.12,209.12,475.27,210.36Z" style="fill:#396caa"/><path d="M953.18,686.32,893.3,651.75c-3.68-2.12-3.22-5.83,1-8.28l57.81-33.38c4.25-2.45,10.67-2.72,14.34-.6l59.88,34.58c3.68,2.12,3.22,5.82-1,8.27l-57.82,33.39C963.27,688.18,956.85,688.44,953.18,686.32Z" style="fill:#c4d9e8;opacity:0.5"/><path d="M1046.23,617.73h0V591.86l-58,0-20.05-11.58c-4.6-2.65-12.64-2.32-17.95.75L931.5,591.8l-58.07,0v26.6c-.13,1.8.87,3.54,3.08,4.81l75,43.3c4.6,2.65,12.64,2.32,18-.75l72.4-41.8C1044.92,622.16,1046.4,619.87,1046.23,617.73Z" style="fill:#721bd5"/><path d="M959.83,578.47a20.59,20.59,0,0,0-9.62,2.53L931.5,591.8l-58.07,0v26.6c-.13,1.8.87,3.54,3.08,4.81l75,43.3a16.35,16.35,0,0,0,8.33,1.78Z" style="fill:#983be9"/><path d="M880,591.77h-6.57v26.6c-.13,1.8.87,3.54,3.08,4.81l3.49,2Z" style="fill:#b45ef4"/><path d="M952.65,667c4,1.7,9.71,1.61,14.35-.16V636.67H952.65Z" style="fill:#7e23dc"/><path d="M951.5,640l-75-43.29c-4.6-2.65-4-7.3,1.29-10.36l72.41-41.8c5.31-3.07,13.35-3.41,17.95-.75l75,43.29c4.6,2.66,4,7.3-1.29,10.37l-72.4,41.8C964.14,642.29,956.1,642.62,951.5,640Z" style="fill:#8a2ae3"/><path d="M952.85,632.17,890,595.89c-3.86-2.22-3.37-6.11,1.08-8.68l60.67-35c4.46-2.57,11.19-2.85,15-.63l62.84,36.28c3.85,2.23,3.37,6.12-1.08,8.69l-60.68,35C963.44,634.12,956.7,634.4,952.85,632.17Z" style="fill:#6614cf"/><path d="M1018.65,624.56a6.72,6.72,0,0,1-3,5.25c-1.68,1-3,.18-3-1.75a6.69,6.69,0,0,1,3-5.25C1017.29,621.85,1018.65,622.63,1018.65,624.56Z" style="fill:#ff2c9c"/><path d="M1028.39,618.94a6.69,6.69,0,0,1-3,5.24c-1.67,1-3,.18-3-1.75a6.69,6.69,0,0,1,3-5.24C1027,616.22,1028.39,617,1028.39,618.94Z" style="fill:#ff2c9c"/><path d="M1038.13,613.31a6.71,6.71,0,0,1-3,5.25c-1.68,1-3,.18-3-1.75a6.69,6.69,0,0,1,3-5.25C1036.78,610.6,1038.13,611.38,1038.13,613.31Z" style="fill:#ff2c9c"/><path d="M1046.23,575.78h0V549.9l-58,0-20.05-11.58c-4.6-2.65-12.64-2.32-17.95.75l-18.71,10.8-58.07,0v26.61c-.13,1.79.87,3.53,3.08,4.81l75,43.29c4.6,2.65,12.64,2.32,18-.75l72.4-41.8C1044.92,580.2,1046.4,577.91,1046.23,575.78Z" style="fill:#721bd5"/><path d="M959.83,536.51a20.71,20.71,0,0,0-9.62,2.53l-18.71,10.8-58.07,0v26.61c-.13,1.79.87,3.53,3.08,4.81l75,43.29a16.35,16.35,0,0,0,8.33,1.78Z" style="fill:#983be9"/><path d="M880,549.81h-6.57v26.61c-.13,1.79.87,3.53,3.08,4.81l3.49,2Z" style="fill:#b45ef4"/><path d="M952.65,625.08c4,1.7,9.71,1.61,14.35-.16V594.71H952.65Z" style="fill:#7e23dc"/><path d="M951.5,598l-75-43.29c-4.6-2.65-4-7.29,1.29-10.36l72.41-41.8c5.31-3.07,13.35-3.4,17.95-.75l75,43.29c4.6,2.66,4,7.3-1.29,10.37l-72.4,41.8C964.14,600.33,956.1,600.66,951.5,598Z" style="fill:#8a2ae3"/><path d="M952.85,590.21,890,553.93c-3.86-2.22-3.37-6.11,1.08-8.68l60.67-35c4.46-2.57,11.19-2.85,15-.63l62.84,36.28c3.85,2.23,3.37,6.12-1.08,8.69l-60.68,35C963.44,592.16,956.7,592.44,952.85,590.21Z" style="fill:#6614cf"/><path d="M1018.65,582.6a6.72,6.72,0,0,1-3,5.25c-1.68,1-3,.18-3-1.75a6.69,6.69,0,0,1,3-5.25C1017.29,579.89,1018.65,580.67,1018.65,582.6Z" style="fill:#ff2c9c"/><path d="M1028.39,577a6.69,6.69,0,0,1-3,5.24c-1.67,1-3,.19-3-1.75a6.69,6.69,0,0,1,3-5.24C1027,574.26,1028.39,575.05,1028.39,577Z" style="fill:#ff2c9c"/><path d="M1038.13,571.35a6.71,6.71,0,0,1-3,5.25c-1.68,1-3,.18-3-1.75a6.69,6.69,0,0,1,3-5.25C1036.78,568.64,1038.13,569.42,1038.13,571.35Z" style="fill:#ff2c9c"/><path d="M1046.23,533.82h0V507.94l-58,0-20.05-11.57c-4.6-2.66-12.64-2.33-17.95.74l-18.71,10.8-58.07,0v26.61c-.13,1.79.87,3.53,3.08,4.81l75,43.29c4.6,2.65,12.64,2.32,18-.75l72.4-41.8C1044.92,538.24,1046.4,536,1046.23,533.82Z" style="fill:#721bd5"/><path d="M959.83,494.56a20.71,20.71,0,0,0-9.62,2.52l-18.71,10.8-58.07,0v26.61c-.13,1.79.87,3.53,3.08,4.81l75,43.29a16.35,16.35,0,0,0,8.33,1.78Z" style="fill:#983be9"/><path d="M880,507.85h-6.57v26.61c-.13,1.79.87,3.53,3.08,4.81l3.49,2Z" style="fill:#b45ef4"/><path d="M952.65,583.12c4,1.7,9.71,1.61,14.35-.16V552.75H952.65Z" style="fill:#7e23dc"/><path d="M951.5,556.05l-75-43.3c-4.6-2.65-4-7.29,1.29-10.36l72.41-41.8c5.31-3.07,13.35-3.4,17.95-.75l75,43.29c4.6,2.66,4,7.3-1.29,10.37l-72.4,41.8C964.14,558.37,956.1,558.7,951.5,556.05Z" style="fill:#8a2ae3"/><path d="M1041.85,508.41l-72.4,41.8c-5.31,3.07-13.35,3.4-18,.74l-75-43.29a6.87,6.87,0,0,1-2.29-2c-1.58,2.54-.87,5.3,2.29,7.12l75,43.3c4.6,2.65,12.64,2.32,18-.75l72.4-41.8c4.13-2.38,5.39-5.71,3.59-8.33A10,10,0,0,1,1041.85,508.41Z" style="fill:#b45ef4"/><path d="M1018.65,540.64a6.7,6.7,0,0,1-3,5.25c-1.68,1-3,.18-3-1.75a6.66,6.66,0,0,1,3-5.24C1017.29,537.93,1018.65,538.71,1018.65,540.64Z" style="fill:#ff2c9c"/><path d="M1028.39,535a6.69,6.69,0,0,1-3,5.24c-1.67,1-3,.19-3-1.74a6.7,6.7,0,0,1,3-5.25C1027,532.3,1028.39,533.09,1028.39,535Z" style="fill:#ff2c9c"/><path d="M1038.13,529.39a6.71,6.71,0,0,1-3,5.25c-1.68,1-3,.18-3-1.75a6.69,6.69,0,0,1,3-5.25C1036.78,526.68,1038.13,527.46,1038.13,529.39Z" style="fill:#ff2c9c"/><path d="M955.93,530.36,920.84,510.1c-2.15-1.24-1.88-3.42.61-4.85l33.88-19.56c2.48-1.44,6.24-1.59,8.4-.35l35.09,20.26c2.15,1.24,1.88,3.41-.61,4.85L964.33,530C961.85,531.44,958.08,531.6,955.93,530.36Z" style="fill:#6614cf"/><path d="M959.29,513.4l-4.85-2.81c-.3-.17-.26-.47.08-.67l4.69-2.7a1.26,1.26,0,0,1,1.16-.05l4.85,2.8c.3.17.26.47-.08.67l-4.69,2.71A1.29,1.29,0,0,1,959.29,513.4Z" style="fill:#ff2c9c"/><path d="M920.84,510.1l.1.06c.17-.12.32-.24.51-.35l33.88-19.56c2.48-1.44,6.24-1.59,8.4-.35l35,20.2c2-1.42,2.09-3.35.1-4.5l-35.09-20.26c-2.16-1.24-5.92-1.09-8.4.35l-33.88,19.56C919,506.68,918.69,508.86,920.84,510.1Z" style="fill:#b45ef4"/><path d="M929.09,603.47,898.73,586a8.12,8.12,0,0,1-3.39-6.48h0c0-2.49,1.52-3.64,3.39-2.56l30.36,17.53a8.12,8.12,0,0,1,3.39,6.47h0C932.48,603.41,931,604.55,929.09,603.47Z" style="fill:#6614cf"/><path d="M931.8,601.8l-30.35-17.53a8.12,8.12,0,0,1-3.39-6.47,4.85,4.85,0,0,1,.14-1.13c-1.62-.58-2.86.55-2.86,2.8a8.12,8.12,0,0,0,3.39,6.48l30.36,17.52c1.55.9,2.85.24,3.25-1.43A3.58,3.58,0,0,1,931.8,601.8Z" style="fill:#b45ef4"/><path d="M820.32,761.33l-59.88-34.57c-3.68-2.13-3.22-5.83,1-8.28l57.82-33.38c4.24-2.45,10.66-2.72,14.34-.6l59.88,34.57c3.67,2.12,3.21,5.83-1,8.28l-57.82,33.38C830.41,763.18,824,763.45,820.32,761.33Z" style="fill:#c4d9e8;opacity:0.5"/><path d="M913.37,692.74h0V666.87l-58,0L835.3,655.26c-4.6-2.66-12.64-2.32-17.95.74l-18.71,10.8-58.06,0v26.61c-.14,1.8.87,3.53,3.08,4.81l75,43.29c4.6,2.66,12.64,2.33,18-.74l72.4-41.8C912.06,697.17,913.54,694.87,913.37,692.74Z" style="fill:#721bd5"/><path d="M827,653.48a20.74,20.74,0,0,0-9.62,2.52l-18.71,10.8-58.06,0v26.61c-.14,1.8.87,3.53,3.08,4.81l75,43.29a16.17,16.17,0,0,0,8.33,1.78Z" style="fill:#983be9"/><path d="M747.15,666.78h-6.57v26.61c-.14,1.8.87,3.53,3.08,4.81l3.49,2Z" style="fill:#b45ef4"/><path d="M819.8,742.05c4,1.7,9.71,1.6,14.35-.17V711.67H819.8Z" style="fill:#7e23dc"/><path d="M818.64,715l-75-43.29c-4.6-2.66-4-7.3,1.29-10.37l72.4-41.8c5.31-3.07,13.35-3.4,17.95-.74l75,43.29c4.6,2.66,4,7.3-1.29,10.36l-72.4,41.81C831.28,717.29,823.24,717.63,818.64,715Z" style="fill:#8a2ae3"/><path d="M820,707.18,757.15,670.9c-3.85-2.23-3.37-6.12,1.08-8.69l60.68-35c4.45-2.57,11.19-2.85,15-.62l62.84,36.28c3.86,2.22,3.37,6.11-1.08,8.68l-60.67,35C830.58,709.13,823.85,709.4,820,707.18Z" style="fill:#6614cf"/><path d="M885.79,699.57a6.69,6.69,0,0,1-3,5.24c-1.67,1-3,.19-3-1.74a6.7,6.7,0,0,1,3-5.25C884.43,696.85,885.79,697.64,885.79,699.57Z" style="fill:#ff2c9c"/><path d="M895.53,693.94a6.69,6.69,0,0,1-3,5.25c-1.67,1-3,.18-3-1.75a6.71,6.71,0,0,1,3-5.25C894.18,691.23,895.53,692,895.53,693.94Z" style="fill:#ff2c9c"/><path d="M905.28,688.32a6.69,6.69,0,0,1-3,5.24c-1.67,1-3,.19-3-1.75a6.69,6.69,0,0,1,3-5.24C903.92,685.6,905.28,686.39,905.28,688.32Z" style="fill:#ff2c9c"/><path d="M913.37,650.78h0V624.91l-58,0L835.3,613.3c-4.6-2.66-12.64-2.32-17.95.74l-18.71,10.81-58.06,0v26.61c-.14,1.8.87,3.54,3.08,4.81l75,43.29c4.6,2.66,12.64,2.33,18-.74L909,657C912.06,655.21,913.54,652.92,913.37,650.78Z" style="fill:#721bd5"/><path d="M827,611.52a20.74,20.74,0,0,0-9.62,2.52l-18.71,10.81-58.06,0v26.61c-.14,1.8.87,3.54,3.08,4.81l75,43.29A16.17,16.17,0,0,0,827,701.3Z" style="fill:#983be9"/><path d="M747.15,624.82h-6.57v26.61c-.14,1.8.87,3.54,3.08,4.81l3.49,2Z" style="fill:#b45ef4"/><path d="M819.8,700.09c4,1.7,9.71,1.6,14.35-.16V669.71H819.8Z" style="fill:#7e23dc"/><path d="M818.64,673l-75-43.29c-4.6-2.66-4-7.3,1.29-10.37l72.4-41.8c5.31-3.07,13.35-3.4,17.95-.74l75,43.29c4.6,2.66,4,7.3-1.29,10.37l-72.4,41.8C831.28,675.34,823.24,675.67,818.64,673Z" style="fill:#8a2ae3"/><path d="M820,665.22l-62.84-36.28c-3.85-2.23-3.37-6.11,1.08-8.69l60.68-35c4.45-2.57,11.19-2.85,15-.62l62.84,36.28c3.86,2.23,3.37,6.11-1.08,8.69L835,664.6C830.58,667.17,823.85,667.45,820,665.22Z" style="fill:#6614cf"/><path d="M885.79,657.61a6.72,6.72,0,0,1-3,5.25c-1.67,1-3,.18-3-1.75a6.72,6.72,0,0,1,3-5.25C884.43,654.9,885.79,655.68,885.79,657.61Z" style="fill:#ff2c9c"/><path d="M895.53,652a6.68,6.68,0,0,1-3,5.25c-1.67,1-3,.18-3-1.75a6.68,6.68,0,0,1,3-5.24C894.18,649.27,895.53,650.05,895.53,652Z" style="fill:#ff2c9c"/><path d="M905.28,646.36a6.69,6.69,0,0,1-3,5.24c-1.67,1-3,.19-3-1.75a6.7,6.7,0,0,1,3-5.24C903.92,643.64,905.28,644.43,905.28,646.36Z" style="fill:#ff2c9c"/><path d="M913.37,608.82h0V583l-58,0L835.3,571.34c-4.6-2.66-12.64-2.32-17.95.75l-18.71,10.8-58.06,0v26.61c-.14,1.8.87,3.54,3.08,4.81l75,43.29c4.6,2.66,12.64,2.33,18-.74L909,615C912.06,613.25,913.54,611,913.37,608.82Z" style="fill:#721bd5"/><path d="M827,569.56a20.63,20.63,0,0,0-9.62,2.53l-18.71,10.8-58.06,0v26.61c-.14,1.8.87,3.54,3.08,4.81l75,43.29a16.17,16.17,0,0,0,8.33,1.78Z" style="fill:#983be9"/><path d="M747.15,582.86h-6.57v26.61c-.14,1.8.87,3.54,3.08,4.81l3.49,2Z" style="fill:#b45ef4"/><path d="M819.8,658.13c4,1.7,9.71,1.61,14.35-.16V627.75H819.8Z" style="fill:#7e23dc"/><path d="M818.64,631.05l-75-43.29c-4.6-2.66-4-7.3,1.29-10.36l72.4-41.81c5.31-3.06,13.35-3.4,17.95-.74l75,43.29c4.6,2.66,4,7.3-1.29,10.37l-72.4,41.8C831.28,633.38,823.24,633.71,818.64,631.05Z" style="fill:#8a2ae3"/><path d="M909,583.42l-72.4,41.8c-5.32,3.06-13.36,3.4-18,.74l-75-43.29a6.93,6.93,0,0,1-2.3-2c-1.58,2.55-.86,5.31,2.3,7.13l75,43.29c4.6,2.66,12.64,2.33,18-.74l72.4-41.8c4.13-2.39,5.38-5.72,3.58-8.33A10.14,10.14,0,0,1,909,583.42Z" style="fill:#b45ef4"/><path d="M885.79,615.65a6.72,6.72,0,0,1-3,5.25c-1.67,1-3,.18-3-1.75a6.72,6.72,0,0,1,3-5.25C884.43,612.94,885.79,613.72,885.79,615.65Z" style="fill:#ff2c9c"/><path d="M895.53,610a6.68,6.68,0,0,1-3,5.25c-1.67,1-3,.18-3-1.75a6.68,6.68,0,0,1,3-5.24C894.18,607.31,895.53,608.09,895.53,610Z" style="fill:#ff2c9c"/><path d="M905.28,604.4a6.69,6.69,0,0,1-3,5.24c-1.67,1-3,.19-3-1.74a6.7,6.7,0,0,1,3-5.25C903.92,601.68,905.28,602.47,905.28,604.4Z" style="fill:#ff2c9c"/><path d="M826.43,588.4l-4.85-2.8c-.3-.17-.26-.47.08-.67l4.69-2.71a1.29,1.29,0,0,1,1.16-.05l4.86,2.81c.3.17.26.47-.09.67l-4.68,2.7A1.31,1.31,0,0,1,826.43,588.4Z" style="fill:#ff2c9c"/><path d="M796.23,678.48,765.88,661a8.09,8.09,0,0,1-3.39-6.47h0c0-2.5,1.51-3.64,3.39-2.56l30.35,17.52a8.12,8.12,0,0,1,3.39,6.48h0C799.62,678.41,798.1,679.56,796.23,678.48Z" style="fill:#6614cf"/><path d="M799,676.81l-30.36-17.53a8.12,8.12,0,0,1-3.39-6.47,4.85,4.85,0,0,1,.14-1.13c-1.62-.59-2.85.55-2.85,2.8a8.09,8.09,0,0,0,3.39,6.47l30.35,17.53c1.56.9,2.85.24,3.25-1.44A3.4,3.4,0,0,1,799,676.81Z" style="fill:#b45ef4"/><path d="M793.31,695.78s-7.41-3.73-12,1.83-11.05,18.68-11.25,27.55,7,8.27,11.31,6.17,16.84-20.28,17.59-23.85-.89-8.38-2.1-9.32S793.31,695.78,793.31,695.78Z" style="fill:#173d7a"/><path d="M794.92,694l.34,7.67a4.33,4.33,0,0,1-2.16,4,8.64,8.64,0,0,1-5.72.89c-5.57-.9-6.07-2.49-6.47-10.16S794.92,694,794.92,694Z" style="fill:#e8a200"/><path d="M766.2,681s-7.41-3.74-12,1.82-11,18.69-11.25,27.56,7,8.27,11.31,6.17,16.83-20.28,17.59-23.85-.9-8.38-2.1-9.32S766.2,681,766.2,681Z" style="fill:#173d7a"/><path d="M767.82,679.24l.34,7.68a4.36,4.36,0,0,1-2.17,4,8.54,8.54,0,0,1-5.71.88c-5.58-.89-6.08-2.49-6.48-10.16S767.82,679.24,767.82,679.24Z" style="fill:#ea9c92"/><path d="M833.89,538.39c-2.19-35.66-38.62,5.25-38.62,5.25l-24.93,24.44-22.45,24.66a22.11,22.11,0,0,0-5.58,17.78l9.08,69.16a6.79,6.79,0,0,0,6.82,5.9,23.11,23.11,0,0,0,3.36-.29c8.1-1.26,7.51-9,7.51-9l-1.66-64.68,47.15-28.42S836.08,574.05,833.89,538.39Z" style="fill:#ccc"/><path d="M861,552c-2.2-35.66-38.62,5.25-38.62,5.25l-24.94,24.44L775,606.33a22.13,22.13,0,0,0-5.57,17.78l9.08,69.15a6.79,6.79,0,0,0,6.81,5.91,23.38,23.38,0,0,0,3.37-.3c8.1-1.26,7.5-9,7.5-9l-1.66-64.68,47.15-28.42S863.19,587.64,861,552Z" style="fill:#ccc"/><path d="M839.45,437.51c27.61,11.45,27.06,27.77,27.06,27.77s-5.41,59.86-3.56,99.83c.77,16.71-88.78,18-75.43-26.6C803.27,486,797.37,443.4,804.74,437S832.3,434.55,839.45,437.51Z" style="fill:#ffaf00"/><path d="M848.33,452c-1.44,5.6-8.79,8.56-16.41,6.6s-12.62-8.1-11.18-13.71,8.79-8.56,16.41-6.6S849.78,446.38,848.33,452Z" style="fill:#ffc2b0"/><path d="M836.63,460.51a20,20,0,0,1-5-.65c-8.31-2.14-13.75-9-12.13-15.31s9.71-9.69,18-7.55a18.34,18.34,0,0,1,9.68,5.93,10,10,0,0,1-4.23,16.42A17,17,0,0,1,836.63,460.51ZM832.42,439c-5.12,0-9.41,2.39-10.4,6.22-1.26,4.89,3.33,10.32,10.23,12.1a15.74,15.74,0,0,0,9.7-.41,8,8,0,0,0,5.1-5.24h0a8,8,0,0,0-1.93-7.06,15.76,15.76,0,0,0-8.3-5A17.43,17.43,0,0,0,832.42,439Z" style="fill:#fff"/><path d="M828.37,436.26s.24,1.11-.24,9.86c-.15,2.75,9.49,5.32,12,2.83s1.49-5.08,2.09-14.44S828.37,436.26,828.37,436.26Z" style="fill:#ffc2b0"/><path d="M842.2,434.51s-2.37,8.68-14.07,12l.18-7.89Z" style="fill:#ea9c92"/><circle cx="829.03" cy="417.77" r="21.26" transform="translate(274.01 1161.94) rotate(-80.03)" style="fill:#ffc2b0"/><path d="M833.91,418.55s-11.71,5-19.81,5.08-6.32-6.73-6.32-6.73l24.06-3.48Z" style="fill:#ea9c92"/><path d="M811.68,419.88s10.2-4.33,19.14-2.53a9.43,9.43,0,0,1,5.41,3.21,3.2,3.2,0,0,0,1.63,1.19c1.59.36,4.19-6.22,7.27-6.37s5.14,2,2.61,6.08-1.67,8.57-.51,9.22,13.5-8.8,2.62-30.35-38.52-9.95-42.82-5.58c0,0-4.53,3.94-8.22.43C798.81,395.18,794.69,426.11,811.68,419.88Z" style="fill:#173d7a"/><path d="M851,509v16.17a6.58,6.58,0,0,1-2.15,4.87l-33.23,30.29,3.78,5.77,43.87-31.82a8.93,8.93,0,0,0,3.64-6.28l3-28.21Z" style="fill:#ffc2b0"/><path d="M864.17,457.2s10.08,15.16,13.84,55.05c0,0-17.22,5.57-27,2.41S864.17,457.2,864.17,457.2Z" style="fill:#ffbf3e"/><path d="M849.18,476.36s-3.95,21.12-4.17,31.05a6.32,6.32,0,0,0,4.17,6.11h0Z" style="fill:#ffbf3e"/><path d="M840.56,581.37l-7.35-1L785.81,553a6.61,6.61,0,0,0-5.92.25L746.3,572.66l-4.44-.58v4.42h0a1.75,1.75,0,0,0,1,1.56l53.72,31a6.56,6.56,0,0,0,5.93-.25l36.58-21.11a2.4,2.4,0,0,0,1.45-2h0Z" style="fill:#173d7a"/><path d="M804.94,564.08l-3.36-2h-37L746.3,572.66l-4.44-.58v4.42h0a1.75,1.75,0,0,0,1,1.56l53.72,31a5.54,5.54,0,0,0,3.06.57Z" style="fill:#396caa"/><path d="M743.83,572.34l-2-.26v4.42h0a1.75,1.75,0,0,0,1,1.56l1,.54Z" style="fill:#5793ce"/><path d="M797.14,609.32a6.87,6.87,0,0,0,5-.31v-7.52h-5Z" style="fill:#274f89"/><path d="M796.6,604.65l-53.72-31c-1.52-.88-1.33-2.41.43-3.42l36.58-21.12a6.57,6.57,0,0,1,5.92-.24l53.72,31c1.52.88,1.33,2.41-.42,3.43l-36.58,21.11A6.59,6.59,0,0,1,796.6,604.65Z" style="fill:#fff"/><path d="M795.69,600,751,574.16c-1.27-.73-1.11-2,.35-2.84l19.6-11a5.49,5.49,0,0,1,4.93-.2l44.67,25.79c1.26.73,1.1,2-.36,2.84l-19.6,11A5.48,5.48,0,0,1,795.69,600Z" style="fill:#d4ecff"/><path d="M782,548.09l-.55,3.7a27.37,27.37,0,0,0,.24,9.51l.66,3.26a4.6,4.6,0,0,0,3.68,3.61h0a2.53,2.53,0,0,0,3-2.21l.89-7.92s2,2.65,3,2.65-1.1-7.93-3.31-12.42S782,548.09,782,548.09Z" style="fill:#ffc2b0"/><path d="M800.17,489.18l-5.76,11.41a22.32,22.32,0,0,0-2.36,8.66l-2.5,39-7.59-.18-3.44-43.82a16.24,16.24,0,0,1,.2-4.06L782.65,478Z" style="fill:#ffc2b0"/><path d="M794.78,607.63l-4.5-5.88-47.37-27.42a6.57,6.57,0,0,1-2.74-5.26l0-38.78-2.73-3.56,2.56-1.48h0a1.74,1.74,0,0,1,1.85.11l53.68,31.08a6.59,6.59,0,0,1,2.75,5.26l-.05,42.23a2.38,2.38,0,0,1-1,2.25h0Z" style="fill:#173d7a"/><path d="M762,585.39l-3.37-1.94-18.47-32.09,0-21.07-2.73-3.56,2.56-1.48h0a1.74,1.74,0,0,1,1.85.11l53.68,31.08a5.58,5.58,0,0,1,2,2.37Z" style="fill:#396caa"/><path d="M738.69,528.31l-1.21-1.58,2.56-1.48h0a1.74,1.74,0,0,1,1.85.11l1,.55Z" style="fill:#5793ce"/><path d="M796.07,556.78a6.87,6.87,0,0,1,2.24,4.52l-5.24,3L790.55,560Z" style="fill:#274f89"/><path d="M793,557.92l-53.68-31.08c-1.52-.88-2.76,0-2.76,2.08l0,42.23a6.55,6.55,0,0,0,2.74,5.26L793,607.49c1.52.88,2.75,0,2.76-2.08l0-42.23A6.61,6.61,0,0,0,793,557.92Z" style="fill:#fff"/><path d="M819.42,566.11l-.86,1.79a12,12,0,0,1-4.49,5l-5.33,3.29a5.31,5.31,0,0,1-5.44.12l-.18-.11a3.21,3.21,0,0,1-.46-4.93l5.57-5.72s-3.13,2.39-4,1.43c-.65-.71,3-4.16,5.86-4.28a11.1,11.1,0,0,0,5.55-2.33Z" style="fill:#ffc2b0"/><path d="M805.29,436.9s-20.43,22.22-28.67,42.61c0,0,7,12.59,24.09,17.52S805.29,436.9,805.29,436.9Z" style="fill:#ffbf3e"/><path d="M796.86,495.71l3.31-32-7.8,30A44.31,44.31,0,0,0,796.86,495.71Z" style="fill:#ffd283"/><path d="M820.59,432.41l-5.49-1.51s2.62,4.13,6.45,5.18,4.42-2.19,4.42-2.19Z" style="fill:#fff"/><path d="M385.31,614.45c-14.74,8.51-38.64,8.51-53.38,0s-14.74-22.31,0-30.82,38.64-8.51,53.38,0S400.05,605.94,385.31,614.45Z" style="fill:#c4d9e8;opacity:0.5"/><path d="M608.08,741c-14.74,8.51-38.64,8.51-53.38,0s-14.74-22.31,0-30.82,38.64-8.51,53.38,0S622.82,732.53,608.08,741Z" style="fill:#c4d9e8;opacity:0.5"/><path d="M354.05,582.14c.54,1.36,9.92,12.78,19.3,15.63A21.61,21.61,0,0,0,382,599a2.84,2.84,0,0,0,2.31-3.78,35.57,35.57,0,0,0-18-19.83C350.38,567.46,354.05,582.14,354.05,582.14Z" style="fill:#173d7a"/><path d="M350.92,586.53s3.54,8.29,4.62,15.22c.67,4.23-1.65,9.72-3.57,13.36a3.9,3.9,0,0,1-6.08,1,22.59,22.59,0,0,1-7.61-14.55c-1.08-11.69,0-13.72,0-13.72Z" style="fill:#173d7a"/><path d="M328.33,445.26a222.85,222.85,0,0,0,0,31.05c1.23,16.31,5.6,92.58,6.42,110.93,0,0-.41,5.55,10.34,4.33s9.89-7.39,9.89-7.39,15.1-.2,15.58-9.11S386,468.77,386,433.76Z" style="fill:#ccc"/><polygon points="380.83 369.16 389.54 422.43 397.46 422.29 396.74 373.48 380.83 369.16" style="fill:#ffc2b0"/><path d="M377.18,322s11.75-.31,15.85,16.68,7.29,38.26,3.73,40c-10.68,5.3-17.44-.91-17.44-.91Z" style="fill:#ffbf3e"/><path d="M380.7,322.71a9.62,9.62,0,0,0-6.35-.35c-10,2.88-47.66,13.93-53.87,19.23-7.17,6.13,10.75,40.56,10.5,51.85s-1.53,24.6-2.53,36.88-2.35,19,7.69,24.22,27.18,5.46,40-4.32,10.5-16.47,10-23.56-4.91-37.8-4.53-46.51a33,33,0,0,0,7.87-9c3.35-5.71-2.56-16.21-5-23s1.39-14.62.63-20.19C384.67,325,382.84,323.61,380.7,322.71Z" style="fill:#ffaf00"/><path d="M368.66,334.45c.8,6.2-4.89,12-12.71,13s-14.79-3.21-15.58-9.42,4.89-12,12.71-13S367.87,328.25,368.66,334.45Z" style="fill:#fff"/><path d="M364.63,335c.56,4.43-3.5,8.6-9.09,9.32S345,342,344.41,337.56s3.49-8.61,9.08-9.32S364.06,330.53,364.63,335Z" style="fill:#ffc2b0"/><path d="M359.08,320.41s-6.8-5.59-8.13-2.76-2.44,15-2.44,15l13.5,3.62L360,324S362.66,321.66,359.08,320.41Z" style="fill:#ffc2b0"/><circle cx="360.05" cy="305.91" r="20.15" transform="translate(-103.8 395.7) rotate(-51.31)" style="fill:#ffc2b0"/><path d="M350,321.18c-.12.63-.23,1.31-.34,2,1.36,7,11.85,10.08,11.85,10.08L360,324s1.27-1.08.91-2.16C356.72,320.48,351.5,319.32,350,321.18Z" style="fill:#ea9c92"/><circle cx="360.05" cy="305.91" r="20.15" transform="translate(-103.8 395.7) rotate(-51.31)" style="fill:#ffc2b0"/><polygon points="310.4 391.22 312.65 445.15 320.54 445.96 325.67 397.41 310.4 391.22" style="fill:#ffc2b0"/><path d="M336.31,386.71c-2.61-11.52-7.76-37-7.76-37l-2.21,25.31c2.54,7.5,4.73,14.39,4.64,18.38-.15,6.63-.66,14-1.25,21.36v0S338.92,398.23,336.31,386.71Z" style="fill:#ffd283"/><path d="M322,340.49s-6.31,2.4-9.87,21.77-6.24,38.76.12,41.26,11.68,4.38,13.55-.8,3-30.13,3.26-39.11S329.63,342.26,322,340.49Z" style="fill:#ffbf3e"/><path d="M355,584.18a31.37,31.37,0,0,0,4.32-.45h0l2.95-118.56Z" style="fill:#666"/><path d="M343.57,520.14l-4.19-5.48-44.12-25.54a6.13,6.13,0,0,1-2.56-4.9l0-36.12-2.54-3.31,2.39-1.38h0a1.63,1.63,0,0,1,1.73.1l50,28.95a6.12,6.12,0,0,1,2.55,4.9l0,39.33a2.22,2.22,0,0,1-.93,2.1h0Z" style="fill:#983be9"/><path d="M313.06,499.43l-3.13-1.82-17.21-29.88,0-19.63-2.54-3.31,2.39-1.38h0a1.63,1.63,0,0,1,1.73.1l50,28.95a5.23,5.23,0,0,1,1.88,2.2Z" style="fill:#d29fff"/><path d="M291.33,446.26l-1.13-1.47,2.39-1.38h0a1.63,1.63,0,0,1,1.73.1l.88.51Z" style="fill:#d29fff"/><path d="M344.77,472.78a6.43,6.43,0,0,1,2.09,4.21L342,479.81l-2.34-4.07Z" style="fill:#983be9"/><path d="M341.94,473.84l-50-28.95c-1.42-.82-2.56.05-2.57,1.93l0,39.34a6.13,6.13,0,0,0,2.56,4.9l50,28.95c1.41.82,2.56,0,2.56-1.94l0-39.33A6.15,6.15,0,0,0,341.94,473.84Z" style="fill:#ffbf3e"/><path d="M312.72,444.7s-2.09,12.58-1.77,16.62,2.47,10.68,4.11,10.54.05-16.22,2.93-14.61,3.18,4.34,4.48,3.37-2.27-14.71-1.32-20.66S312.72,444.7,312.72,444.7Z" style="fill:#ffc2b0"/><path d="M397.46,422.29s2.09,12.59,1.77,16.62-2.47,10.68-4.1,10.54-.06-16.21-2.94-14.61-3.17,4.34-4.48,3.37,2.28-14.7,1.32-20.66S397.46,422.29,397.46,422.29Z" style="fill:#ffc2b0"/><path d="M367.79,307.67c10.11,3.59,12.08,1.4,12.18,1.28.09-.61.16-1.22.2-1.85a20.23,20.23,0,0,0-.67-6.44l-26.23-3.54S357.41,304,367.79,307.67Z" style="fill:#ea9c92"/><path d="M380.9,287c-2.39-2-11-12.14-26.38-9.76-9.63,1.49-17.74,8.06-19.54,23a34.41,34.41,0,0,0,9.31,27.38,9.4,9.4,0,0,0,1.1-.55c3.85-2.54,4.27-3.94,4.27-3.95l.85-7.64a2.14,2.14,0,0,0-1.92-2.12,3.84,3.84,0,0,1-2.82-1.72c-2.22-2.9-1.19-7.4,3.23-7.58a3.37,3.37,0,0,0,3.53-2.51,1.82,1.82,0,0,1,2.37-1.23c5,1.82,17.43,5.75,25.41,3.49C390.53,301,383.28,289.06,380.9,287Z" style="fill:#4d4d4d"/><path d="M369.41,316.77l6.17-1.69s-2.95,4.63-7.24,5.81-5-2.46-5-2.46Z" style="fill:#fff"/><polygon points="323.2 460.23 317.95 457.23 319.92 460.45 322.57 461.43 323.2 460.23" style="fill:#d29fff"/><path d="M464.4,704.52,404.52,670c-3.68-2.12-3.22-5.83,1-8.28l57.82-33.38c4.24-2.45,10.66-2.72,14.33-.59l59.88,34.57c3.68,2.12,3.22,5.83-1,8.28l-57.82,33.38C474.49,706.38,468.07,706.64,464.4,704.52Z" style="fill:#c4d9e8;opacity:0.5"/><path d="M557.45,635.94h0V610.06l-58,0-20.06-11.58c-4.6-2.65-12.64-2.32-17.95.75L442.72,610l-58.07,0v26.61c-.13,1.79.88,3.53,3.09,4.81l75,43.29c4.6,2.65,12.64,2.32,17.95-.75l72.41-41.8C556.14,640.36,557.62,638.07,557.45,635.94Z" style="fill:#396caa"/><path d="M471.05,596.67a20.71,20.71,0,0,0-9.62,2.53L442.72,610l-58.07,0v26.61c-.13,1.79.88,3.53,3.09,4.81l75,43.29a16.38,16.38,0,0,0,8.33,1.78Z" style="fill:#396caa"/><path d="M391.23,610h-6.58v26.61c-.13,1.79.88,3.53,3.09,4.81l3.49,2Z" style="fill:#5793ce"/><path d="M463.88,685.24c4,1.7,9.71,1.61,14.35-.16V654.87H463.88Z" style="fill:#5793ce"/><path d="M462.72,658.16l-75-43.29c-4.6-2.65-4-7.29,1.29-10.36l72.4-41.8c5.31-3.07,13.35-3.4,17.95-.75l75,43.29c4.6,2.66,4,7.3-1.29,10.37l-72.41,41.8C475.36,660.49,467.32,660.82,462.72,658.16Z" style="fill:#d4ecff"/><path d="M464.07,650.37l-62.84-36.28c-3.85-2.22-3.37-6.11,1.08-8.68l60.68-35c4.45-2.57,11.19-2.85,15-.63L540.87,606c3.86,2.23,3.37,6.12-1.08,8.69l-60.67,35C474.66,652.32,467.93,652.6,464.07,650.37Z" style="fill:#5793ce"/><path d="M529.87,642.76a6.72,6.72,0,0,1-3,5.25c-1.67,1-3,.18-3-1.75a6.72,6.72,0,0,1,3-5.25C528.51,640.05,529.87,640.83,529.87,642.76Z" style="fill:#d4ecff"/><path d="M539.61,637.14a6.66,6.66,0,0,1-3,5.24c-1.67,1-3,.19-3-1.75a6.68,6.68,0,0,1,3-5.24C538.26,634.42,539.61,635.21,539.61,637.14Z" style="fill:#d4ecff"/><path d="M549.36,631.51a6.72,6.72,0,0,1-3,5.25c-1.67,1-3,.18-3-1.75a6.72,6.72,0,0,1,3-5.25C548,628.8,549.36,629.58,549.36,631.51Z" style="fill:#d4ecff"/><path d="M557.45,594.59h0V568.72l-58,0-20.06-11.58c-4.6-2.66-12.64-2.33-17.95.74l-18.71,10.8-58.07,0v26.61c-.13,1.8.88,3.53,3.09,4.81l75,43.29c4.6,2.66,12.64,2.33,17.95-.74l72.41-41.8C556.14,599,557.62,596.72,557.45,594.59Z" style="fill:#396caa"/><path d="M471.05,555.33a20.71,20.71,0,0,0-9.62,2.52l-18.71,10.8-58.07,0v26.61c-.13,1.8.88,3.53,3.09,4.81l75,43.29a16.17,16.17,0,0,0,8.33,1.78Z" style="fill:#396caa"/><path d="M391.23,568.63h-6.58v26.61c-.13,1.8.88,3.53,3.09,4.81l3.49,2Z" style="fill:#5793ce"/><path d="M463.88,643.9c4,1.7,9.71,1.6,14.35-.17V613.52H463.88Z" style="fill:#5793ce"/><path d="M462.72,616.82l-75-43.29c-4.6-2.66-4-7.3,1.29-10.37l72.4-41.8c5.31-3.07,13.35-3.4,17.95-.74l75,43.29c4.6,2.66,4,7.3-1.29,10.36l-72.41,41.81C475.36,619.14,467.32,619.48,462.72,616.82Z" style="fill:#d4ecff"/><path d="M464.07,609l-62.84-36.28c-3.85-2.23-3.37-6.12,1.08-8.69L463,529c4.45-2.57,11.19-2.85,15-.62l62.84,36.28c3.86,2.22,3.37,6.11-1.08,8.68l-60.67,35C474.66,611,467.93,611.25,464.07,609Z" style="fill:#5793ce"/><path d="M529.87,601.42a6.69,6.69,0,0,1-3,5.24c-1.67,1-3,.19-3-1.74a6.7,6.7,0,0,1,3-5.25C528.51,598.7,529.87,599.49,529.87,601.42Z" style="fill:#d4ecff"/><path d="M539.61,595.79a6.69,6.69,0,0,1-3,5.25c-1.67,1-3,.18-3-1.75a6.71,6.71,0,0,1,3-5.25C538.26,593.08,539.61,593.86,539.61,595.79Z" style="fill:#d4ecff"/><path d="M549.36,590.17a6.69,6.69,0,0,1-3,5.24c-1.67,1-3,.18-3-1.75a6.69,6.69,0,0,1,3-5.24C548,587.45,549.36,588.24,549.36,590.17Z" style="fill:#d4ecff"/><path d="M557.45,553.25h0V527.37l-58,0-20.06-11.58c-4.6-2.65-12.64-2.32-17.95.75l-18.71,10.8-58.07,0v26.61c-.13,1.79.88,3.53,3.09,4.81l75,43.29c4.6,2.65,12.64,2.32,17.95-.75l72.41-41.8C556.14,557.67,557.62,555.38,557.45,553.25Z" style="fill:#396caa"/><path d="M471.05,514a20.71,20.71,0,0,0-9.62,2.53l-18.71,10.8-58.07,0v26.61c-.13,1.79.88,3.53,3.09,4.81l75,43.29a16.38,16.38,0,0,0,8.33,1.78Z" style="fill:#396caa"/><path d="M391.23,527.28h-6.58v26.61c-.13,1.79.88,3.53,3.09,4.81l3.49,2Z" style="fill:#5793ce"/><path d="M463.88,602.55c4,1.7,9.71,1.61,14.35-.16V572.18H463.88Z" style="fill:#5793ce"/><path d="M462.72,575.47l-75-43.29c-4.6-2.65-4-7.29,1.29-10.36l72.4-41.8c5.31-3.07,13.35-3.41,17.95-.75l75,43.29c4.6,2.66,4,7.3-1.29,10.37l-72.41,41.8C475.36,577.8,467.32,578.13,462.72,575.47Z" style="fill:#d4ecff"/><path d="M464.07,567.68,401.23,531.4c-3.85-2.22-3.37-6.11,1.08-8.68l60.68-35c4.45-2.57,11.19-2.85,15-.63l62.84,36.28c3.86,2.23,3.37,6.12-1.08,8.69l-60.67,35C474.66,569.63,467.93,569.91,464.07,567.68Z" style="fill:#5793ce"/><path d="M529.87,560.07a6.72,6.72,0,0,1-3,5.25c-1.67,1-3,.18-3-1.75a6.72,6.72,0,0,1,3-5.25C528.51,557.36,529.87,558.14,529.87,560.07Z" style="fill:#d4ecff"/><path d="M539.61,554.45a6.66,6.66,0,0,1-3,5.24c-1.67,1-3,.19-3-1.75a6.68,6.68,0,0,1,3-5.24C538.26,551.73,539.61,552.52,539.61,554.45Z" style="fill:#d4ecff"/><path d="M549.36,548.82a6.72,6.72,0,0,1-3,5.25c-1.67,1-3,.18-3-1.75a6.72,6.72,0,0,1,3-5.25C548,546.11,549.36,546.89,549.36,548.82Z" style="fill:#d4ecff"/><path d="M557.45,511.9h0V486l-58,0-20.06-11.58c-4.6-2.66-12.64-2.33-17.95.74L442.72,486l-58.07,0v26.61c-.13,1.8.88,3.53,3.09,4.81l75,43.29c4.6,2.66,12.64,2.33,17.95-.74l72.41-41.8C556.14,516.33,557.62,514,557.45,511.9Z" style="fill:#396caa"/><path d="M471.05,472.64a20.71,20.71,0,0,0-9.62,2.52L442.72,486l-58.07,0v26.61c-.13,1.8.88,3.53,3.09,4.81l75,43.29a16.17,16.17,0,0,0,8.33,1.78Z" style="fill:#396caa"/><path d="M391.23,485.94h-6.58v26.61c-.13,1.8.88,3.53,3.09,4.81l3.49,2Z" style="fill:#5793ce"/><path d="M463.88,561.21c4,1.7,9.71,1.6,14.35-.17V530.83H463.88Z" style="fill:#5793ce"/><path d="M462.72,534.13l-75-43.29c-4.6-2.66-4-7.3,1.29-10.37l72.4-41.8c5.31-3.07,13.35-3.4,17.95-.74l75,43.29c4.6,2.65,4,7.3-1.29,10.36l-72.41,41.81C475.36,536.45,467.32,536.79,462.72,534.13Z" style="fill:#d4ecff"/><path d="M464.07,526.34l-62.84-36.28c-3.85-2.23-3.37-6.12,1.08-8.69l60.68-35c4.45-2.57,11.19-2.85,15-.62L540.87,482c3.86,2.22,3.37,6.11-1.08,8.68l-60.67,35C474.66,528.28,467.93,528.56,464.07,526.34Z" style="fill:#5793ce"/><path d="M529.87,518.73a6.69,6.69,0,0,1-3,5.24c-1.67,1-3,.19-3-1.75a6.69,6.69,0,0,1,3-5.24C528.51,516,529.87,516.8,529.87,518.73Z" style="fill:#d4ecff"/><path d="M539.61,513.1a6.69,6.69,0,0,1-3,5.25c-1.67,1-3,.18-3-1.75a6.71,6.71,0,0,1,3-5.25C538.26,510.39,539.61,511.17,539.61,513.1Z" style="fill:#d4ecff"/><path d="M549.36,507.48a6.69,6.69,0,0,1-3,5.24c-1.67,1-3,.18-3-1.75a6.69,6.69,0,0,1,3-5.24C548,504.76,549.36,505.54,549.36,507.48Z" style="fill:#d4ecff"/><path d="M557.45,470.55h0V444.68l-58,0-20.06-11.58c-4.6-2.65-12.64-2.32-17.95.75l-18.71,10.8-58.07,0v26.6c-.13,1.8.88,3.54,3.09,4.82l75,43.29c4.6,2.65,12.64,2.32,17.95-.75l72.41-41.8C556.14,475,557.62,472.69,557.45,470.55Z" style="fill:#396caa"/><path d="M471.05,431.29a20.59,20.59,0,0,0-9.62,2.53l-18.71,10.8-58.07,0v26.6c-.13,1.8.88,3.54,3.09,4.82l75,43.29a16.38,16.38,0,0,0,8.33,1.78Z" style="fill:#396caa"/><path d="M391.23,444.59h-6.58v26.6c-.13,1.8.88,3.54,3.09,4.82l3.49,2Z" style="fill:#5793ce"/><path d="M463.88,519.86c4,1.7,9.71,1.61,14.35-.16V489.49H463.88Z" style="fill:#5793ce"/><path d="M462.72,492.78l-75-43.29c-4.6-2.65-4-7.29,1.29-10.36l72.4-41.8c5.31-3.07,13.35-3.41,17.95-.75l75,43.29c4.6,2.66,4,7.3-1.29,10.37L480.67,492C475.36,495.11,467.32,495.44,462.72,492.78Z" style="fill:#d4ecff"/><path d="M464.07,485l-62.84-36.28c-3.85-2.22-3.37-6.11,1.08-8.68L463,405c4.45-2.57,11.19-2.85,15-.63l62.84,36.28c3.86,2.23,3.37,6.12-1.08,8.69l-60.67,35C474.66,486.94,467.93,487.22,464.07,485Z" style="fill:#5793ce"/><rect x="494.68" y="487.52" width="34.73" height="1.22" transform="translate(-175.37 321.02) rotate(-29.97)" style="fill:#fff"/><path d="M529.87,477.38a6.72,6.72,0,0,1-3,5.25c-1.67,1-3,.18-3-1.75a6.72,6.72,0,0,1,3-5.25C528.51,474.67,529.87,475.45,529.87,477.38Z" style="fill:#d4ecff"/><path d="M539.61,471.76a6.66,6.66,0,0,1-3,5.24c-1.67,1-3,.19-3-1.75a6.68,6.68,0,0,1,3-5.24C538.26,469,539.61,469.83,539.61,471.76Z" style="fill:#d4ecff"/><path d="M549.36,466.13a6.72,6.72,0,0,1-3,5.25c-1.67,1-3,.18-3-1.75a6.72,6.72,0,0,1,3-5.25C548,463.42,549.36,464.2,549.36,466.13Z" style="fill:#d4ecff"/><path d="M557.45,428.93h0V403.05l-58,0-20.06-11.57c-4.6-2.66-12.64-2.33-17.95.74L442.72,403l-58.07,0v26.61c-.13,1.79.88,3.53,3.09,4.81l75,43.29c4.6,2.66,12.64,2.32,17.95-.75l72.41-41.8C556.14,433.35,557.62,431.06,557.45,428.93Z" style="fill:#396caa"/><path d="M471.05,389.67a20.71,20.71,0,0,0-9.62,2.52L442.72,403l-58.07,0v26.61c-.13,1.79.88,3.53,3.09,4.81l75,43.29a16.38,16.38,0,0,0,8.33,1.78Z" style="fill:#396caa"/><path d="M391.23,403h-6.58v26.61c-.13,1.79.88,3.53,3.09,4.81l3.49,2Z" style="fill:#5793ce"/><path d="M463.88,478.23c4,1.7,9.71,1.61,14.35-.16V447.86H463.88Z" style="fill:#5793ce"/><path d="M462.72,451.16l-75-43.3c-4.6-2.65-4-7.29,1.29-10.36l72.4-41.8c5.31-3.07,13.35-3.4,17.95-.75l75,43.29c4.6,2.66,4,7.3-1.29,10.37l-72.41,41.8C475.36,453.48,467.32,453.81,462.72,451.16Z" style="fill:#d4ecff"/><path d="M553.08,403.52l-72.41,41.8c-5.31,3.07-13.35,3.4-17.95.74l-75-43.29a6.91,6.91,0,0,1-2.3-2c-1.58,2.54-.86,5.3,2.3,7.12l75,43.3c4.6,2.65,12.64,2.32,17.95-.75l72.41-41.8c4.13-2.38,5.38-5.71,3.58-8.33A10,10,0,0,1,553.08,403.52Z" style="fill:#fff"/><path d="M529.87,435.75a6.7,6.7,0,0,1-3,5.25c-1.67,1-3,.18-3-1.75a6.69,6.69,0,0,1,3-5.24C528.51,433,529.87,433.82,529.87,435.75Z" style="fill:#d4ecff"/><path d="M500,452.16a6.69,6.69,0,0,1-3,5.24c-1.67,1-3,.19-3-1.75a6.69,6.69,0,0,1,3-5.24C498.67,449.44,500,450.23,500,452.16Z" style="fill:#d4ecff"/><path d="M500,495.06a6.72,6.72,0,0,1-3,5.25c-1.67,1-3,.18-3-1.75a6.72,6.72,0,0,1,3-5.25C498.67,492.35,500,493.13,500,495.06Z" style="fill:#fff"/><path d="M539.61,430.13a6.66,6.66,0,0,1-3,5.24c-1.67,1-3,.19-3-1.74a6.69,6.69,0,0,1,3-5.25C538.26,427.41,539.61,428.2,539.61,430.13Z" style="fill:#d4ecff"/><path d="M549.36,424.5a6.72,6.72,0,0,1-3,5.25c-1.67,1-3,.18-3-1.75a6.72,6.72,0,0,1,3-5.25C548,421.79,549.36,422.57,549.36,424.5Z" style="fill:#d4ecff"/><path d="M467.15,424.32l-35.08-20.26c-2.16-1.25-1.89-3.42.6-4.85l33.88-19.56c2.49-1.44,6.25-1.6,8.4-.35L510,399.56c2.15,1.24,1.88,3.41-.6,4.85L475.56,424C473.07,425.4,469.31,425.56,467.15,424.32Z" style="fill:#5793ce"/><path d="M470.51,407.35l-4.85-2.8c-.3-.17-.26-.47.08-.67l4.69-2.71a1.29,1.29,0,0,1,1.16,0l4.86,2.8c.29.17.26.47-.09.67l-4.68,2.71A1.31,1.31,0,0,1,470.51,407.35Z" style="fill:#d4ecff"/><path d="M432.07,404.06l.1.06a4.89,4.89,0,0,1,.5-.35l33.88-19.56c2.49-1.44,6.25-1.59,8.4-.35l35,20.2c2-1.42,2.09-3.35.1-4.5L475,379.3c-2.15-1.25-5.91-1.09-8.4.35l-33.88,19.56C430.18,400.64,429.91,402.81,432.07,404.06Z" style="fill:#396caa"/><path d="M617.24,707.18c4.16,1.78,6.78,6.42,6.44,11.41a19.43,19.43,0,0,1-.94,5.57c-1.33,2.79-5.67,6.6-12.6,3.86s-22.32-17.2-22.9-26.66C586.17,683.77,606.28,702.5,617.24,707.18Z" style="fill:#173d7a"/><path d="M576.52,736.26s1.66,10.14.86,12-5.64,5.82-12.76,5S537,745.3,532.43,731.79c-7.08-20.95,39.57,1.57,39.57,1.57Z" style="fill:#173d7a"/><path d="M556.49,574.2,554.9,732.46c.17,5.5,3.77,10.15,8.62,11,.6.1,1.24.18,1.93.24,4.91.43,7.77-1.68,9.4-3.89a11.62,11.62,0,0,0,2.12-6.39l2-67.56,10.08-60.4,14,106.91a9.26,9.26,0,0,0,3.83,7,10.79,10.79,0,0,0,6.37,1.72,11.71,11.71,0,0,0,8.46-4.17,8.52,8.52,0,0,0,2-5.72l-5.54-64.32-2-82Z" style="fill:#ccc"/><path d="M622.6,522.22a5.1,5.1,0,0,1-.87-.07l-25.28-3.92A5.68,5.68,0,1,1,598.19,507l17.44,2.7-6-34.1a5.68,5.68,0,1,1,11.2-2l7.32,41.9a5.69,5.69,0,0,1-5.6,6.67Z" style="fill:#ffc2b0"/><path d="M599.52,441.35s8.44-.5,19.33,21.93-4,29.52-4,29.52Z" style="fill:#ffbf3e"/><path d="M576.33,447.22c.38-.16,23.31-14.92,31.78.53,13.82,25.19,13,106.28,8.65,116.78-4,9.73-14.13,16.89-21.19,20.93A42.39,42.39,0,0,1,575,591.31c-7.16.06-20.9-6.31-20.4-15.68,2.29-43.08-1.52-79.39-5-114.62C549.56,461,554,456.27,576.33,447.22Z" style="fill:#ffaf00"/><path d="M540.16,535.19a4.82,4.82,0,0,0,1.91-.49,6,6,0,0,0,3.17-4.55l10.9-31.78c.48-3.28-5.25-16.08-8.17-16.63s-10.34,5.27-10.82,8.55l-2.68,28.4-22.77-7.41c-2.8-1.47-5.11-4.46-6.76-1.7a6.5,6.5,0,0,0,1.47,8.36L537,534.17A5,5,0,0,0,540.16,535.19Z" style="fill:#ffc2b0"/><path d="M509.93,510.54l-1.69-4.14a11,11,0,0,0-2.72-3.91l-7.1-6.55a1.39,1.39,0,0,0-2,.19h0a1.38,1.38,0,0,0,.09,1.76l3,3.22a1.92,1.92,0,0,1,.4,1.95l-1.13,3.16a3.21,3.21,0,0,0,.54,3.11l7.12,8.62Z" style="fill:#ffc2b0"/><path d="M549.56,461s-15.3,11.79-17.65,47.7c0,0-.33,4,8.51,6.38s14.89-4.46,14.89-4.46S565.61,486.79,549.56,461Z" style="fill:#ffbf3e"/><path d="M578.43,433.34l2.5,14.42a6.59,6.59,0,0,1-5.4,6.28c-5.49,1.36-7.19-2.18-7.19-2.18l-2.48-16.24Z" style="fill:#ffc2b0"/><path d="M548.75,433.89c5.94,11.51,19,16.53,29.28,11.21s13.71-19,7.77-30.49-19-16.53-29.28-11.2S542.81,422.38,548.75,433.89Z" style="fill:#ffc2b0"/><path d="M563.55,431.73a2.7,2.7,0,0,1-2.36-.75c-1.07-1.09-1.51-6.9-4.31-7.38-4.39-.76-13.3,6.09-16.92-8.63-1.88-7.65,1.54-10.36.79-14.6,0,0,0,2.18,19.75-2.58s29.24,11.83,31.16,20.18.23,22.91-13.06,27.16c-2.21.71-13-5.29-12.94-6.33s3.67-1.6,2.65-4.43C567.46,432,565.82,431.38,563.55,431.73Z" style="fill:#173d7a"/><path d="M589.07,605.43l14,106.91a9.26,9.26,0,0,0,3.83,7,11.36,11.36,0,0,0,1.2.67c-2.9-2.17-11.36-91.91-12.92-101.89S589.07,605.43,589.07,605.43Z" style="fill:#666"/><path d="M387,165c-25.66-.11-45.06-7.75-61.68-22.61-.6-.53-1.48-1.11-.83-2s1.54-.27,2.26.14a115.79,115.79,0,0,0,40.45,14.3,111.24,111.24,0,0,0,23.41,1.3,114.89,114.89,0,0,0,39.07-9,4.57,4.57,0,0,1,1.69-.53,1.77,1.77,0,0,1,1.85,1,1.66,1.66,0,0,1-.49,2,7,7,0,0,1-.85.68,75.35,75.35,0,0,1-26.33,12C398.35,164.09,391.09,165.23,387,165Z" style="fill:#fe9902"/><path d="M385.56,102.3q-2.4,10-4.79,20c-.43,1.8-.85,3.59-1.31,5.38-.39,1.47-.86,1.82-2.39,1.85-1.05,0-2.11,0-3.17,0-1.57,0-2-.33-2.49-1.86-1.92-6.24-3.81-12.48-5.72-18.72q-1.85-6.06-3.68-12.11c-.69-2.26-.48-2.54,1.85-2.54h2.19c2,0,2.46.31,3,2.28.9,3.48,1.77,7,2.65,10.45q1.8,7.05,3.59,14.09c.07.28.17.56.28.89.42-.28.36-.72.44-1.06q2.91-12.21,5.79-24.44c.44-1.88.85-2.2,2.8-2.21H387c1.92,0,2.34.33,2.79,2.22,1.29,5.42,2.55,10.85,3.83,16.27l2.26,9.57c.47-.17.39-.6.47-.9q3.21-12.3,6.38-24.6c.6-2.32.9-2.56,3.25-2.56.92,0,1.85,0,2.77,0s1.27.45,1.14,1.31a7.4,7.4,0,0,1-.27,1.15q-4.8,15.33-9.62,30.66c-.58,1.86-.94,2.11-2.91,2.12-.93,0-1.85,0-2.78,0-1.61,0-2.09-.39-2.48-2q-2.3-9.36-4.56-18.74l-1.59-6.52Z" style="fill:#25313f"/><path d="M351.76,125a14.87,14.87,0,0,1-8.25,5.09,15.36,15.36,0,0,1-7.07-.09,9.57,9.57,0,0,1-7.22-9.19c-.29-6.28,3.68-10.93,10.07-11.84a30.46,30.46,0,0,1,11,.71c.84.19,1.18.12,1.1-.87-.1-1.21,0-2.43-.14-3.66-.43-4.14-2.4-6-6.6-6.3a23.23,23.23,0,0,0-10.41,1.9c-2.41,1-2.55.78-2.71-1.75a3.18,3.18,0,0,1,2.35-3.57,25.31,25.31,0,0,1,15.4-1.57c5.13,1.16,8,4.6,8.47,9.87.38,4.62.17,9.25.14,13.87,0,2.86.25,5.59,1.8,8.08a1.3,1.3,0,0,1-.43,1.9c-.89.63-1.79,1.24-2.72,1.81a1.63,1.63,0,0,1-2.16-.29,10.47,10.47,0,0,1-1.78-2.49Zm-7.25-11.57c-.79,0-1.59,0-2.37.12-4.53.39-6.87,3.61-5.82,8a4.38,4.38,0,0,0,3.6,3.52,10.53,10.53,0,0,0,8.43-1.87,6.66,6.66,0,0,0,2.84-4.79c.12-1.08.09-2.18.2-3.26.07-.66-.25-.85-.8-1A36.58,36.58,0,0,0,344.51,113.4Z" style="fill:#25313f"/><path d="M423.88,130.56a25.18,25.18,0,0,1-8.61-1.77c-2.45-1-3.3-2.82-2.53-5.32.22-.71.78-.77,1.35-.6s1.16.46,1.75.68a21,21,0,0,0,12.23,1.25c2.62-.58,4.12-2.18,4.25-4.31a4,4,0,0,0-2.23-4,28.32,28.32,0,0,0-5.36-2,38.88,38.88,0,0,1-6.13-2.19c-4.42-2.31-6.56-7-5.07-11.47,1.27-3.8,4.19-5.91,7.92-6.93,4.54-1.25,9-.6,13.31,1A3,3,0,0,1,437,98.23c-.12,2.71-.22,2.82-2.77,1.8a17.81,17.81,0,0,0-11-1c-2.82.67-4.14,2.89-3.38,5.4a4.3,4.3,0,0,0,2.25,2.5,29.09,29.09,0,0,0,5.17,2c1.94.65,3.91,1.19,5.79,2,7.61,3.24,7.34,12.53,1.88,16.69C432.39,129.53,428.92,130.57,423.88,130.56Z" style="fill:#25313f"/><path d="M431.69,142.71c-2.72.11-5.41.36-8.1.67-.64.07-1.54.49-1.87-.35s.55-1.23,1.14-1.62a26.44,26.44,0,0,1,19.32-2.51c1.65.5,2.09,1,2,2.7a25.18,25.18,0,0,1-7.11,17.33,6.94,6.94,0,0,1-1.15.94c-.36.23-.79.41-1.18,0s-.23-.72-.08-1.1c.5-1.29,1-2.57,1.51-3.87a33.59,33.59,0,0,0,2.31-8.46c.21-2.41-.3-3-2.69-3.5a6.67,6.67,0,0,0-.88-.13Z" style="fill:#fe9902"/><path d="M366.81,213.21l-.88-3.52a10.12,10.12,0,0,0-4.86-5l-3.16-.77-3.5.31-3.17,1.39-1.22.93-1.91,2.24-.48.91c-.45,1.18-.89,2.36-1.34,3.55l-.42,3.14.25,3.51.91,3.18c.24.48.48,1,.71,1.44l1.67,2,1.82,1.28a14.34,14.34,0,0,0,9.84.85l3.55-1.43.64-.66a14.47,14.47,0,0,0-.08-1.87c-.07-.41.44-1.13-.51-1.19a7.13,7.13,0,0,1-3.56,1.73,8.17,8.17,0,0,1-3.21.55,6.31,6.31,0,0,1-3.48-.56,5.28,5.28,0,0,1-2.82-2.18,8.52,8.52,0,0,1-1.65-4.19c-.17-1,.18-1.5,1.27-1.2h13.39c.83-.32,2.38.64,2.28-1.3C366.87,215.32,366.84,214.27,366.81,213.21Zm-4.73,1.12a75.89,75.89,0,0,1-7.69-.12,12.85,12.85,0,0,1-3.16,0c-.91.28-1.46.24-1.08-1a7.24,7.24,0,0,1,1.94-3.54,4.66,4.66,0,0,1,2.28-1.73,5.65,5.65,0,0,1,3.55-.45c2.82.31,4.64,2.49,4.78,5.71C363,213.87,363,214.34,362.08,214.33Z" style="fill:#028ad5"/><path d="M188.21,219.55l2.94-6.34a61,61,0,0,1,3.15-6.7,67,67,0,0,1,3.11-6.72,15,15,0,0,1,1.65-3.48,8.69,8.69,0,0,1,1.25-2.71l.18-.51,1.68-3.51,1.51-3.3c.59-1.22,1.17-2.45,1.76-3.68s1.08-2.33,1.56-3.53c.16-.39.81-.85,0-1.29l-9.89,8.3-.5.41a17.59,17.59,0,0,1-3,2.52l-.69.59a13.86,13.86,0,0,1-2.46,2.06,9.36,9.36,0,0,1-1,1,18.24,18.24,0,0,0-6.13,7.19c-1.1,2.36-2.89,4.33-3.91,6.73l-3.89,6.7a16.47,16.47,0,0,1-1.9,3.24v0a18.33,18.33,0,0,1-2,3.41,6.62,6.62,0,0,1-1.32,2.23,1.7,1.7,0,0,1-.55,1l-2.92,5.28,3.46.13,3.19,0h10.21c.4-.66.79-1.33,1.18-2A67.41,67.41,0,0,1,188.21,219.55Z" style="fill:#028ad5"/><path d="M341.34,204.21a1.8,1.8,0,0,1-.32-.06,9.62,9.62,0,0,0-3.19,1.11l-1.28,1.25c-.49.83-1,1.66-1.55,2.66V206.5c-.35-.6.5-1.62-.68-1.92l-3.17.07c0,.62-.09,1.23-.13,1.85v20.07c0,.64.07,1.28.11,1.92l3.18.13c1.21-.35.35-1.4.68-2,0-1.16,0-2.33,0-3.5s0-2.13,0-3.19,0-2.33,0-3.5a6.6,6.6,0,0,1,.5-3.64c.81-3.2,2.79-5,5.5-4.91.87-.21,1.62.5,2.51.41,0-.62.07-1.18.1-1.75C343.51,204.33,343.51,204.33,341.34,204.21Z" style="fill:#028ad5"/><path d="M240.46,233.35l-2.08-3.59c-1.21-2.1-2.41-4.21-3.62-6.32a66,66,0,0,1-4.08-7.06.13.13,0,0,1-.09-.17,15.77,15.77,0,0,1-1.78-3l-3.62-6.31a67.88,67.88,0,0,1-4.08-7.07,65.2,65.2,0,0,1-3.84-6.7,18,18,0,0,1-2-3.46,71.23,71.23,0,0,1-3.87-6.66l-.8-1.37c-.78.1-.5,1-1,1.31a15.15,15.15,0,0,1-1.28,3.5c-1.32,4-2.73,8-4.37,11.95l-.48,1.43a54.83,54.83,0,0,1-2,5.52,2.44,2.44,0,0,0,.64,3.2,9.53,9.53,0,0,1,.85,1.13,2.63,2.63,0,0,1,.94,1.17,11,11,0,0,1,2,2.32l11,13.12,2.08,2.29a33.17,33.17,0,0,1-5.27.89,60.49,60.49,0,0,1-6.69,1.21l-3.21.53a17.05,17.05,0,0,1-3.48.55,10.28,10.28,0,0,1-3.2.58,12,12,0,0,1-3.51.62,50.79,50.79,0,0,1-6.71,1.24l-2.08.59,2.09.12h53.58C241.64,234.32,240.31,233.87,240.46,233.35Z" style="fill:#028ad5"/><path d="M321.73,204.9a2.51,2.51,0,0,1-.87-.16c-1.61-.36-1.47.79-1.53,1.77s0,2.12,0,3.19v6.69c0,1.17,0,2.34,0,3.51-.38,3.17-2.31,5.37-5.07,5.79a4.38,4.38,0,0,1-3.54-.36,3.52,3.52,0,0,1-2.23-1.9,6.32,6.32,0,0,1-1-3.5,12.22,12.22,0,0,1-.06-3.52,9.47,9.47,0,0,1,0-3.23c0-1.15,0-2.31,0-3.47a10.53,10.53,0,0,1,0-3.22l-.18-1.88-2.84,0c-1.48,0-.68,1.27-1,1.93v9.88l0,3.5c.16,1,.33,2.08.49,3.13a8.09,8.09,0,0,0,2.89,4.59c2.28,1.62,4.81,1.74,7.45,1.36a10.43,10.43,0,0,0,3.51-1.79l1.6-2c.06.46.09.65.1.84.18,2.64.18,2.6,2.89,2.54.94,0,1.17-.35,1.15-1.21-.05-1.43,0-2.87,0-4.3V206.51C323.63,205.18,323,204.67,321.73,204.9Z" style="fill:#028ad5"/><path d="M275.89,223.09a11.85,11.85,0,0,1-1.23-3.2,51.46,51.46,0,0,1-2.55-6.69,14.25,14.25,0,0,1-1.34-3.48,58.9,58.9,0,0,1-2.59-6.69,61.13,61.13,0,0,1-2.56-6.67c-.38-.58-.47-1.46-1.48-1.34-1.12.31-2.38-.38-3.43.46-.06.31,0,.64-.33.86a15,15,0,0,1-1.34,3.48,53.54,53.54,0,0,1-2.55,6.69,12.32,12.32,0,0,1-1.23,3.2,11.83,11.83,0,0,1-1.3,3.34l0,.09-.07.06a12.55,12.55,0,0,1-1.23,3.2,47.57,47.57,0,0,1-2.57,6.69,13.15,13.15,0,0,1-1.32,3.49c-.55,1.91-.55,1.91,1.48,2a3.62,3.62,0,0,1,.46.06c1.47.23,2.13-.52,2.49-1.86s.88-2.46,1.33-3.68a.43.43,0,0,1,0-.16c1.18-4,1.18-4,6-3.64l8.6-.07c.49,0,1-.05,1,.68a48.23,48.23,0,0,1,2.52,6.7c.59.57.31,1.69,1.28,2h3.53c.44-.54-.05-1-.2-1.43C276.9,225.82,276.39,224.46,275.89,223.09Zm-8.58-7.61a12.77,12.77,0,0,1-3.15,0,8,8,0,0,1-3.54,0c-.32,0-.63.08-.94.08-2.62.05-2.62,0-1.55-2.35a21.79,21.79,0,0,1,1.48-3.92,9.15,9.15,0,0,1,1-2.79,14,14,0,0,1,1.27-3.5c.32-1,.65-2.08,1.07-3.44.43,1.36.74,2.36,1.06,3.36l2.48,6.75c.6,1.58,1.17,3.17,1.82,4.72C268.84,215.61,268.42,215.82,267.31,215.48Z" style="fill:#028ad5"/><path d="M290.9,217.21a1.25,1.25,0,0,1,.58-.85l7.16-9.85c.71-1.18.53-1.91-1-1.93h-3.52a11.29,11.29,0,0,1-3.18,0h-3.52a11.29,11.29,0,0,1-3.18,0l-3.51,0-.24,1.9c.06.46.13.93.2,1.4a20.2,20.2,0,0,1,3.56.13,11.94,11.94,0,0,1,3.16,0,10,10,0,0,1,3.53,0l2.46-.11-4,5.3a12.3,12.3,0,0,1-1.93,2.66l-.36.5a79.32,79.32,0,0,1-4.85,6.67,7.73,7.73,0,0,1-1.52,2.08,3.75,3.75,0,0,1-1,1.43c-.88,1.74-.82,1.86,1,2h16.92c1.79.2,1.11-1.21,1.32-2,.12-1-.33-1.45-1.33-1.33H285.05a42.8,42.8,0,0,1,3.9-5.39A11.53,11.53,0,0,1,290.9,217.21Z" style="fill:#028ad5"/><path d="M42.17,301.15c3.06,2.22,4.79,5.39,6.14,8.79a6.71,6.71,0,0,0,1.88,2.71,15.79,15.79,0,0,1,4.4,17.61,15.54,15.54,0,0,1-14.62,10c-4,0-8-.08-12.08-.12,0-3.15,0-6.29,0-9.44,3.79-.05,7.59-.08,11.38-.14,3.58-.06,6-2,6.54-5.24.45-2.84-1.34-5.47-4.5-6.58-.76-.27-1.6-.33-1.55-1.48.17-3.86-1.78-6.77-4.29-9.42Z" style="fill:#4687f4"/><path d="M95,316.39a41.67,41.67,0,0,0,4.61,0c2.22-.25,2.94.56,2.91,2.8-.08,5.67-2.24,10.17-7.35,12.71a15.43,15.43,0,0,1-16.35-1.06c-7.2-4.9-9.16-14.53-4.48-21.37,5.16-7.55,15-9.64,22.14-4.63.73.51,2.6.88,1.37,2.35-.89,1.06-1.55,3-3.93,1.3a10.76,10.76,0,0,0-14.46,1.87,11.44,11.44,0,0,0,0,15.08,11.06,11.06,0,0,0,14.7,1.84,10.11,10.11,0,0,0,2-1.79c1-1.2,2-2.77,1.49-4.14-.48-1.17-2.31-.41-3.53-.5a26.31,26.31,0,0,0-3.87,0c-1.73.13-2.62-.17-2.59-2.3s.89-2.24,2.5-2.15S93.4,316.39,95,316.39Z" style="fill:#66696e"/><path d="M6.4,337.05C-1,332-2.2,321,3.91,314.2c1-1.08,2.11-2,3.17-3,3.86-1.77,7.8-3,12.13-2.05a18.12,18.12,0,0,1,7.56,4.17c1.21,1.14,1.59,2,.08,3.27a38.9,38.9,0,0,0-4.12,4.1c-.94,1.06-1.48,1.24-2.55,0a5.62,5.62,0,0,0-7-1.52c-4.51,2.16-4.55,7.43-.08,11Z" style="fill:#f9bc09"/><path d="M162.84,332.14c-6,2.32-10,1.44-13-2.88a10.44,10.44,0,0,1,.44-12.22c3.14-3.79,7-4.63,11.66-2.49a1,1,0,0,0,1.35-.09c2.37-1.6,4.23-.56,4.21,2.2,0,5.73.15,11.48-.18,17.2-.36,6.46-5.93,10.14-12.2,8.42a8.58,8.58,0,0,1-5-3.59c-.43-.65-1.89-1.59-.46-2.29,1.07-.53,2.44-2.46,3.87-.25a5,5,0,0,0,3.06,2.23C160.66,339.35,163.65,336.38,162.84,332.14Zm.62-8.68c0-3.51-2.17-6-5.26-6s-5.56,2.52-5.56,6,2.44,6.13,5.56,6.09S163.47,326.89,163.46,323.46Z" style="fill:#66696e"/><path d="M19.21,309.14c-4.33-1-8.27.28-12.13,2.05,2.31-10.85,15-18.06,26.34-14.94a18,18,0,0,1,8.75,4.9l-6.69,6.72c-.69-.4-1.37-.82-2.07-1.19A11.52,11.52,0,0,0,19.21,309.14Z" style="fill:#e94739"/><path d="M296.45,330.85c-4.29,3.25-8.06,3.53-11.34,1.14a10.82,10.82,0,0,1-3.43-12.22,8.91,8.91,0,0,1,9.11-6.19,7.53,7.53,0,0,1,3.84,1.34c1.22.86,1.73.48,1.72-.92,0-2.18.06-4.37,0-6.54,0-1.34.15-2.08,1.8-2s1.87.62,1.86,2c-.05,7.83,0,15.67,0,23.5,0,.93.27,2-1.3,2C297.39,333,296.13,333.09,296.45,330.85Zm-11.73-7.24c0,3.91,2.43,6.63,5.87,6.63s5.94-2.83,5.89-6.85c0-3.86-2.53-6.55-6-6.49S284.7,319.72,284.72,323.61Zm11.35-8c0,.06-.09.12-.08.16.07.22.18.23.29,0,0,0,0-.12-.06-.16S296.12,315.65,296.07,315.64Z" style="fill:#66696e"/><path d="M218.87,304.9a12.37,12.37,0,0,1,8.9,3.23c.61.54,1.63,1.14.46,2.1-.77.64-1.18,1.88-2.7.68-4.73-3.73-10.84-3.22-14.61,1-3.61,4-3.41,11.22.41,15.1a10.51,10.51,0,0,0,14.68.28c1.4-1.24,1.92-.55,2.89.32,1.33,1.19.29,1.79-.45,2.47-4.33,4-11.84,4.68-17,1.55a14.64,14.64,0,0,1-6.24-16.71A14,14,0,0,1,218.87,304.9Z" style="fill:#66696e"/><path d="M186.86,333.59c-4.09-.14-7.22-2-8.88-5.69a10.2,10.2,0,0,1,1.18-11,8.84,8.84,0,0,1,9.27-3.38c3.5.73,5.51,3.13,6.85,6.28.56,1.34-.38,1.51-1.18,1.84-3.36,1.4-6.69,2.88-10.1,4.16-1.88.71-1.52,1.47-.38,2.48a5.28,5.28,0,0,0,7.27-.37c2-2,3,0,4,.81,1.18,1-.44,1.59-1,2.16A8.94,8.94,0,0,1,186.86,333.59Zm3.37-14.51a5.69,5.69,0,0,0-.87-.93,4.55,4.55,0,0,0-4.8-.27,5.25,5.25,0,0,0-3,4.09c-.15.88.39.93,1,.66,2.3-1,4.6-1.92,6.88-2.9A4.1,4.1,0,0,0,190.23,319.08Z" style="fill:#66696e"/><path d="M124.25,323.51a10.17,10.17,0,0,1-20.34,0,10.17,10.17,0,1,1,20.34,0Zm-4.51-.05a5.69,5.69,0,0,0-5.56-6,5.59,5.59,0,0,0-5.71,5.86c0,3.49,2.47,6.28,5.65,6.26A5.91,5.91,0,0,0,119.74,323.46Z" style="fill:#66696e"/><path d="M126,323.36a10.16,10.16,0,1,1,10,10.23A10,10,0,0,1,126,323.36Zm15.75,0c0-3.49-2.33-6-5.59-6a5.73,5.73,0,0,0-5.69,5.93,6,6,0,0,0,5.77,6.19A5.84,5.84,0,0,0,141.77,323.4Z" style="fill:#66696e"/><path d="M249,313.57c5.76,0,9.74,4.12,9.7,10.06s-4,9.9-9.6,10-9.79-4.27-9.74-10.1S243.41,313.58,249,313.57Zm-6,10c0,3.9,2.59,6.72,6.11,6.67s6.07-2.95,6-6.81-2.59-6.49-6-6.53S243,319.67,243,323.57Z" style="fill:#66696e"/><path d="M6.4,337.05l6.7-6.93a17.07,17.07,0,0,0,4.5.49c3.43,0,6.87.07,10.3.12,0,3.15,0,6.29,0,9.44-4.6,0-9.21.19-13.8,0A11.56,11.56,0,0,1,6.4,337.05Z" style="fill:#39a957"/><path d="M274.57,331c-1,.69-1.66,1.25-2.41,1.67-4.78,2.68-10.11,0-10.54-5.47-.31-3.86-.07-7.76-.16-11.64,0-1.56,1-1.33,1.93-1.4,1.19-.09,1.77.23,1.73,1.58-.08,3-.05,6,0,9,0,3.76,1.36,5.48,4.26,5.57s5-2,5.15-5.31c.17-3,.1-6,0-9,0-1.28.24-1.88,1.71-1.88s2,.37,1.95,1.91c-.1,4.85,0,9.7-.07,14.56,0,.9.62,2.26-1.14,2.41C275.65,333.07,274.34,333.14,274.57,331Z" style="fill:#66696e"/><path d="M175,318.13c0,4.35-.08,8.71,0,13.06.05,1.92-1,1.79-2.31,1.78s-2.35.17-2.33-1.76q.12-13.06,0-26.13c0-2,1.09-1.9,2.46-1.92s2.25.08,2.19,1.9C174.91,309.41,175,313.77,175,318.13Z" style="fill:#66696e"/><path d="M232.86,319.13c0-4,0-7.91,0-11.87,0-1.33.35-1.86,1.76-1.84s1.87.32,1.86,1.75q-.08,12,0,24c0,1.31-.35,1.83-1.77,1.86-1.58,0-1.88-.63-1.85-2C232.91,327,232.86,323.08,232.86,319.13Z" style="fill:#66696e"/><path d="M93.44,397.37a22.88,22.88,0,0,1,17.7,8.21c1,1.15,1.74,1.65,3.13.89,2-1.08,2.43.65,3,1.82.77,1.56-.83,1.48-1.55,1.82-1.51.69-3.72.61-4.49,2s.81,3.09,1.07,4.72c.06.35.14.69.2,1,.45,2.49.49,2.59,2.79,1.64,1.61-.67,1.41.31,1.44,1.24.46,14.07-13.1,25.73-27,23.28a23.2,23.2,0,0,1-14.47-8.19c-.88-1.07-1.66-1.35-2.83-.67-1.63.94-2.65.42-3.42-1.26-.67-1.46-1.38-2.9-1.94-4.41-.45-1.22,0-1.8,1.12-2.17s2.5-.91,3.75-1.36c1.83-.67,2.32-2,1.3-3.66-.62-1-1.39-.37-2-.08-1.2.56-1.41.07-1.48-1-.6-10.2,7.7-21,17.83-23.1A22,22,0,0,1,93.44,397.37ZM94.05,436c6.35,0,12.28-4.67,14.09-11.66.15-.6.5-1.3,0-1.78s-1.21,0-1.74.23c-1.2.52-1.84.45-1.83-1.09a12.47,12.47,0,0,0-1.22-5.69c-.44-.89-.26-1.4.73-1.72,1.47-.46,2.92-1,4.34-1.57.48-.19,1.16-.26,1.22-1,.1-1.13-2.09-2.77-3.19-2.42s-2,1-3.1,0a15,15,0,0,0-15.22-2.81c-4.57,1.54-9.23,6.7-9.8,11.38-.13,1.06.2,1.56,1.23,1.13,1.66-.69,1.92,0,2,1.53s-.32,2.19-1.69,2.58-2.62,1-4,1.38-1.44,1.09-1,2.2a19.21,19.21,0,0,0,2.52,4.81,1.91,1.91,0,0,0,2.84.72c1.39-.77,2.48-.51,3.75.53A14.64,14.64,0,0,0,94.05,436Z" style="fill:#db2735"/><path d="M189.57,426c0-3.11,0-5.87,0-8.64,0-1.24-.14-2.32,1.79-2.27s1.72,1.15,1.72,2.37c0,4.62,0,9.25,0,13.87,0,.8.54,2-.86,2.21-1.16.17-2.31.29-3.14-1-1.79-2.83-3.73-5.58-5.64-8.34-.33-.47-.55-1.14-1.59-1.3,0,3-.05,5.87,0,8.77,0,1.32-.18,2-1.81,2s-1.79-.71-1.77-2c.06-4.76,0-9.53,0-14.29,0-.75-.47-1.93.74-2.1s2.48-.46,3.37,1c1.73,2.71,3.57,5.35,5.35,8A3.75,3.75,0,0,0,189.57,426Z" style="fill:#171717"/><path d="M123.28,424.76c0-5.05,1.89-8.22,5.36-9.43a7.81,7.81,0,0,1,10.51,6,13.38,13.38,0,0,1-.42,7.63,7.55,7.55,0,0,1-8.53,4.9,8,8,0,0,1-6.84-7.39C123.3,425.77,123.3,425.07,123.28,424.76Zm12.42-.58a14.56,14.56,0,0,0-.22-2.29c-.49-1.88-1.55-3.31-3.63-3.55a3.94,3.94,0,0,0-4.27,2.69,8.29,8.29,0,0,0,.17,7.1,3.92,3.92,0,0,0,3.43,2.39,4,4,0,0,0,3.71-2.29A8.37,8.37,0,0,0,135.7,424.18Z" style="fill:#171717"/><path d="M161.31,424.39c0-2.51,0-5,0-7.55,0-1.21.26-1.77,1.62-1.73,3.08.09,6.16.1,9.24,0,1.51-.05,1.68.67,1.73,1.9.06,1.45-.69,1.58-1.82,1.55-1.89-.05-3.78.05-5.67,0-1.66-.07-1.51,1-1.52,2.09s0,2,1.51,1.84c.63-.06,1.28.08,1.89,0,1.89-.33,2,.75,2,2.19,0,1-.41,1.38-1.38,1.28-.49,0-1,.06-1.47,0-2-.32-2.7.48-2.55,2.51.1,1.35.47,1.89,1.84,1.84,2.1-.07,4.2,0,6.3,0,1.35-.07,1.45.68,1.46,1.69s0,1.76-1.41,1.73c-3.42-.07-6.85-.06-10.28,0-1.11,0-1.47-.38-1.45-1.46C161.35,429.57,161.31,427,161.31,424.39Z" style="fill:#171717"/><path d="M148.66,415.25a27.87,27.87,0,0,1,4.19,0,5.67,5.67,0,0,1,5.07,5.93,5.81,5.81,0,0,1-5.61,5.49l-.84.05c-4.26.15-4.33.15-4.23,4.56,0,1.63-.22,2.5-2.12,2.31-1.07-.1-1.48-.35-1.47-1.46q.06-7.77,0-15.55c0-1.26.53-1.57,1.65-1.5s2.25,0,3.37,0Zm1.38,3.31c-1.48,0-3.14-.52-2.92,2.11s0,2.73,2.77,2.72a18.17,18.17,0,0,0,2.09-.06,2.17,2.17,0,0,0,2.11-2.4,2.19,2.19,0,0,0-2.16-2.36A17,17,0,0,0,150,418.56Z" style="fill:#171717"/><path d="M227.66,424.57c0,2.52,0,5.05,0,7.57,0,1.12-.4,1.45-1.46,1.47s-1.34-.45-1.32-1.39c0-1.68-.06-3.36,0-5,.06-1.3-.29-2-1.74-1.85-2.15.16-4.86-.84-6.33.38s-.32,4-.51,6c-.07.85.29,1.86-1.23,1.89s-1.53-.74-1.53-1.86c0-4.9,0-9.8,0-14.7,0-1-.1-2,1.44-2s1.3.93,1.31,1.84v3.16c0,2.67,0,2.71,2.78,2.66,1.82,0,4.09.76,5.32-.33s.28-3.45.46-5.23c.09-.89-.4-2.05,1.26-2.09s1.49,1.06,1.49,2.11Z" style="fill:#171717"/><path d="M203.31,415a5.24,5.24,0,0,1,4.5,1.77c.39.48,1.56,1,.57,1.84-.75.63-1.7,1.06-2.59,0a3.61,3.61,0,0,0-3.06-1.07,2.33,2.33,0,0,0-2.42,1.64c-.37,1.29.53,2,1.48,2.46,1.24.62,2.59,1,3.86,1.6,3.3,1.46,4.38,3.22,3.93,6.3-.33,2.28-2.31,4-5,4.33-3.09.4-6.35-1.08-7.34-3.34-.23-.5-.56-1,.3-1.34s1.63-.9,2.37.18a4.11,4.11,0,0,0,3.95,1.89c1.34-.1,2.53-.49,2.84-2a2.64,2.64,0,0,0-1.58-3.27c-1.21-.54-2.45-1-3.68-1.5-3.1-1.24-4.44-3.13-4-5.6S200,414.94,203.31,415Z" style="fill:#171717"/><path d="M240,424.41c0-2.59,0-5.18,0-7.77,0-1.08.35-1.53,1.45-1.51,2.94,0,5.89.05,8.83,0,1.08,0,1.26.5,1.3,1.41,0,1.09-.52,1.29-1.43,1.27-1.89,0-3.79,0-5.68,0-1.1,0-1.61.22-1.65,1.49-.09,3.49-.16,3.48,3.31,3.51.68,0,1.42-.26,2,.25s.34,1.06.27,1.58c-.1.73-.74.68-1.31.73-1.31.11-3-.6-3.85.32-1.05,1.13-.28,2.95-.41,4.46a16.35,16.35,0,0,0,0,2.1c0,.95-.33,1.39-1.35,1.38s-1.55-.24-1.51-1.42C240,429.6,240,427,240,424.41Z" style="fill:#171717"/><path d="M258.88,425.62c0-2.1-.06-4.2,0-6.3.05-1.22-.39-1.65-1.57-1.53-.76.08-1.54,0-2.31,0s-1.48-.16-1.46-1.26.33-1.42,1.34-1.42c3.58,0,7.15,0,10.73,0,1,0,1.29.54,1.3,1.46s-.46,1.18-1.29,1.23c-1.24.07-2.87-.58-3.64.29-.95,1.08-.33,2.81-.35,4.25-.06,3.08,0,6.17,0,9.25,0,.94.29,2-1.34,2s-1.42-.91-1.41-1.9Z" style="fill:#171717"/><path d="M232.44,424.18c0-2.52,0-5,0-7.56,0-1,.27-1.53,1.42-1.51s1.39.59,1.39,1.58q0,7.77,0,15.54c0,1-.35,1.35-1.34,1.38s-1.5-.34-1.47-1.45C232.48,429.5,232.44,426.84,232.44,424.18Z" style="fill:#171717"/></g></g></g></svg>