<svg xmlns="http://www.w3.org/2000/svg" viewBox="0 0 97.14 120"><g id="Layer_2" data-name="Layer 2"><g id="Layer_1-2" data-name="Layer 1"><path id="icon-customer-support" d="M18.25,76H13c7.19-6.42,8.76-14.67,9.59-23.18-6.23-3.63-8.33-8.83-6.24-15.68.41-1.33,1.27-3.07,2.37-3.53,3.42-1.43,3.18-4.07,3.17-6.93,0-12.24,6.44-21.42,17.66-25.2A27.56,27.56,0,0,1,70.2,10.54,24.65,24.65,0,0,1,75.06,27.7c-.15,2.37.09,4.26,2.72,5.39a6.37,6.37,0,0,1,2.7,3.29,12.19,12.19,0,0,1-5.73,16.21c0,9.26,2.88,16.71,9.09,23.23l-5.64-.65-.18.48c.9.53,1.79,1.07,2.7,1.58,11.39,6.42,18.12,19.75,16,31.82-1,5.87-3.92,9.13-9.75,10.14a62.53,62.53,0,0,1-10.42.75q-28.06.11-56.12,0A62.12,62.12,0,0,1,8.77,118.8c-4.81-1-7.44-4.34-8.32-9.12C-1.71,98,4.12,85.12,14.69,78.25,15.61,77.65,16.54,77.08,18.25,76ZM62,30.85c-5.7,3.14-10.93,6.53-16.56,9s-11.65,4-17.87,6A34,34,0,0,0,34,63.88c4.19,5.69,9.61,9.35,17,8.06s11.76-6.7,15.27-13.52c-4.52,1.19-8.46,2.34-12.46,3.23a30.64,30.64,0,0,1-8,1c-.94,0-2.38-2.11-2.46-3.33a3.9,3.9,0,0,1,2.42-3,32.5,32.5,0,0,1,7.29.26c1.26.1,2.61.84,3.74.55a80.83,80.83,0,0,0,9.54-3.18,3.87,3.87,0,0,0,2.2-2.31c.6-3.35.84-6.77,1.22-10.26L62,40.12C64.46,36.77,63.84,33.78,62,30.85ZM48.52,95c.85-1.31,1.36-2,1.81-2.81,2.91-5,5.49-10.12,12-11.67,2.6-.62,4.83-2.93,5.35-6.59l-7.87.9c.53-1.27,1-2.3,1.74-4.12-9.06,7.15-17.45,6.88-26.34-.16,1.25,3,2.12,5,3,7.18l-8.44-1.64c2.7,3.76,5.82,5.11,9.07,6.39a8.18,8.18,0,0,1,3.51,2.71C44.5,88.16,46.31,91.37,48.52,95ZM68.11,18.72C65.28,10.39,57,5,48.09,5.23S31.1,11,29.16,18.17C41,4.09,59.38,7,68.11,18.72Z" style="fill:#666"/></g></g></svg>