<svg xmlns="http://www.w3.org/2000/svg" viewBox="0 0 238.32 150"><g id="Layer_2" data-name="Layer 2"><g id="Layer_1-2" data-name="Layer 1"><g id="icon-cloud-sol"><path d="M57.1,135.55A42.26,42.26,0,0,0,82.22,128a3.76,3.76,0,0,1,4.54-.13,57,57,0,0,0,28,7.64,6,6,0,0,0,4.51-1.78q21.62-20.84,43.32-41.59c3.72-3.57,7.48-7.1,11.17-10.69a7.14,7.14,0,0,1,5.43-2.23c13.19.11,26.39,0,39.58.06,1.88,0,3.68.15,3.58-2.59,0-1,.57-1.08,1.43-.58,4.6,2.7,9.23,5.33,13.83,8,1.13.66.85,1.51-.11,2.06q-6.55,3.84-13.16,7.58c-1.1.62-2.12.76-2.09-1,0-1.58-.88-1.9-2.24-1.9q-18.86,0-37.71,0a4.86,4.86,0,0,0-3.48,1.68q-17.73,17-35.5,34c-6.51,6.19-13.12,12.27-19.64,18.45a6.15,6.15,0,0,1-4.31,1.69,69.75,69.75,0,0,1-32.65-6.21,4.07,4.07,0,0,0-3.84.23c-10.83,5.89-22.62,7.31-34.47,5.52-16.6-2.52-29.73-11.1-39-25.3C3,111.17-.46,100.44.05,89.15.88,71,8.15,55.56,23.29,44.47A54.15,54.15,0,0,1,52.85,33.6a4,4,0,0,0,3.33-1.84A73.3,73.3,0,0,1,84.13,7.63,74.57,74.57,0,0,1,108.51.52a72.06,72.06,0,0,1,54.27,15.71c10.25,8.4,18.11,18.5,22.74,31a4.09,4.09,0,0,0,2.85,2.48c8.67,3.22,16.71,7.48,23,14.5a37.94,37.94,0,0,1,6.82,10.75c.87,2,.39,2.76-1.82,2.84h-.26c-6.34.69-11.29-.1-15.15-6.69-4.07-7-11.9-10-19.72-11.56-3.32-.64-4.44-2.29-5.25-4.95-4.94-16.25-15.37-28.12-30-36.15A59.18,59.18,0,0,0,106.88,12C87.82,15.23,73,25.19,63.12,42a4.78,4.78,0,0,1-4.89,2.68c-17.65-.41-31.17,7.19-40.27,22C10.56,78.83,9.27,92,14.2,105.39c5.89,16.09,17.72,25.53,34.12,29.51C51.13,135.58,54.16,135.36,57.1,135.55Z" style="fill:#ffaf00"/><path d="M199.26,146.68c-6.59,0-13.18-.07-19.77,0a7.34,7.34,0,0,1-5.7-2.23q-10-9.76-20.28-19.28c-1.72-1.61-2-2.64-.13-4.46,5.82-5.56,5.73-5.63,11.39-.15,4.66,4.51,9.4,8.94,14,13.5a6.4,6.4,0,0,0,4.88,1.67c11.93,0,23.87,0,35.8,0,1.41,0,2.78,0,2.94-1.9.14-1.56,1.18-1.48,2.09-1q6.52,3.6,12.94,7.37c1.19.7.65,1.56-.21,2.06q-6.42,3.76-12.91,7.4c-.87.48-1.88.41-1.87-.94,0-2.12-1.33-2.13-2.87-2.13C212.8,146.69,206,146.68,199.26,146.68Z" style="fill:#4d4d4d"/><path d="M146.41,103.49a1.94,1.94,0,0,1-.77,1.35c-1.18,1.08-2.28,2.24-3.5,3.28-3.54,3-3.61,3-7-.19q-7.93-7.52-15.73-15.18a5.8,5.8,0,0,0-4.47-1.86c-5.88.09-11.76,0-17.64,0-1.41,0-2.74,0-2.81,2,0,1.58-1,1.48-2,.91-4.41-2.46-8.82-4.92-13.18-7.47-1.24-.73-1.56-1.65.07-2.55,4.18-2.33,8.3-4.76,12.47-7.11,1.19-.67,2.64-1.91,2.71,1,0,1.74,1.53,1.42,2.63,1.42,7.12,0,14.25.09,21.37,0A7.16,7.16,0,0,1,124,81.28c7,6.72,14,13.37,21,20.08C145.62,101.94,146.52,102.41,146.41,103.49Z" style="fill:#4d4d4d"/></g></g></g></svg>