<svg xmlns="http://www.w3.org/2000/svg" viewBox="0 0 74.72 74.75"><g id="Layer_2" data-name="Layer 2"><g id="Layer_1-2" data-name="Layer 1"><path id="icon-twitter" d="M74.66,37.56C74.83,17.15,58.39.18,38.27,0,17-.19.17,16,0,36.8A37.36,37.36,0,0,0,37,74.74C60.1,75.23,75.81,55,74.66,37.56ZM56.46,29.3a8.39,8.39,0,0,0-1.57,3.45A22.64,22.64,0,0,1,23.14,51.89a1.38,1.38,0,0,1-.41-.18c-.82-.67-1.62-1.36-2.43-2.05,1-.27,1.95-.58,2.95-.81,2-.47,4.1-.9,6.06-1.33-1.78-1.71-4-2.85-4.42-4.47-.71-2.48-2.3-4.39-3.11-6.7-.39-1.12,0-2.51.07-3.77a43.33,43.33,0,0,1-.12-6.92c.32-2.26,1.5-2.44,3.14-.82,4,3.89,7.74,5.77,13,6.33.06-.7.07-1.41.17-2.11.82-5.47,7.66-8.95,12.38-6a4.42,4.42,0,0,0,5.09.19,10.52,10.52,0,0,1,2-.56l-.77,3.16,2.22.39A31.14,31.14,0,0,0,56.46,29.3Z" style="fill:#4d4d4d"/></g></g></svg>