<svg xmlns="http://www.w3.org/2000/svg" viewBox="0 0 229.06 180.2"><g id="Layer_2" data-name="Layer 2"><g id="Layer_1-2" data-name="Layer 1"><g id="icon-cloud-infra"><path d="M228.63,101a76.6,76.6,0,0,1-3.55,10.49l0,.09c-.09.16-.18.32-.28.48l0,0-.32.46a6,6,0,0,0-1.19,2.08q-1.89,2.53-3.79,5.06h0a2.3,2.3,0,0,0-1.12,1.18h0l-.39.39v0a4.76,4.76,0,0,0-1.58,1.51l-.33.34a1,1,0,0,0-.83.74l.05,0a.69.69,0,0,0-.68.5l-.41.34a.65.65,0,0,0-.64.45,40.81,40.81,0,0,1-17.15,7,84.81,84.81,0,0,1-11.71.45c-3.91,0-7.82,0-11.73,0-1.3,0-1.73-.35-1.31-1.64a37.15,37.15,0,0,0,1.6-8.34c.12-1.27.6-1.56,1.76-1.55q8,.06,15.89,0a26.87,26.87,0,1,0-4.19-53.45,40,40,0,0,0-13.43,4.2c.37-5.8,1.2-11.28.76-16.78a10.62,10.62,0,0,0-.34-4.16l-.1-1.13a8.82,8.82,0,0,0-.68-3.4l-.1-.79a9.19,9.19,0,0,0-1.31-4v-.12a5.79,5.79,0,0,0-1.15-2.87c-.06-.19-.12-.38-.19-.57l-.24-.36v0c0-.31,0-.6-.37-.75h0A1.58,1.58,0,0,0,169,35.4v-.11l-.09-.06a1.45,1.45,0,0,0-.71-1.19l0,0a.74.74,0,0,0-.44-.74h0a.72.72,0,0,0-.42-.71l0,0-.32-.41a1.71,1.71,0,0,0-.75-1.13,29.73,29.73,0,0,0-7.48-8l-.09.08.1-.07a4.39,4.39,0,0,0-2-1.69.19.19,0,0,0-.24-.14l-.49-.38,0,0-.42-.34,0,0a.74.74,0,0,0-.7-.47l0,0-.46-.33h0a.74.74,0,0,0-.73-.46l0,0-.46-.31a1.14,1.14,0,0,0-.88-.53,2.83,2.83,0,0,0-1.74-1v0l-.4-.26a45,45,0,0,0-23.93-5.72c-20.69.69-34.35,12.92-41.54,31.43a1.15,1.15,0,0,0-.37,1c0,.17-.09.34-.14.51a2.23,2.23,0,0,0-.71,1.75.77.77,0,0,0-.27.79C83,48.43,82,48.7,80.7,48.28a4,4,0,0,0-1.92-.46,1,1,0,0,0-1.11-.29l-.77-.12a26.28,26.28,0,0,0-7.53-1.09l-1.53-.06h-.76l-.76,0a14.25,14.25,0,0,0-6.8,1.06,2.92,2.92,0,0,0-1.89.55,3.57,3.57,0,0,0-2.3.93h0l-.61.32-.13,0a.8.8,0,0,0-.8.4h0a1.91,1.91,0,0,0-1.48.81c-.15.08-.29.17-.43.26a1.62,1.62,0,0,0-1.22.82.69.69,0,0,0-.64.45.54.54,0,0,0-.59.37l-.91.78-.42.33-.37.31-.43.42,0,0a3.67,3.67,0,0,0-1.75,1.62l-.05,0a5.17,5.17,0,0,0-2,2.16h0a5.27,5.27,0,0,0-2,2.6h0l-.37.45-.3.46a1.21,1.21,0,0,0-.71,1.09,1,1,0,0,0-.51,1,1.71,1.71,0,0,0-.64,1.31l0,.08a1.12,1.12,0,0,0-.46,1.06l0,.14a2.61,2.61,0,0,0-.82,2.13,1.32,1.32,0,0,0-.31,1.27l-.21.6-.15.59-.19.54-.1.78a2.38,2.38,0,0,0-.33,1.87l-.06.78a5.5,5.5,0,0,0-.31,3c0,2-.16,4-.08,6.05.05,1.28-.28,1.74-1.65,1.74A39.17,39.17,0,0,0,23,86.89c-10.78,3.25-12.76,12.73-11,20.3,1.92,8.36,8.82,13.67,17.42,13.73s17.41.06,26.11,0c1.36,0,2,.25,2.13,1.8a47.61,47.61,0,0,0,1.56,8.35c.19.75.41,1.37-.76,1.36-10.53-.12-21.07.41-31.58-.24-9.64-.59-17-5.47-22.34-13.39-.18-.26-.38-.5-.57-.75a2.6,2.6,0,0,0-.84-1.52,1.43,1.43,0,0,0-.51-1.09L2.39,115l-.66-1.64C.84,109.7-.09,106,0,102.23c0-1.07.09-2.14.14-3.21A4,4,0,0,0,.6,96.89a.22.22,0,0,0,.11-.29c.07-.4.15-.8.23-1.21a33.61,33.61,0,0,1,5.94-11,28.3,28.3,0,0,1,16.19-9.73c1-.22,1.61-.5,1.79-1.71,3.58-23.25,22.49-38.95,46-38.22a6.32,6.32,0,0,0,.75-.06c1.4.17,3.12,1.2,4.09-.36,1.56-2.51,2.74-5.27,4.07-7.92l0,0a1.57,1.57,0,0,0,1-1.27l0,0a1.48,1.48,0,0,0,.84-1.15A57.68,57.68,0,0,1,134.06.31,56.08,56.08,0,0,1,172.4,20.44a55.31,55.31,0,0,1,13.44,33.61c.1,1.86.73,2.16,2.35,2,18.73-1.93,38.08,12.25,40.67,33.51.37,3,.09,6,.16,9.07a.93.93,0,0,0-.24.94Z" style="fill:#4d4d4d"/><path d="M154.39,132.36q0,20.52,0,41c0,4.9-1.87,6.77-6.81,6.78q-33.45,0-66.91,0c-4.76,0-6.77-2-6.77-6.7q0-41.42,0-82.85c0-4.18,2-6.27,6.15-6.28q34,0,68.08,0c4.31,0,6.25,2.06,6.25,6.36Q154.39,111.55,154.39,132.36Zm-40.31,12.3c10.11,0,20.22,0,30.33,0,1.82,0,2.34-.61,2.32-2.35q-.12-9.33,0-18.67c0-1.69-.54-2.23-2.24-2.22q-30.34.06-60.67,0c-1.75,0-2.22.6-2.2,2.26.07,6.22.08,12.44,0,18.66,0,1.79.55,2.33,2.34,2.32C94,144.62,104,144.66,114.08,144.66Zm0-30.88c10.12,0,20.24,0,30.35,0,1.7,0,2.27-.52,2.25-2.22-.08-5.84-.07-11.68,0-17.51,0-1.63-.6-2.14-2.17-2.13q-30.35,0-60.7,0c-1.7,0-2.26.58-2.24,2.27.08,5.77.1,11.54,0,17.31,0,1.86.65,2.29,2.38,2.28C94,113.75,104.08,113.78,114.13,113.78Zm.06,38.59h0c-10.12,0-20.23,0-30.35,0-1.69,0-2.27.5-2.24,2.22.1,5.25.09,10.5,0,15.75,0,1.77.59,2.39,2.37,2.38q30.24-.08,60.49,0c1.73,0,2.27-.67,2.25-2.31-.06-5.18-.11-10.37,0-15.55,0-2-.69-2.51-2.59-2.49C134.16,152.41,124.18,152.37,114.19,152.37Z" style="fill:#ffaf00"/><path d="M112.56,129.44c4.68,0,4.68,0,4.81,4.62.08,3,.08,3-2.92,3-1.69,0-3.37,0-5,0-1.2,0-1.84-.33-1.79-1.64,0-1.48,0-3,0-4.46,0-1.06.37-1.56,1.46-1.52S111.4,129.44,112.56,129.44Z"/><path d="M93.86,129.44c4.63,0,4.63,0,4.63,4.72,0,2.85,0,2.86-2.87,2.87-1.68,0-3.36,0-5,0-1.22,0-1.82-.45-1.77-1.69,0-.26,0-.52,0-.78C88.74,129.42,88.74,129.42,93.86,129.44Z"/><path d="M112.16,106.5c-4.54,0-4.54,0-4.54-4.54,0-3.09,0-3.09,3-3.09,1.68,0,3.36,0,5,0,1.14,0,1.67.46,1.67,1.6,0,1.48.05,3,.11,4.45.05,1.16-.48,1.64-1.62,1.6S113.38,106.5,112.16,106.5Z"/><path d="M93.73,106.48c-5,0-5,0-4.91-4.88,0-2.73,0-2.73,2.66-2.73,1.81,0,3.62,0,5.44,0,1.16,0,1.67.48,1.59,1.63,0,.38,0,.77,0,1.16C98.46,106.43,98.46,106.43,93.73,106.48Z"/><path d="M112.58,159.74c4.71,0,4.71,0,4.78,4.7,0,3,0,3-3,3-1.68,0-3.36-.05-5,0-1.22,0-1.85-.35-1.72-1.65a11.22,11.22,0,0,0,0-1.16C107.61,159.73,107.61,159.73,112.58,159.74Z"/><path d="M93.53,167.47c-4.71,0-4.71,0-4.71-4.69,0-3,0-3,3.05-3,1.75,0,3.51-.09,5.24.07.5.05,1,.79,1.36,1.32.2.34,0,.89,0,1.34C98.48,167.46,98.48,167.46,93.53,167.47Z"/></g></g></g></svg>