<svg xmlns="http://www.w3.org/2000/svg" viewBox="0 0 131.99 120"><g id="Layer_2" data-name="Layer 2"><g id="Layer_1-2" data-name="Layer 1"><g id="icon-customer-imp"><path d="M25.5,73.69c3.81.92,8.77,1.15,12.73,3.26,13.08,7,26.9,9.87,41.59,9.87A23.67,23.67,0,0,1,90,89.3a8.11,8.11,0,0,1,3.87,5.82c.06,1.3-3.09,3.82-4.92,3.94-5.4.36-10.87-.23-16.3-.41-5.13-.18-10.28-.58-15.39-.31-1.5.08-2.9,2.12-4.35,3.26,1.54.21,3.08.54,4.63.6,5.12.22,10.25.32,15.38.5s10.61.93,15.85.52c6.82-.54,9-3.55,9.28-10.33a4.74,4.74,0,0,1,2.53-3.18c7.25-3.39,14.59-6.55,21.91-9.77,1.32-.58,2.65-1.49,4-1.54s3.67.31,4.26,1.28a5.91,5.91,0,0,1,.09,4.86,12.82,12.82,0,0,1-3.9,4.15c-7,5.43-13.76,11.22-21.19,16-5.47,3.5-12,5.37-17.79,8.39C72.83,121,57.52,121.91,41,117,30.55,113.85,19.56,111,8.2,112.9c-1,.16-3.06-1.62-3.31-2.78C3.05,101.47,1.45,92.77,0,84c-.19-1.17.69-3.34,1.62-3.72a144.21,144.21,0,0,1,14.44-5C18.83,74.48,21.76,74.3,25.5,73.69Z" style="fill:#666"/><path d="M108.82,47.5c-7.37,6.37-9.64,13.39-6.48,22.38a36.89,36.89,0,0,1-4,.44c-11.57,0-23.14,0-34.71.05-5,0-9-1.55-10.93-6.27s-.6-9.18,3.06-12.75a21,21,0,0,1,4.94-3.79C76.38,39.62,92.14,40.21,108.82,47.5Z" style="fill:#666"/><path d="M84.56,37.2A18.6,18.6,0,0,1,84.28,0a18.81,18.81,0,0,1,18.77,18.73A18.7,18.7,0,0,1,84.56,37.2Z" style="fill:#666"/><path d="M132,62.52a13.75,13.75,0,1,1-13.85-13.73A13.65,13.65,0,0,1,132,62.52Zm-4.81-2.93c-5.76,1.42-7.61-1.82-8.79-6.82l-2.77,6.4-7.14.6c5.58,2.54,6.16,6,4.3,10.52,3.72-3.58,7.16-3.68,10.9,0C121.73,65.72,122.45,62.3,127.18,59.59Z" style="fill:#666"/></g></g></g></svg>