<svg xmlns="http://www.w3.org/2000/svg" viewBox="0 0 74.72 74.75"><g id="Layer_2" data-name="Layer 2"><g id="Layer_1-2" data-name="Layer 1"><path id="icon-fb" d="M74.66,37.56C74.83,17.15,58.39.18,38.27,0,17-.19.17,16,0,36.8A37.36,37.36,0,0,0,37,74.74C60.1,75.23,75.81,55,74.66,37.56ZM45.13,23.75a3.5,3.5,0,0,1-1.37,0c-3.18-.72-4.72.39-4.88,3.59-.05,1.09,0,2.18,0,3.52,1.53,0,2.77,0,4,0,2-.07,1.5,1.39,1.56,2.49s.13,2.31-1.62,2.21c-1.24-.08-2.48,0-4,0v8.95c0,3.35,0,6.7,0,10.05,0,1.33-.48,1.81-1.83,1.86-3.58.14-3.58.19-3.58-3.37V35.68c-1.69-.49-4.54.9-4.19-3,.3-3.24,2.77-1.28,4.2-2.47,0-1-.06-2.24,0-3.48a8.35,8.35,0,0,1,10.37-7.93c.61.13,1.52.74,1.57,1.21A14.42,14.42,0,0,1,45.13,23.75Z" style="fill:#4d4d4d"/></g></g></svg>