<svg xmlns="http://www.w3.org/2000/svg" viewBox="0 0 74.72 74.75"><g id="Layer_2" data-name="Layer 2"><g id="Layer_1-2" data-name="Layer 1"><path id="icon-linkedin" d="M74.66,37.56C74.83,17.15,58.39.18,38.27,0,17-.19.17,16,0,36.8A37.36,37.36,0,0,0,37,74.74C60.1,75.23,75.81,55,74.66,37.56ZM26.55,54.91c-.66,0-1.33,0-2,0-4.16,0-4.32.73-4.29-4.4,0-5.65.07-11.3,0-17,0-2.06.76-2.83,2.76-2.68,6.17.48,5.64-1.08,5.66,5.62V43c0,3.27,0,6.54,0,9.81C28.68,54.26,28.09,55,26.55,54.91ZM24.31,29.19a4.35,4.35,0,0,1-4.47-4.75,4.71,4.71,0,1,1,9.42.15A4.6,4.6,0,0,1,24.31,29.19ZM54.85,53c0,.3.07.7-.08.88-1.91,2.16-4.42.7-6.64,1-.43,0-1.41-1.21-1.45-1.89-.16-3.12-.06-6.25-.09-9.37,0-1-.08-1.94-.18-2.9A2.63,2.63,0,0,0,43.91,38a3,3,0,0,0-3.46,2.15A10.83,10.83,0,0,0,40,43c0,3.27-.07,6.55,0,9.82,0,1.55-.64,2.15-2.13,2.13-7-.07-6.11.87-6.14-5.7,0-5.21,0-10.42,0-15.62,0-1.93.68-2.77,2.62-2.6.88.07,1.8-.14,2.66,0a34,34,0,0,1,3.42.94,23.28,23.28,0,0,1,4.62-1.45c5.66-.67,9.37,2.52,9.68,8.44C55,43.57,54.83,48.27,54.85,53Z" style="fill:#4d4d4d"/></g></g></svg>