<svg xmlns="http://www.w3.org/2000/svg" viewBox="0 0 180 79.04"><g id="Layer_2" data-name="Layer 2"><g id="Layer_1-2" data-name="Layer 1"><g id="icon-work-flow"><path d="M0,39.55c0-9.25,2.37-17.72,8.18-25S21.93,2.9,31.12.9C42.35-1.54,52.49,1.13,62,7.07a117.91,117.91,0,0,1,19.2,15.19c1.68,1.61,3.28,3.3,5,4.92.48.47.49.75,0,1.25Q83,31.6,79.89,34.86c-.56.6-.86.55-1.39,0A131.58,131.58,0,0,0,63.33,21.12a59,59,0,0,0-14.59-8.6C32.38,6.29,14,16.78,11.25,34c-1.37,8.53,0,16.55,5.39,23.53,4.39,5.68,10.41,8.6,17.33,10,7.74,1.6,14.68-.36,21.29-4.27C62.85,58.83,69.4,53.09,75.66,47c6-5.89,11.25-12.48,17-18.61,8-8.58,16.7-16.41,27-22.29,5.05-2.88,10.34-5.18,16.19-5.8a41.53,41.53,0,0,1,20.93,3.09C169.9,9,177.39,19.07,179.48,33.16a41,41,0,0,1-3.16,23.75c-5.37,11.55-14.64,18.17-26.88,21-11.33,2.64-21.6.12-31.3-5.85A116.43,116.43,0,0,1,98.82,56.87c-1.68-1.6-3.3-3.28-5-4.9-.54-.52-.55-.88,0-1.44,2-2,3.94-4,5.91-6,1-1,1-1,2,0A128.49,128.49,0,0,0,117.2,58.34c4.73,3.54,9.66,6.74,15.33,8.61,15.89,5.25,33.51-5.4,36.12-21.89,1.3-8.23.13-16-4.85-22.93-4.3-5.95-10.36-9.09-17.43-10.65-8.29-1.83-15.63.43-22.62,4.71-7.58,4.63-14.12,10.5-20.35,16.77-5.71,5.76-10.69,12.17-16.31,18-7.63,8-15.77,15.31-25.24,21.06a46.76,46.76,0,0,1-15.2,6.31,39.39,39.39,0,0,1-21.47-2c-14.88-5.49-23-16.37-25-32-.1-.82-.16-1.64-.19-2.47S0,40.34,0,39.55Z" style="fill:#666"/><path d="M157,27.59c-.15.24-.28.47-.43.68-.8,1.13-1.61,2.26-2.4,3.39a1.91,1.91,0,0,0,1.16,2.82c1.37.24,2.73.47,4.1.67.62.1.9.34.89,1-.05,2,0,4,0,6,0,.6-.19.85-.81.93-1.34.17-2.66.44-4,.66a1.9,1.9,0,0,0-1.26,3c.78,1.1,1.55,2.21,2.36,3.29a.78.78,0,0,1-.11,1.23q-2.14,2.07-4.22,4.21a.84.84,0,0,1-1.33.11q-1.71-1.29-3.48-2.49a2,2,0,0,0-2.68,1.14c-.24,1.41-.49,2.81-.68,4.22-.09.59-.33.83-1,.82-2,0-4,0-6.07,0-.62,0-.85-.22-.93-.82-.18-1.34-.43-2.66-.65-4a1.88,1.88,0,0,0-2.93-1.23c-1.16.82-2.34,1.63-3.48,2.48a.65.65,0,0,1-1-.08q-2.2-2.25-4.46-4.45a.68.68,0,0,1-.06-1q1.28-1.71,2.49-3.48a1.9,1.9,0,0,0-1.32-2.92c-1.33-.21-2.65-.48-4-.65-.6-.08-.73-.36-.72-.89,0-2,0-4,0-6.08,0-.69.31-.89.92-1,1.38-.19,2.74-.44,4.1-.68a2,2,0,0,0,1.14-2.69c-.81-1.17-1.64-2.33-2.5-3.47a.86.86,0,0,1,.12-1.34c1.43-1.38,2.83-2.79,4.21-4.21a.79.79,0,0,1,1.24-.11c1.11.84,2.25,1.63,3.38,2.43a1.94,1.94,0,0,0,2.9-1.24c.24-1.36.49-2.73.68-4.1a.74.74,0,0,1,.88-.75c2,0,4.05,0,6.07,0,.71,0,.89.32,1,.93.2,1.37.44,2.73.68,4.1a2,2,0,0,0,2.69,1.17c1.21-.83,2.39-1.68,3.58-2.54.36-.27.65-.46,1.06,0,1.49,1.53,3,3,4.52,4.54A4.61,4.61,0,0,1,157,27.59Zm-11.94,11.7a4.85,4.85,0,0,0-4.74-5.09,5,5,0,0,0-5.21,4.89,5.11,5.11,0,0,0,4.9,5A5,5,0,0,0,145.07,39.29Z" style="fill:#666"/><path d="M56.45,39.15,31.52,53.55a1.24,1.24,0,0,1-.18-.95c0-8.92,0-17.84,0-26.77,0-.8,0-1.25,1-.68q11.56,6.71,23.15,13.39C55.72,38.69,56,38.85,56.45,39.15Z" style="fill:#666"/></g></g></g></svg>