<svg xmlns="http://www.w3.org/2000/svg" viewBox="0 0 229.06 150"><g id="Layer_2" data-name="Layer 2"><g id="Layer_1-2" data-name="Layer 1"><g id="icon-cloud-architect"><path d="M228.63,101a76.6,76.6,0,0,1-3.55,10.49l0,.09c-.09.16-.18.32-.28.48l0,0-.32.46a6,6,0,0,0-1.19,2.08q-1.89,2.53-3.79,5.06h0a2.3,2.3,0,0,0-1.12,1.18h0l-.39.39v0a4.76,4.76,0,0,0-1.58,1.51l-.33.34a1,1,0,0,0-.83.74l.05,0a.69.69,0,0,0-.68.5l-.41.34a.65.65,0,0,0-.64.45,40.81,40.81,0,0,1-17.15,7,84.81,84.81,0,0,1-11.71.45c-3.91,0-7.82,0-11.73,0-1.3,0-1.73-.35-1.31-1.64a37.15,37.15,0,0,0,1.6-8.34c.12-1.27.6-1.56,1.76-1.55q8,.06,15.89,0a26.87,26.87,0,1,0-4.19-53.45,40,40,0,0,0-13.43,4.2c.37-5.8,1.2-11.28.76-16.78a10.62,10.62,0,0,0-.34-4.16l-.1-1.13a8.82,8.82,0,0,0-.68-3.4l-.1-.79a9.19,9.19,0,0,0-1.31-4v-.12a5.79,5.79,0,0,0-1.15-2.87c-.06-.19-.12-.38-.19-.57l-.24-.36v0c0-.31,0-.6-.37-.75h0A1.58,1.58,0,0,0,169,35.4v-.11l-.09-.06a1.45,1.45,0,0,0-.71-1.19l0,0a.74.74,0,0,0-.44-.74h0a.72.72,0,0,0-.42-.71l0,0-.32-.41a1.71,1.71,0,0,0-.75-1.13,29.73,29.73,0,0,0-7.48-8l-.09.08.1-.07a4.39,4.39,0,0,0-2-1.69.19.19,0,0,0-.24-.14l-.49-.38,0,0-.42-.34,0,0a.74.74,0,0,0-.7-.47l0,0-.46-.33h0a.74.74,0,0,0-.73-.46l0,0-.46-.31a1.14,1.14,0,0,0-.88-.53,2.83,2.83,0,0,0-1.74-1v0l-.4-.26a45,45,0,0,0-23.93-5.72c-20.69.69-34.35,12.92-41.54,31.43a1.15,1.15,0,0,0-.37,1c0,.17-.09.34-.14.51a2.23,2.23,0,0,0-.71,1.75.77.77,0,0,0-.27.79C83,48.43,82,48.7,80.7,48.28a4,4,0,0,0-1.92-.46,1,1,0,0,0-1.11-.29l-.77-.12a26.28,26.28,0,0,0-7.53-1.09l-1.53-.06h-.76l-.76,0a14.25,14.25,0,0,0-6.8,1.06,2.92,2.92,0,0,0-1.89.55,3.57,3.57,0,0,0-2.3.93h0l-.61.32-.13,0a.8.8,0,0,0-.8.4h0a1.91,1.91,0,0,0-1.48.81c-.15.08-.29.17-.43.26a1.62,1.62,0,0,0-1.22.82.69.69,0,0,0-.64.45.54.54,0,0,0-.59.37l-.91.78-.42.33-.37.31-.43.42,0,0a3.67,3.67,0,0,0-1.75,1.62l-.05,0a5.17,5.17,0,0,0-2,2.16h0a5.27,5.27,0,0,0-2,2.6h0l-.37.45-.3.46a1.21,1.21,0,0,0-.71,1.09,1,1,0,0,0-.51,1,1.71,1.71,0,0,0-.64,1.31l0,.08a1.12,1.12,0,0,0-.46,1.06l0,.14a2.61,2.61,0,0,0-.82,2.13,1.32,1.32,0,0,0-.31,1.27l-.21.6-.15.59-.19.54-.1.78a2.38,2.38,0,0,0-.33,1.87l-.06.78a5.5,5.5,0,0,0-.31,3c0,2-.16,4-.08,6.05.05,1.28-.28,1.74-1.65,1.74A39.17,39.17,0,0,0,23,86.89c-10.78,3.25-12.76,12.73-11,20.3,1.92,8.36,8.82,13.67,17.42,13.73s17.41.06,26.11,0c1.36,0,2,.25,2.13,1.8a47.61,47.61,0,0,0,1.56,8.35c.19.75.41,1.37-.76,1.36-10.53-.12-21.07.41-31.58-.24-9.64-.59-17-5.47-22.34-13.39-.18-.26-.38-.5-.57-.75a2.6,2.6,0,0,0-.84-1.52,1.43,1.43,0,0,0-.51-1.09L2.39,115l-.66-1.64C.84,109.7-.09,106,0,102.23c0-1.07.09-2.14.14-3.21A4,4,0,0,0,.6,96.89a.22.22,0,0,0,.11-.29c.07-.4.15-.8.23-1.21a33.61,33.61,0,0,1,5.94-11,28.3,28.3,0,0,1,16.19-9.73c1-.22,1.61-.5,1.79-1.71,3.58-23.25,22.49-38.95,46-38.22a6.32,6.32,0,0,0,.75-.06c1.4.17,3.12,1.2,4.09-.36,1.56-2.51,2.74-5.27,4.07-7.92l0,0a1.57,1.57,0,0,0,1-1.27l0,0a1.48,1.48,0,0,0,.84-1.15A57.68,57.68,0,0,1,134.06.31,56.08,56.08,0,0,1,172.4,20.44a55.31,55.31,0,0,1,13.44,33.61c.1,1.86.73,2.16,2.35,2,18.73-1.93,38.08,12.25,40.67,33.51.37,3,.09,6,.16,9.07a.93.93,0,0,0-.24.94Z" style="fill:#4d4d4d"/><path d="M125,106c1.59.19,1.92,1.1,1.88,2.61-.12,3.86,0,3.87-3.79,4.72-.93.21-1.86.39-2.79.55s-1.82.41-2.14,1.71a2.19,2.19,0,0,0,.89,2.68,30.17,30.17,0,0,1,4.11,3.62c1.86,2-.85,3.1-1.24,4.68-.23.95-.82,1.61-2.1,1.06-1.68-.71-3.47-1.15-5.19-1.79-.89-.33-1.55-.48-2.32.38s-1.31,1.58-.82,2.82c.68,1.69,1.19,3.45,1.8,5.17.21.62.47,1.22-.27,1.66-1.3.76-2.62,1.51-3.94,2.25-.75.41-1.14-.15-1.57-.63-1.2-1.38-2.43-2.73-3.61-4.12a1.64,1.64,0,0,0-2.12-.67c-.9.37-2,.37-2.14,1.74-.26,1.87-.79,3.7-1.09,5.56-.15.94-.55,1.23-1.47,1.28-4.87.29-4.87.31-5.79-4.52-.12-.62-.31-1.23-.37-1.85-.09-.88-.28-1.59-1.33-1.77s-2.12-.83-3.09.4c-1.13,1.44-2.45,2.72-3.61,4.12A1.33,1.33,0,0,1,81,138c-4.31-2.13-4.32-2.11-2.78-6.66.19-.54.37-1.07.57-1.6.39-1,.62-1.84-.44-2.67s-1.56-1.7-3.06-.92a45.58,45.58,0,0,1-4.44,1.55,1.6,1.6,0,0,1-2.39-1A15,15,0,0,0,67,124.26a1.92,1.92,0,0,1-.22-2.26c1.26-.15,1.88-1.12,2.56-2,2.91-2.09,3-2.27,2.29-4.58A1.72,1.72,0,0,0,70.05,114c-1.73-.3-3.45-.7-5.18-1.06a1.43,1.43,0,0,1-.37-.07c-2.23-1.34-.63-3.48-1.06-5.2-.3-1.22.78-1.38,1.55-1.32,2,.17,3.63-.78,5.44-1.17,1.29-.27,1.85-3.33.85-4.22-1.37-1.22-2.74-2.43-4.14-3.6a1.39,1.39,0,0,1-.37-2.08C69,91.2,69,91.2,73.49,92.65c1.58.51,3.19,1.68,4.72-.33a2.24,2.24,0,0,0,.5-2.38c-.6-1.66-1.12-3.35-1.74-5a1.33,1.33,0,0,1,.66-1.85c4-2.64,4-2.66,7.18.92a12.54,12.54,0,0,1,1.35,1.58c.73,1.14,1.62,1,2.77.74a2.11,2.11,0,0,0,1.82-2c.2-1.43.72-2.83.81-4.26.11-1.87,1-2.19,2.69-2.14,3.84.13,3.84,0,4.58,3.73.18.87.36,1.73.51,2.6.18,1,.4,1.87,1.68,2.17s2.13.24,2.93-.87,2-2.14,2.82-3.31a2.24,2.24,0,0,1,3.11-.68c1,.44,1.86,1,2.81,1.54s.67,1.08.44,1.77c-.63,1.85-1.19,3.73-1.89,5.55-.41,1,0,1.61.7,2.29a1.86,1.86,0,0,0,2.31.62c1.82-.71,3.71-1.21,5.54-1.88.87-.32,1.37-.21,1.83.65,2.89,5.4,3.25,3.15-1.17,7.42-.36.34-.75.66-1.12,1l-.39.57h0a.37.37,0,0,0-.47.32v0c-1,1.18-.56,3.24.86,3.58C121.2,105.38,123.11,105.64,125,106ZM88.35,96.18l0,0a1.41,1.41,0,0,0-1.2.68v0a6.1,6.1,0,0,0-2.93,2.35l0,0a.61.61,0,0,0-.54.62l0,0a4.7,4.7,0,0,0-1.75,2.39.16.16,0,0,0-.09.23c-3,4.91-2.45,9.86,0,14.77.5,1,1,2.18,2.25,2.57h0a5.87,5.87,0,0,0,3.14,2.55v0a1.52,1.52,0,0,0,1.18.72h0a8.81,8.81,0,0,0,4.9,1.45,12.22,12.22,0,0,0,4.18-.06,3.71,3.71,0,0,0,2.26-.67,1.25,1.25,0,0,0,1.15-.4,6.21,6.21,0,0,0,3.09-1.81,13.24,13.24,0,0,0,5.31-7.31c2.66-7.82-2.16-17-9.83-18.86A1.32,1.32,0,0,0,98.12,95a.19.19,0,0,0-.27,0l-.43-.12-1.21-.15a11.24,11.24,0,0,0-6.89,1l-.69.22Z" style="fill:#ffaf00"/><path d="M145,108.16h.78l.18,0,.19,0,.69.22a11.67,11.67,0,0,0,.78,3.74.21.21,0,0,0,.05.3c-.18,1,.47,1.3,1.25,1.52a1.32,1.32,0,0,0,1.59-.62,29.35,29.35,0,0,1,2.14-2.34c.35-.36.65-.7,1.27-.55,2.26.53,2.95,1.8,2.09,3.89a7.19,7.19,0,0,0-.37.86c-.21.93-.82,1.87.17,2.77s1.94.32,2.85-.22h0a1.22,1.22,0,0,0,1.14-.35l.76-.21L161,117h1a8.55,8.55,0,0,0,1.58,2.64l0,1.09-.85.73a.2.2,0,0,0-.24.17,5.49,5.49,0,0,0-1.91,1.77h0c-1,.47-.93,1.17-.4,2,.94,1.3,2.48,1.06,3.74,1.24,1.77.26,1.8,1.24,1.85,2.62s-.39,2.11-1.84,2.2a20.43,20.43,0,0,0-2.42.42A1.64,1.64,0,0,0,160,133a1.51,1.51,0,0,0,.62,1.79c.48.4.95.83,1.42,1.25,2,1.82,2,1.8.49,4.14a1.23,1.23,0,0,1-1.69.65c-1-.37-2-.7-3.05-1-1.59-.46-2.56.51-2.13,2.13a8.4,8.4,0,0,0,.61,1.79c.93,1.77.48,2.83-1.37,3.67-1.07.47-1.68.53-2.37-.41-.56-.76-1.25-1.43-1.86-2.15a1.34,1.34,0,0,0-1.65-.52c-.67.27-1.26.48-1.32,1.37s-.33,1.48-.39,2.22c-.13,1.53-.78,2.09-2.41,2.05s-2.4-.32-2.47-2a11,11,0,0,0-.46-2.41,1.72,1.72,0,0,0-2.82-.76c-.5.47-.93,1-1.39,1.54-1.6,1.79-2.66,1.82-4.44.21a1.26,1.26,0,0,1-.27-1.54c.29-.83.55-1.67.87-2.5a1.81,1.81,0,0,0-2.35-2.48c-.7.28-1.47.4-2.14.73-1.2.58-1.8.2-2.55-.89-1.11-1.6-1-2.65.64-3.64a7.38,7.38,0,0,0,1.26-1.12A1.81,1.81,0,0,0,128,132a7.43,7.43,0,0,0-1.86-.34c-1.9,0-2.33-1-2.25-2.79.06-1.38.53-1.8,1.79-2.1s3,.15,3.61-1.71c.65-2-1.36-2.29-2.2-3.27s-1.65-1.35-.69-2.63c.81-1.07,1.17-2.65,3.08-1.59a10.1,10.1,0,0,0,2.32.8,1.75,1.75,0,0,0,2.19-2.13,7.78,7.78,0,0,0-.68-1.95c-.85-1.58-.54-2.51,1.15-3.38,1.36-.7,2.17-.69,2.92.62a1.69,1.69,0,0,0,.37.43c.92.82,1.46,2.47,3.17,1.71,1.44-.64,1.07-2.09,1.23-3.28.22-.7.44-1.39.65-2.09h0Zm-6.76,13.46a.66.66,0,0,0-.54.57v0a1.14,1.14,0,0,0-.85.89,9.56,9.56,0,0,0,.57,12.9A9.88,9.88,0,0,0,153.6,125c-1.26-2.44-2.83-4.79-6-5.09a.59.59,0,0,0-.64-.27,1.64,1.64,0,0,0-1.18-.24,8,8,0,0,0-6.48,1.48l-.28.23a.64.64,0,0,0-.66.45Z" style="fill:#ffaf00"/></g></g></g></svg>