<svg xmlns="http://www.w3.org/2000/svg" viewBox="0 0 200 46.98"><g id="Layer_2" data-name="Layer 2"><g id="Layer_1-2" data-name="Layer 1"><g id="logo-open-shift"><path d="M26.51,0a22.89,22.89,0,0,1,17.7,8.22c1,1.15,1.74,1.65,3.13.88,2-1.08,2.43.65,3,1.82.78,1.56-.82,1.49-1.55,1.82-1.51.7-3.72.62-4.49,2s.81,3.08,1.07,4.72c.06.34.14.68.21,1,.44,2.49.48,2.59,2.78,1.63,1.61-.66,1.42.31,1.45,1.24.45,14.08-13.1,25.74-27,23.29A23.27,23.27,0,0,1,8.36,38.46c-.88-1.08-1.65-1.35-2.82-.68-1.64.94-2.66.42-3.43-1.25C1.44,35.07.74,33.63.18,32.11c-.46-1.22,0-1.79,1.11-2.16S3.79,29,5,28.58c1.83-.67,2.32-2,1.3-3.65-.62-1-1.39-.37-2-.08-1.21.56-1.42.07-1.49-1-.6-10.2,7.7-21,17.83-23.1A21.71,21.71,0,0,1,26.51,0Zm.61,38.64C33.48,38.66,39.41,34,41.21,27c.15-.6.5-1.3,0-1.79s-1.21,0-1.74.23c-1.19.53-1.84.45-1.82-1.08a12.45,12.45,0,0,0-1.23-5.69c-.44-.9-.26-1.41.74-1.72,1.46-.46,2.91-1,4.33-1.57.48-.19,1.16-.27,1.22-1,.1-1.12-2.09-2.76-3.18-2.42s-2,1-3.11,0A15,15,0,0,0,21.2,9.19c-4.58,1.55-9.24,6.7-9.81,11.38-.13,1.07.2,1.56,1.23,1.14,1.66-.69,1.92,0,2,1.52s-.31,2.19-1.69,2.59-2.61,1-4,1.37S7.57,28.28,8,29.4a19.72,19.72,0,0,0,2.52,4.81,1.91,1.91,0,0,0,2.84.72c1.39-.77,2.48-.51,3.76.53A14.61,14.61,0,0,0,27.12,38.66Z" style="fill:#db2735"/><path d="M122.64,28.64c0-3.11,0-5.88,0-8.65,0-1.23-.15-2.31,1.78-2.26s1.72,1.14,1.72,2.36c0,4.63,0,9.25,0,13.88,0,.8.54,2-.86,2.21-1.15.16-2.31.28-3.14-1-1.79-2.84-3.72-5.59-5.64-8.34-.33-.48-.55-1.14-1.59-1.3,0,3,0,5.86,0,8.76,0,1.33-.17,2-1.81,2s-1.79-.72-1.77-2c.06-4.77,0-9.53,0-14.3,0-.75-.47-1.92.74-2.09s2.48-.46,3.38.94c1.72,2.72,3.56,5.36,5.35,8A3.69,3.69,0,0,0,122.64,28.64Z" style="fill:#171717"/><path d="M56.35,27.41c0-5.05,1.89-8.22,5.36-9.43a7.82,7.82,0,0,1,10.51,6,13.39,13.39,0,0,1-.42,7.63,7.55,7.55,0,0,1-8.53,4.89,8,8,0,0,1-6.83-7.39C56.37,28.42,56.37,27.72,56.35,27.41Zm12.42-.57a14.33,14.33,0,0,0-.22-2.29C68.06,22.67,67,21.24,64.92,21a3.92,3.92,0,0,0-4.27,2.68,8.29,8.29,0,0,0,.17,7.1,3.91,3.91,0,0,0,3.43,2.4A4,4,0,0,0,68,30.89,8.39,8.39,0,0,0,68.77,26.84Z" style="fill:#171717"/><path d="M94.38,27.05c0-2.52.05-5,0-7.55,0-1.21.26-1.77,1.63-1.73,3.07.09,6.16.1,9.23,0,1.51-.05,1.68.66,1.73,1.9.06,1.44-.69,1.58-1.82,1.55-1.89-.06-3.78,0-5.66,0-1.66-.07-1.51,1-1.53,2.08s0,2,1.52,1.85c.62-.07,1.27.08,1.88,0,1.89-.33,2,.74,2,2.19,0,1-.41,1.37-1.38,1.28-.48,0-1,.05-1.47,0-2-.33-2.7.48-2.55,2.51.1,1.34.47,1.88,1.84,1.84,2.1-.08,4.2,0,6.3,0,1.35-.06,1.46.68,1.46,1.7s0,1.76-1.4,1.73c-3.43-.08-6.86-.06-10.29,0-1.11,0-1.47-.37-1.45-1.45C94.42,32.22,94.38,29.63,94.38,27.05Z" style="fill:#171717"/><path d="M81.73,17.91a29.26,29.26,0,0,1,4.19,0A5.66,5.66,0,0,1,91,23.88a5.78,5.78,0,0,1-5.61,5.48l-.84.05c-4.26.16-4.33.16-4.23,4.57,0,1.63-.22,2.49-2.12,2.31-1.06-.1-1.48-.35-1.47-1.46q.06-7.78,0-15.56c0-1.25.52-1.56,1.65-1.49s2.24,0,3.36,0Zm1.39,3.3c-1.49,0-3.14-.51-2.93,2.12s0,2.72,2.77,2.72c.7,0,1.4,0,2.09-.06a2.18,2.18,0,0,0,2.12-2.4A2.21,2.21,0,0,0,85,21.22C84.38,21.16,83.75,21.21,83.12,21.21Z" style="fill:#171717"/><path d="M160.73,27.23c0,2.52,0,5,0,7.56,0,1.13-.4,1.46-1.46,1.48S158,35.82,158,34.88c0-1.68-.06-3.37,0-5,.06-1.31-.28-2-1.74-1.86-2.15.17-4.85-.83-6.33.39s-.32,3.95-.51,6c-.07.85.29,1.87-1.23,1.9s-1.53-.75-1.52-1.86c0-4.9,0-9.81,0-14.71,0-1-.09-2,1.44-1.95s1.3.93,1.31,1.84v3.15c0,2.68,0,2.72,2.79,2.67,1.81,0,4.09.75,5.31-.34s.28-3.44.46-5.23c.09-.88-.4-2.05,1.27-2.09s1.48,1.07,1.48,2.12Z" style="fill:#171717"/><path d="M136.38,17.6a5.25,5.25,0,0,1,4.5,1.78c.39.47,1.56,1,.57,1.84-.75.62-1.7,1.05-2.59,0a3.59,3.59,0,0,0-3.06-1.08,2.34,2.34,0,0,0-2.42,1.65c-.36,1.29.54,2,1.48,2.46,1.24.62,2.59,1,3.86,1.59,3.3,1.47,4.38,3.22,3.93,6.31-.33,2.27-2.3,4-5,4.33-3.09.4-6.35-1.08-7.34-3.34-.23-.51-.56-1,.3-1.34s1.64-.91,2.37.18a4.12,4.12,0,0,0,4,1.89c1.33-.1,2.52-.5,2.83-2a2.65,2.65,0,0,0-1.57-3.28c-1.22-.53-2.46-1-3.69-1.49-3.1-1.25-4.44-3.13-4-5.61S133.09,17.59,136.38,17.6Z" style="fill:#171717"/><path d="M173.06,27.07c0-2.6,0-5.19,0-7.78,0-1.07.36-1.52,1.45-1.51,2.95,0,5.89,0,8.83,0,1.08,0,1.27.51,1.3,1.42,0,1.08-.52,1.28-1.43,1.26-1.89,0-3.79,0-5.68,0-1.1,0-1.61.23-1.65,1.49-.09,3.5-.16,3.48,3.31,3.51.68,0,1.42-.25,2,.26s.34,1.05.27,1.58c-.1.72-.74.68-1.31.72-1.31.11-3-.59-3.85.33-1.05,1.13-.27,2.94-.41,4.45a16.35,16.35,0,0,0,0,2.1c0,1-.33,1.4-1.35,1.38S173,36,173,34.84C173.11,32.25,173.06,29.66,173.06,27.07Z" style="fill:#171717"/><path d="M192,28.28c0-2.1-.06-4.21,0-6.31.05-1.21-.38-1.64-1.57-1.52-.76.08-1.54,0-2.31,0s-1.48-.16-1.45-1.26.33-1.43,1.34-1.42c3.57,0,7.15,0,10.72,0,1,0,1.29.53,1.3,1.46s-.45,1.18-1.28,1.23c-1.25.07-2.88-.58-3.65.29-.95,1.07-.32,2.8-.35,4.25-.06,3.08,0,6.16,0,9.24,0,.94.29,2-1.33,2s-1.43-.91-1.42-1.91C192,32.34,192,30.31,192,28.28Z" style="fill:#171717"/><path d="M165.52,26.84c0-2.52,0-5,0-7.56,0-1,.27-1.53,1.42-1.51s1.39.58,1.39,1.58q0,7.77,0,15.54c0,1-.34,1.35-1.33,1.37s-1.51-.33-1.48-1.44C165.55,32.16,165.52,29.5,165.52,26.84Z" style="fill:#171717"/></g></g></g></svg>