<svg xmlns="http://www.w3.org/2000/svg" viewBox="0 0 120 71.77"><g id="Layer_2" data-name="Layer 2"><g id="Layer_1-2" data-name="Layer 1"><g id="logo-aws"><path d="M62.74,71.75C37.08,71.63,17.68,64,1.05,49.14c-.59-.54-1.47-1.11-.82-2s1.54-.27,2.26.15a115.92,115.92,0,0,0,40.45,14.3,111.91,111.91,0,0,0,23.41,1.3,114.67,114.67,0,0,0,39.07-9,4.7,4.7,0,0,1,1.69-.53,1.78,1.78,0,0,1,1.85,1,1.67,1.67,0,0,1-.49,2,6.25,6.25,0,0,1-.85.69A75.61,75.61,0,0,1,81.29,69C74.13,70.84,66.87,72,62.74,71.75Z" style="fill:#fe9902"/><path d="M61.34,9l-4.8,20c-.43,1.79-.84,3.59-1.31,5.38-.38,1.47-.86,1.82-2.38,1.85-1.06,0-2.11,0-3.17,0-1.58,0-2-.33-2.5-1.87q-2.86-9.36-5.71-18.72c-1.23-4-2.47-8.07-3.69-12.1-.68-2.27-.47-2.54,1.86-2.54h2.18c2,0,2.47.31,3,2.28.9,3.48,1.77,7,2.65,10.45Q49.23,20.83,51,27.87c.07.28.17.55.28.89.42-.28.36-.72.44-1.06q2.91-12.22,5.78-24.45c.45-1.87.86-2.19,2.81-2.2.82,0,1.65,0,2.47,0,1.93,0,2.35.32,2.8,2.22,1.29,5.42,2.55,10.84,3.83,16.27.75,3.18,1.5,6.35,2.25,9.56.48-.16.4-.6.48-.89q3.21-12.3,6.38-24.6c.6-2.33.89-2.56,3.24-2.56.93,0,1.85,0,2.78,0s1.26.44,1.14,1.31a7.67,7.67,0,0,1-.27,1.15q-4.8,15.33-9.62,30.65c-.58,1.86-.94,2.12-2.91,2.12H70.13c-1.61,0-2.09-.4-2.48-2q-2.3-9.37-4.56-18.74L61.5,9Z" style="fill:#25313f"/><path d="M27.53,31.71a14.76,14.76,0,0,1-8.24,5.09,15.22,15.22,0,0,1-7.07-.08A9.57,9.57,0,0,1,5,27.52C4.71,21.24,8.68,16.6,15.07,15.68a30.39,30.39,0,0,1,11,.71c.85.19,1.19.12,1.11-.86-.1-1.21,0-2.44-.14-3.66-.43-4.15-2.4-6-6.6-6.3A23.29,23.29,0,0,0,10,7.46c-2.4,1-2.55.78-2.7-1.75A3.17,3.17,0,0,1,9.67,2.14,25.31,25.31,0,0,1,25.07.58c5.13,1.16,8,4.6,8.47,9.87.37,4.62.17,9.24.14,13.87,0,2.86.25,5.59,1.79,8.07a1.3,1.3,0,0,1-.42,1.91c-.89.63-1.79,1.23-2.72,1.8a1.61,1.61,0,0,1-2.16-.29,10.62,10.62,0,0,1-1.78-2.48C28.12,32.81,27.84,32.29,27.53,31.71ZM20.29,20.15c-.79,0-1.59,0-2.38.11-4.52.39-6.86,3.62-5.81,8a4.37,4.37,0,0,0,3.6,3.51,10.53,10.53,0,0,0,8.43-1.87A6.67,6.67,0,0,0,27,25.08c.12-1.08.09-2.17.2-3.25.07-.67-.25-.86-.8-1A36.56,36.56,0,0,0,20.29,20.15Z" style="fill:#25313f"/><path d="M99.66,37.3a25.15,25.15,0,0,1-8.61-1.76,3.92,3.92,0,0,1-2.53-5.32c.22-.72.77-.78,1.35-.61s1.16.47,1.75.69a20.89,20.89,0,0,0,12.22,1.24c2.62-.58,4.13-2.17,4.26-4.31a4,4,0,0,0-2.23-4,27.9,27.9,0,0,0-5.36-2,39.4,39.4,0,0,1-6.14-2.2c-4.41-2.31-6.55-7-5.06-11.46C90.58,3.78,93.5,1.67,97.23.65c4.54-1.24,9-.59,13.3,1A3,3,0,0,1,112.73,5c-.12,2.7-.22,2.82-2.78,1.79a17.7,17.7,0,0,0-11-1c-2.82.67-4.14,2.88-3.38,5.39a4.32,4.32,0,0,0,2.25,2.51,29.88,29.88,0,0,0,5.17,2c1.93.64,3.9,1.19,5.79,2,7.6,3.24,7.34,12.53,1.88,16.69C108.16,36.28,104.7,37.32,99.66,37.3Z" style="fill:#25313f"/><path d="M107.46,49.45c-2.71.11-5.4.37-8.09.68-.64.07-1.55.48-1.87-.35s.55-1.24,1.14-1.62A23,23,0,0,1,110,44.88a22.88,22.88,0,0,1,7.94.77c1.65.5,2.09,1,2,2.7a25.18,25.18,0,0,1-7.11,17.33,6.88,6.88,0,0,1-1.15.93c-.36.24-.79.42-1.18,0s-.24-.71-.08-1.09c.5-1.29,1-2.57,1.5-3.87a33.27,33.27,0,0,0,2.32-8.47c.21-2.4-.3-3-2.69-3.49a6.71,6.71,0,0,0-.88-.14C109.64,49.54,108.55,49.5,107.46,49.45Z" style="fill:#fe9902"/></g></g></g></svg>