<svg xmlns="http://www.w3.org/2000/svg" viewBox="0 0 200 57.11"><g id="Layer_2" data-name="Layer 2"><g id="Layer_1-2" data-name="Layer 1"><g id="logo-azure"><path d="M199.91,35.43,199,31.91a10.1,10.1,0,0,0-4.86-5L191,26.14l-3.5.31-3.17,1.38-1.23.93L181.22,31c-.17.3-.33.61-.49.91-.44,1.18-.89,2.37-1.34,3.55L179,38.6l.25,3.52.91,3.18.72,1.43,1.66,2.05,1.82,1.28a14.46,14.46,0,0,0,9.84.85l3.55-1.44.65-.66a16.5,16.5,0,0,0-.09-1.87c-.07-.41.44-1.13-.5-1.19a7.2,7.2,0,0,1-3.57,1.73A8.12,8.12,0,0,1,191,48a6.25,6.25,0,0,1-3.49-.56,5.31,5.31,0,0,1-2.82-2.17,8.69,8.69,0,0,1-1.65-4.2c-.17-1.05.19-1.5,1.27-1.2h13.4c.82-.32,2.37.64,2.28-1.29Zm-4.73,1.13c-2.56,0-5.13.14-7.68-.13a11.94,11.94,0,0,1-3.16,0c-.92.28-1.47.24-1.09-1a7.23,7.23,0,0,1,1.94-3.55,4.69,4.69,0,0,1,2.29-1.73,5.61,5.61,0,0,1,3.54-.45c2.82.31,4.64,2.49,4.79,5.71C196.12,36.09,196.07,36.56,195.18,36.56Z" style="fill:#028ad5"/><path d="M21.31,41.77l2.94-6.34a61.91,61.91,0,0,1,3.15-6.7A69.28,69.28,0,0,1,30.51,22a15,15,0,0,1,1.65-3.48,8.71,8.71,0,0,1,1.26-2.71l.18-.51c.55-1.17,1.11-2.34,1.67-3.51s1-2.19,1.51-3.29l1.76-3.69c.53-1.17,1.08-2.33,1.56-3.52.16-.39.81-.86,0-1.3L30.25,8.3l-.5.41a17.59,17.59,0,0,1-3,2.52l-.69.6a13.81,13.81,0,0,1-2.46,2.05,9.21,9.21,0,0,1-1,1A18.19,18.19,0,0,0,16.45,22c-1.1,2.36-2.88,4.33-3.91,6.74L8.65,35.46A16.42,16.42,0,0,1,6.76,38.7v0a17.79,17.79,0,0,1-2,3.41,6.62,6.62,0,0,1-1.32,2.23,1.65,1.65,0,0,1-.55,1C2,47.09,1,48.85,0,50.62l3.47.12,3.18,0H16.86c.4-.66.79-1.33,1.18-2A69.54,69.54,0,0,1,21.31,41.77Z" style="fill:#028ad5"/><path d="M174.44,26.43a1.54,1.54,0,0,1-.31-.05,9.58,9.58,0,0,0-3.2,1.1l-1.28,1.25c-.49.83-1,1.67-1.55,2.66V28.73c-.35-.61.5-1.63-.68-1.93l-3.17.07c0,.62-.09,1.23-.13,1.85V48.8c0,.63.07,1.27.11,1.91l3.18.13c1.21-.35.35-1.39.69-2V42.11c0-1.16,0-2.33,0-3.49a6.72,6.72,0,0,1,.5-3.65c.81-3.2,2.79-5,5.5-4.91.87-.2,1.62.5,2.51.42,0-.63.07-1.19.11-1.75C176.61,26.55,176.61,26.55,174.44,26.43Z" style="fill:#028ad5"/><path d="M73.56,55.57,71.48,52l-3.61-6.32a68.1,68.1,0,0,1-4.09-7.06.17.17,0,0,1-.09-.18,15.22,15.22,0,0,1-1.77-3L58.29,29.1A68.79,68.79,0,0,1,54.21,22a66.43,66.43,0,0,1-3.84-6.71,18.5,18.5,0,0,1-2-3.46,71.23,71.23,0,0,1-3.87-6.66c-.27-.45-.53-.91-.8-1.37-.78.1-.49,1-1,1.31a15.45,15.45,0,0,1-1.28,3.5c-1.33,4-2.74,8-4.38,12L36.56,22a54.83,54.83,0,0,1-2,5.52,2.46,2.46,0,0,0,.64,3.21,8.78,8.78,0,0,1,.85,1.13A2.55,2.55,0,0,1,37,33.05a11,11,0,0,1,2,2.32q5.52,6.57,11,13.12l2.07,2.29a32.08,32.08,0,0,1-5.27.89,58.24,58.24,0,0,1-6.69,1.21l-3.21.53a16.39,16.39,0,0,1-3.48.55,10.28,10.28,0,0,1-3.2.58,12.34,12.34,0,0,1-3.51.63A54.28,54.28,0,0,1,20,56.41L18,57l2.09.12H73.64C74.74,56.55,73.41,56.09,73.56,55.57Z" style="fill:#028ad5"/><path d="M154.83,27.12A2.51,2.51,0,0,1,154,27c-1.61-.36-1.47.79-1.53,1.77s0,2.13,0,3.19v6.69c0,1.17,0,2.34,0,3.51-.38,3.18-2.3,5.37-5.07,5.79a4.38,4.38,0,0,1-3.54-.36,3.5,3.5,0,0,1-2.23-1.9,6.28,6.28,0,0,1-1-3.5,12.22,12.22,0,0,1-.06-3.52,9.67,9.67,0,0,1,0-3.22c0-1.16,0-2.32,0-3.48a10.17,10.17,0,0,1,0-3.21c-.06-.63-.13-1.26-.19-1.88l-2.84,0c-1.48.06-.68,1.27-1,1.93v3.19c0,1.17,0,2.33,0,3.5v6.69c.16,1,.33,2.09.49,3.13a8.1,8.1,0,0,0,2.9,4.59c2.27,1.62,4.8,1.75,7.44,1.36a10.31,10.31,0,0,0,3.51-1.78l1.6-2c.06.46.09.65.1.84.18,2.65.18,2.6,2.89,2.54.94,0,1.18-.35,1.15-1.21,0-1.43,0-2.86,0-4.3V28.73C156.73,27.4,156.14,26.9,154.83,27.12Z" style="fill:#028ad5"/><path d="M109,45.31a11.81,11.81,0,0,1-1.24-3.19,51.05,51.05,0,0,1-2.55-6.7A14.34,14.34,0,0,1,103.87,32a57.17,57.17,0,0,1-2.58-6.7,59.21,59.21,0,0,1-2.57-6.67c-.38-.57-.47-1.46-1.48-1.34-1.12.31-2.38-.37-3.43.46,0,.31,0,.64-.33.86A14.57,14.57,0,0,1,92.14,22a53,53,0,0,1-2.55,6.69,12.19,12.19,0,0,1-1.23,3.2,11.72,11.72,0,0,1-1.3,3.34l0,.09-.07.06a12.55,12.55,0,0,1-1.23,3.2,46.6,46.6,0,0,1-2.56,6.69,13.74,13.74,0,0,1-1.33,3.5c-.55,1.9-.55,1.9,1.48,2a3.4,3.4,0,0,1,.46.07c1.47.22,2.13-.53,2.49-1.87s.88-2.45,1.33-3.68a.43.43,0,0,1,0-.16c1.18-4,1.18-4,6-3.64l8.61-.07c.48,0,1,0,1,.68a48.27,48.27,0,0,1,2.53,6.7c.58.57.3,1.7,1.27,2h3.53c.44-.54-.05-1-.19-1.42C110,48,109.49,46.68,109,45.31Zm-8.58-7.6a12.85,12.85,0,0,1-3.16,0,8.13,8.13,0,0,1-3.54,0c-.31,0-.63.07-.94.08-2.62,0-2.62,0-1.55-2.36a22.88,22.88,0,0,1,1.48-3.92,9.34,9.34,0,0,1,1-2.79A14.11,14.11,0,0,1,95,25.22c.33-1,.65-2.08,1.07-3.43.43,1.35.74,2.35,1.06,3.35l2.48,6.75c.6,1.58,1.17,3.17,1.82,4.72C101.94,37.83,101.52,38,100.42,37.71Z" style="fill:#028ad5"/><path d="M124,39.43a1.21,1.21,0,0,1,.58-.84l7.16-9.85c.71-1.19.53-1.91-1-1.94h-3.52a11.29,11.29,0,0,1-3.18,0h-3.52a11.29,11.29,0,0,1-3.18,0l-3.5,0-.25,1.9c.06.47.13.93.2,1.4a20.2,20.2,0,0,1,3.56.13,12.85,12.85,0,0,1,3.16,0,10,10,0,0,1,3.53,0l2.46-.11-4,5.3a12.43,12.43,0,0,1-1.94,2.66l-.36.5a77.14,77.14,0,0,1-4.85,6.67,7.43,7.43,0,0,1-1.52,2.08,3.75,3.75,0,0,1-1,1.43c-.88,1.75-.82,1.86,1,2h16.92c1.79.2,1.11-1.2,1.32-2,.12-1-.32-1.45-1.33-1.33H118.15a41.87,41.87,0,0,1,3.91-5.39A11.49,11.49,0,0,1,124,39.43Z" style="fill:#028ad5"/></g></g></g></svg>