<svg xmlns="http://www.w3.org/2000/svg" viewBox="0 0 300 47.18"><g id="Layer_2" data-name="Layer 2"><g id="Layer_1-2" data-name="Layer 1"><g id="logo-gcd"><path d="M42.17,5.63C45.23,7.85,47,11,48.31,14.42a6.71,6.71,0,0,0,1.88,2.71,15.79,15.79,0,0,1,4.4,17.61A15.54,15.54,0,0,1,40,44.77c-4,0-8-.07-12.08-.12q0-4.71,0-9.44c3.79-.05,7.59-.08,11.38-.14,3.58,0,6-2,6.54-5.24.45-2.84-1.34-5.47-4.5-6.58-.76-.27-1.6-.33-1.55-1.48.17-3.86-1.78-6.77-4.29-9.42Z" style="fill:#4687f4"/><path d="M95,20.87a41.67,41.67,0,0,0,4.61,0c2.22-.25,2.94.57,2.91,2.8-.08,5.67-2.24,10.17-7.35,12.71a15.43,15.43,0,0,1-16.35-1.06c-7.2-4.9-9.16-14.53-4.48-21.37,5.16-7.55,15-9.64,22.14-4.63.73.51,2.6.88,1.37,2.35-.89,1.06-1.55,3-3.93,1.3a10.77,10.77,0,0,0-14.46,1.87,11.44,11.44,0,0,0,0,15.08,11.06,11.06,0,0,0,14.7,1.84,9.8,9.8,0,0,0,2-1.79c1-1.2,2-2.77,1.49-4.14-.48-1.17-2.31-.41-3.53-.5a26.31,26.31,0,0,0-3.87,0c-1.73.14-2.62-.17-2.59-2.3s.89-2.24,2.5-2.15S93.4,20.88,95,20.87Z" style="fill:#66696e"/><path d="M6.4,41.53C-1,36.48-2.2,25.44,3.91,18.68c1-1.08,2.11-2,3.17-3,3.86-1.78,7.8-3,12.13-2.06a18.24,18.24,0,0,1,7.56,4.17c1.21,1.14,1.59,2,.08,3.27a38.9,38.9,0,0,0-4.12,4.1c-.94,1.06-1.48,1.24-2.55,0a5.61,5.61,0,0,0-7-1.53c-4.51,2.16-4.55,7.43-.08,11Z" style="fill:#f9bc09"/><path d="M162.84,36.62c-6,2.32-10,1.44-13-2.88a10.44,10.44,0,0,1,.44-12.22c3.14-3.79,7-4.63,11.66-2.49a1,1,0,0,0,1.35-.09c2.37-1.6,4.23-.55,4.21,2.2,0,5.74.15,11.48-.18,17.2-.36,6.47-5.93,10.14-12.2,8.42a8.58,8.58,0,0,1-5-3.59c-.43-.65-1.89-1.59-.46-2.29,1.07-.53,2.44-2.46,3.87-.25a5,5,0,0,0,3.06,2.23C160.66,43.83,163.65,40.86,162.84,36.62Zm.62-8.68c0-3.51-2.17-6-5.26-6s-5.56,2.53-5.56,6,2.44,6.13,5.56,6.09S163.47,31.37,163.46,27.94Z" style="fill:#66696e"/><path d="M19.21,13.62c-4.33-1-8.27.28-12.13,2.06C9.39,4.82,22.07-2.39,33.42.73a18.1,18.1,0,0,1,8.75,4.9l-6.69,6.72c-.69-.4-1.37-.82-2.07-1.19A11.52,11.52,0,0,0,19.21,13.62Z" style="fill:#e94739"/><path d="M296.45,35.33c-4.29,3.25-8.06,3.53-11.34,1.14a10.82,10.82,0,0,1-3.43-12.22,8.91,8.91,0,0,1,9.11-6.19,7.54,7.54,0,0,1,3.84,1.35c1.22.85,1.73.47,1.72-.93,0-2.18.06-4.36,0-6.54,0-1.34.15-2.08,1.8-2s1.87.62,1.86,2c-.05,7.83,0,15.67,0,23.5,0,.93.27,2-1.3,2C297.39,37.45,296.13,37.57,296.45,35.33ZM284.72,28.1c0,3.9,2.43,6.62,5.87,6.63s5.94-2.84,5.89-6.86c0-3.85-2.53-6.55-6-6.49S284.7,24.2,284.72,28.1Zm11.35-8c0,.05-.09.11-.08.15.07.22.18.23.29,0,0,0,0-.12-.06-.16S296.12,20.13,296.07,20.13Z" style="fill:#66696e"/><path d="M218.87,9.38a12.41,12.41,0,0,1,8.9,3.23c.61.54,1.63,1.14.46,2.1-.77.64-1.18,1.88-2.7.68-4.73-3.73-10.84-3.22-14.61,1-3.61,4-3.41,11.22.41,15.1a10.51,10.51,0,0,0,14.68.28c1.4-1.24,1.92-.55,2.89.32,1.33,1.19.29,1.79-.45,2.47-4.33,4-11.84,4.68-17,1.55a14.64,14.64,0,0,1-6.24-16.71A14,14,0,0,1,218.87,9.38Z" style="fill:#66696e"/><path d="M186.86,38.07c-4.09-.14-7.22-2-8.88-5.69a10.21,10.21,0,0,1,1.18-11A8.84,8.84,0,0,1,188.43,18c3.5.73,5.51,3.13,6.85,6.28.56,1.34-.38,1.51-1.18,1.84-3.36,1.41-6.69,2.88-10.1,4.16-1.88.71-1.52,1.47-.38,2.49a5.29,5.29,0,0,0,7.27-.38c2-2,3,0,4,.81,1.18,1-.44,1.59-1,2.16A8.91,8.91,0,0,1,186.86,38.07Zm3.37-14.51a5.69,5.69,0,0,0-.87-.93,4.55,4.55,0,0,0-4.8-.27,5.26,5.26,0,0,0-3,4.09c-.15.88.39.93,1,.66,2.3-1,4.6-1.92,6.88-2.9A4.1,4.1,0,0,0,190.23,23.56Z" style="fill:#66696e"/><path d="M124.25,28a10.17,10.17,0,0,1-20.34,0,10.17,10.17,0,1,1,20.34,0Zm-4.51,0a5.69,5.69,0,0,0-5.56-6,5.6,5.6,0,0,0-5.71,5.87,5.66,5.66,0,1,0,11.27.17Z" style="fill:#66696e"/><path d="M126,27.84a10.16,10.16,0,0,1,20.31.05A10.16,10.16,0,1,1,126,27.84Zm15.75,0c0-3.49-2.33-6-5.59-6a5.73,5.73,0,0,0-5.69,5.94c0,3.41,2.63,6.26,5.77,6.18A5.84,5.84,0,0,0,141.77,27.88Z" style="fill:#66696e"/><path d="M249,18.05c5.76,0,9.74,4.12,9.7,10.06s-4,9.9-9.6,10S239.3,33.8,239.35,28,243.41,18.06,249,18.05Zm-6,10c0,3.9,2.59,6.73,6.11,6.67s6.07-2.95,6-6.8-2.59-6.5-6-6.54S243,24.15,243,28.05Z" style="fill:#66696e"/><path d="M6.4,41.53l6.7-6.93a17.07,17.07,0,0,0,4.5.49c3.43,0,6.87.08,10.3.12q0,4.73,0,9.44c-4.6,0-9.21.19-13.8,0A11.51,11.51,0,0,1,6.4,41.53Z" style="fill:#39a957"/><path d="M274.57,35.43c-1,.69-1.66,1.25-2.41,1.68-4.78,2.67-10.11,0-10.54-5.48-.31-3.86-.07-7.76-.16-11.64,0-1.56,1-1.33,1.93-1.4,1.19-.09,1.77.23,1.73,1.58-.08,3-.05,6,0,9,0,3.76,1.36,5.48,4.26,5.57s5-2,5.15-5.31c.17-3,.1-6,0-9,0-1.28.24-1.87,1.71-1.87s2,.37,1.95,1.9c-.1,4.85,0,9.71-.07,14.56,0,.9.62,2.26-1.14,2.41C275.65,37.55,274.34,37.62,274.57,35.43Z" style="fill:#66696e"/><path d="M175,22.61c0,4.35-.08,8.71,0,13.06.05,1.92-1,1.79-2.31,1.78s-2.35.17-2.33-1.76q.12-13.06,0-26.13c0-2,1.09-1.9,2.46-1.92s2.25.08,2.19,1.9C174.91,13.89,175,18.25,175,22.61Z" style="fill:#66696e"/><path d="M232.86,23.61c0-4,0-7.91,0-11.87,0-1.33.35-1.86,1.76-1.84s1.87.32,1.86,1.76q-.08,12,0,24c0,1.31-.35,1.83-1.77,1.86-1.58,0-1.88-.63-1.85-2C232.91,31.52,232.86,27.56,232.86,23.61Z" style="fill:#66696e"/></g></g></g></svg>